G75*
%MOIN*%
%OFA0B0*%
%FSLAX24Y24*%
%IPPOS*%
%LPD*%
%AMOC8*
5,1,8,0,0,1.08239X$1,22.5*
%
%ADD10R,0.0740X0.0740*%
%ADD11C,0.0740*%
%ADD12C,0.0560*%
%ADD13C,0.1000*%
%ADD14C,0.0886*%
%ADD15C,0.0400*%
%ADD16C,0.0100*%
%ADD17C,0.0080*%
%ADD18C,0.0160*%
D10*
X033636Y009918D03*
X033636Y028918D03*
D11*
X032636Y028918D03*
X031636Y028918D03*
X030636Y028918D03*
X029636Y028918D03*
X028636Y028918D03*
X027636Y028918D03*
X026636Y028918D03*
X025636Y028918D03*
X024636Y028918D03*
X023636Y028918D03*
X022636Y028918D03*
X021636Y028918D03*
X020636Y028918D03*
X019636Y028918D03*
X018636Y028918D03*
X017636Y028918D03*
X016636Y028918D03*
X015636Y028918D03*
X014636Y028918D03*
X013636Y028918D03*
X012636Y028918D03*
X011636Y028918D03*
X011636Y027918D03*
X012636Y027918D03*
X013636Y027918D03*
X014636Y027918D03*
X015636Y027918D03*
X016636Y027918D03*
X017636Y027918D03*
X018636Y027918D03*
X019636Y027918D03*
X020636Y027918D03*
X021636Y027918D03*
X022636Y027918D03*
X023636Y027918D03*
X024636Y027918D03*
X025636Y027918D03*
X026636Y027918D03*
X027636Y027918D03*
X028636Y027918D03*
X029636Y027918D03*
X030636Y027918D03*
X031636Y027918D03*
X032636Y027918D03*
X033636Y027918D03*
X043284Y027534D03*
X043284Y026534D03*
X043284Y025534D03*
X043284Y024534D03*
X043284Y023534D03*
X043284Y022534D03*
X043284Y021534D03*
X043284Y020534D03*
X043284Y019534D03*
X043284Y012534D03*
X043284Y011534D03*
X043284Y010534D03*
X033636Y008918D03*
X032636Y008918D03*
X031636Y008918D03*
X030636Y008918D03*
X029636Y008918D03*
X028636Y008918D03*
X028636Y009918D03*
X029636Y009918D03*
X030636Y009918D03*
X031636Y009918D03*
X032636Y009918D03*
X027636Y009918D03*
X026636Y009918D03*
X025636Y009918D03*
X024636Y009918D03*
X023636Y009918D03*
X022636Y009918D03*
X021636Y009918D03*
X020636Y009918D03*
X019636Y009918D03*
X018636Y009918D03*
X017636Y009918D03*
X016636Y009918D03*
X015636Y009918D03*
X014636Y009918D03*
X013636Y009918D03*
X012636Y009918D03*
X011636Y009918D03*
X011636Y008918D03*
X012636Y008918D03*
X013636Y008918D03*
X014636Y008918D03*
X015636Y008918D03*
X016636Y008918D03*
X017636Y008918D03*
X018636Y008918D03*
X019636Y008918D03*
X020636Y008918D03*
X021636Y008918D03*
X022636Y008918D03*
X023636Y008918D03*
X024636Y008918D03*
X025636Y008918D03*
X026636Y008918D03*
X027636Y008918D03*
X027284Y014534D03*
X023229Y016549D03*
X023229Y017565D03*
X023229Y018565D03*
X023229Y019518D03*
X027284Y018534D03*
X013975Y019768D03*
X013171Y019177D03*
X005534Y017784D03*
X005534Y016784D03*
D12*
X035860Y014412D02*
X035860Y013852D01*
X036860Y013412D02*
X036860Y012852D01*
X035860Y012412D02*
X035860Y011852D01*
D13*
X045471Y016073D03*
D14*
X043502Y015128D03*
X043502Y014065D03*
X043502Y017018D03*
X043502Y018081D03*
D15*
X035967Y015888D03*
X035034Y016284D03*
X034786Y015297D03*
X031784Y017534D03*
X030534Y014534D03*
X026518Y012542D03*
X026518Y011951D03*
X025337Y011360D03*
X023368Y011951D03*
X023368Y012542D03*
X021203Y015101D03*
X017069Y014904D03*
X016085Y017069D03*
X016479Y018053D03*
X018841Y018841D03*
X020022Y020120D03*
X019628Y020514D03*
X018447Y021203D03*
X017955Y022778D03*
X016282Y021597D03*
X015691Y021990D03*
X015297Y021203D03*
X015601Y019923D03*
X011459Y022089D03*
X018841Y024156D03*
X022187Y021794D03*
X025337Y021203D03*
X020612Y018250D03*
X025337Y017266D03*
X030652Y020612D03*
D16*
X030258Y020219D01*
X022975Y020219D01*
X022384Y019628D01*
X020022Y019628D01*
X019727Y019923D01*
X015601Y019923D01*
X015986Y020514D02*
X015888Y020612D01*
X012935Y020612D01*
X011459Y022089D01*
X015297Y021203D02*
X015691Y020809D01*
X018644Y020809D01*
X024746Y026912D01*
X024746Y027807D01*
X024636Y027918D01*
X024140Y027483D02*
X024061Y027404D01*
X024057Y027404D01*
X023959Y027305D01*
X021400Y027305D01*
X019628Y025534D01*
X019628Y023959D01*
X017857Y022187D01*
X016675Y022187D01*
X016282Y021794D01*
X016282Y021597D01*
X015691Y021990D02*
X015691Y021203D01*
X015888Y021006D01*
X018250Y021006D01*
X018447Y021203D01*
X019628Y020514D02*
X015986Y020514D01*
X016675Y018250D02*
X016479Y018053D01*
X016675Y018250D02*
X020612Y018250D01*
X021105Y020120D02*
X020022Y020120D01*
X021105Y020120D02*
X021597Y020612D01*
X021597Y023368D01*
X025140Y026912D01*
X028630Y026912D01*
X029636Y027918D01*
X024636Y028918D02*
X024140Y028421D01*
X020636Y027918D02*
X019333Y026614D01*
X019333Y024057D01*
X019038Y023762D01*
X018939Y023762D01*
X017955Y022778D01*
X018841Y024156D02*
X019038Y024353D01*
X019038Y025042D01*
X019136Y025140D01*
X019136Y027630D01*
X019136Y028404D02*
X019136Y028418D01*
X018636Y028918D01*
X016085Y017069D02*
X016085Y014707D01*
X018644Y012148D01*
X023171Y012148D01*
X023368Y011951D01*
X023171Y012345D02*
X023368Y012542D01*
X023171Y012345D02*
X018841Y012345D01*
X017069Y014116D01*
X017069Y014904D01*
X026518Y012542D02*
X026715Y012542D01*
X026912Y012345D01*
X031833Y012345D01*
X034786Y015297D01*
X035967Y015888D02*
X032227Y012148D01*
X026912Y012148D01*
X026715Y011951D01*
X026518Y011951D01*
D17*
X000754Y000754D02*
X000754Y031810D01*
X047715Y031810D01*
X047715Y000754D01*
X000754Y000754D01*
X000754Y000769D02*
X047715Y000769D01*
X047715Y000848D02*
X000754Y000848D01*
X000754Y000926D02*
X047715Y000926D01*
X047715Y001005D02*
X000754Y001005D01*
X000754Y001083D02*
X047715Y001083D01*
X047715Y001162D02*
X000754Y001162D01*
X000754Y001240D02*
X047715Y001240D01*
X047715Y001319D02*
X000754Y001319D01*
X000754Y001397D02*
X047715Y001397D01*
X047715Y001476D02*
X000754Y001476D01*
X000754Y001554D02*
X047715Y001554D01*
X047715Y001633D02*
X000754Y001633D01*
X000754Y001711D02*
X047715Y001711D01*
X047715Y001790D02*
X000754Y001790D01*
X000754Y001868D02*
X047715Y001868D01*
X047715Y001947D02*
X000754Y001947D01*
X000754Y002025D02*
X047715Y002025D01*
X047715Y002104D02*
X000754Y002104D01*
X000754Y002182D02*
X047715Y002182D01*
X047715Y002261D02*
X046803Y002261D01*
X046714Y002224D02*
X047005Y002344D01*
X047227Y002567D01*
X047347Y002857D01*
X047347Y003171D01*
X047227Y003462D01*
X047005Y003684D01*
X046714Y003804D01*
X046400Y003804D01*
X046110Y003684D01*
X045888Y003462D01*
X045767Y003171D01*
X045767Y002857D01*
X045888Y002567D01*
X046110Y002344D01*
X046400Y002224D01*
X046714Y002224D01*
X046993Y002339D02*
X047715Y002339D01*
X047715Y002418D02*
X047078Y002418D01*
X047157Y002496D02*
X047715Y002496D01*
X047715Y002575D02*
X047230Y002575D01*
X047263Y002653D02*
X047715Y002653D01*
X047715Y002732D02*
X047295Y002732D01*
X047328Y002810D02*
X047715Y002810D01*
X047715Y002889D02*
X047347Y002889D01*
X047347Y002967D02*
X047715Y002967D01*
X047715Y003046D02*
X047347Y003046D01*
X047347Y003124D02*
X047715Y003124D01*
X047715Y003203D02*
X047334Y003203D01*
X047302Y003281D02*
X047715Y003281D01*
X047715Y003360D02*
X047269Y003360D01*
X047237Y003438D02*
X047715Y003438D01*
X047715Y003517D02*
X047172Y003517D01*
X047093Y003595D02*
X047715Y003595D01*
X047715Y003674D02*
X047015Y003674D01*
X046840Y003752D02*
X047715Y003752D01*
X047715Y003831D02*
X000754Y003831D01*
X000754Y003909D02*
X047715Y003909D01*
X047715Y003988D02*
X000754Y003988D01*
X000754Y004066D02*
X047715Y004066D01*
X047715Y004145D02*
X000754Y004145D01*
X000754Y004223D02*
X047715Y004223D01*
X047715Y004302D02*
X000754Y004302D01*
X000754Y004380D02*
X047715Y004380D01*
X047715Y004459D02*
X000754Y004459D01*
X000754Y004537D02*
X047715Y004537D01*
X047715Y004616D02*
X000754Y004616D01*
X000754Y004694D02*
X047715Y004694D01*
X047715Y004773D02*
X000754Y004773D01*
X000754Y004851D02*
X047715Y004851D01*
X047715Y004930D02*
X000754Y004930D01*
X000754Y005008D02*
X047715Y005008D01*
X047715Y005087D02*
X000754Y005087D01*
X000754Y005165D02*
X047715Y005165D01*
X047715Y005244D02*
X000754Y005244D01*
X000754Y005322D02*
X047715Y005322D01*
X047715Y005401D02*
X000754Y005401D01*
X000754Y005479D02*
X047715Y005479D01*
X047715Y005558D02*
X000754Y005558D01*
X000754Y005636D02*
X047715Y005636D01*
X047715Y005715D02*
X000754Y005715D01*
X000754Y005793D02*
X047715Y005793D01*
X047715Y005872D02*
X000754Y005872D01*
X000754Y005950D02*
X047715Y005950D01*
X047715Y006029D02*
X000754Y006029D01*
X000754Y006107D02*
X047715Y006107D01*
X047715Y006186D02*
X000754Y006186D01*
X000754Y006264D02*
X047715Y006264D01*
X047715Y006343D02*
X000754Y006343D01*
X000754Y006421D02*
X047715Y006421D01*
X047715Y006500D02*
X000754Y006500D01*
X000754Y006578D02*
X047715Y006578D01*
X047715Y006657D02*
X000754Y006657D01*
X000754Y006735D02*
X047715Y006735D01*
X047715Y006814D02*
X000754Y006814D01*
X000754Y006892D02*
X047715Y006892D01*
X047715Y006971D02*
X000754Y006971D01*
X000754Y007049D02*
X047715Y007049D01*
X047715Y007128D02*
X000754Y007128D01*
X000754Y007206D02*
X047715Y007206D01*
X047715Y007285D02*
X000754Y007285D01*
X000754Y007363D02*
X047715Y007363D01*
X047715Y007442D02*
X000754Y007442D01*
X000754Y007520D02*
X047715Y007520D01*
X047715Y007599D02*
X000754Y007599D01*
X000754Y007677D02*
X047715Y007677D01*
X047715Y007756D02*
X000754Y007756D01*
X000754Y007834D02*
X047715Y007834D01*
X047715Y007913D02*
X000754Y007913D01*
X000754Y007991D02*
X047715Y007991D01*
X047715Y008070D02*
X034702Y008070D01*
X034663Y008031D02*
X034769Y008136D01*
X034769Y010844D01*
X034663Y010950D01*
X026304Y010950D01*
X026304Y011684D01*
X026325Y011663D01*
X026450Y011611D01*
X026586Y011611D01*
X026711Y011663D01*
X026806Y011758D01*
X026817Y011785D01*
X026990Y011958D01*
X032305Y011958D01*
X032417Y012069D01*
X035897Y015549D01*
X035899Y015548D01*
X036034Y015548D01*
X036159Y015600D01*
X036255Y015695D01*
X036307Y015820D01*
X036307Y015956D01*
X036255Y016081D01*
X036159Y016176D01*
X036034Y016228D01*
X035899Y016228D01*
X035774Y016176D01*
X035679Y016081D01*
X035627Y015956D01*
X035627Y015820D01*
X035628Y015818D01*
X035126Y015316D01*
X035126Y015365D01*
X035074Y015490D01*
X034978Y015586D01*
X034853Y015637D01*
X034718Y015637D01*
X034685Y015624D01*
X035005Y015944D01*
X035101Y015944D01*
X035226Y015995D01*
X035322Y016091D01*
X035374Y016216D01*
X035374Y016351D01*
X035322Y016476D01*
X035226Y016572D01*
X035101Y016624D01*
X034966Y016624D01*
X034841Y016572D01*
X034745Y016476D01*
X034694Y016351D01*
X034694Y016255D01*
X031443Y013004D01*
X028375Y013004D01*
X027504Y013875D01*
X027504Y014073D01*
X027573Y014101D01*
X027716Y014245D01*
X027794Y014432D01*
X027794Y014635D01*
X027716Y014823D01*
X027573Y014966D01*
X027385Y015044D01*
X027182Y015044D01*
X026995Y014966D01*
X026851Y014823D01*
X026774Y014635D01*
X026774Y014432D01*
X026851Y014245D01*
X026995Y014101D01*
X027064Y014073D01*
X027064Y013693D01*
X027193Y013564D01*
X028193Y012564D01*
X031625Y012564D01*
X031754Y012693D01*
X034459Y015398D01*
X034446Y015365D01*
X034446Y015230D01*
X034447Y015227D01*
X031754Y012535D01*
X026990Y012535D01*
X026817Y012708D01*
X026806Y012734D01*
X026711Y012830D01*
X026586Y012882D01*
X026450Y012882D01*
X026325Y012830D01*
X026304Y012809D01*
X026304Y020029D01*
X030337Y020029D01*
X030544Y020236D01*
X031564Y020236D01*
X031564Y017795D01*
X031495Y017726D01*
X031444Y017601D01*
X031444Y017466D01*
X031495Y017341D01*
X031564Y017273D01*
X031564Y015875D01*
X030563Y014874D01*
X030466Y014874D01*
X030341Y014822D01*
X030245Y014726D01*
X030194Y014601D01*
X030194Y014466D01*
X030245Y014341D01*
X030341Y014245D01*
X030466Y014194D01*
X030601Y014194D01*
X030726Y014245D01*
X030822Y014341D01*
X030874Y014466D01*
X030874Y014563D01*
X032004Y015693D01*
X032004Y017273D01*
X032072Y017341D01*
X032124Y017466D01*
X032124Y017601D01*
X032072Y017726D01*
X032004Y017795D01*
X032004Y020236D01*
X034467Y020236D01*
X034572Y020341D01*
X034572Y029545D01*
X034467Y029651D01*
X010302Y029651D01*
X010196Y029545D01*
X010196Y027867D01*
X010038Y027933D01*
X009734Y027933D01*
X009453Y027816D01*
X009238Y027601D01*
X009121Y027320D01*
X009121Y027015D01*
X009238Y026734D01*
X009453Y026519D01*
X009734Y026403D01*
X010038Y026403D01*
X010196Y026468D01*
X010196Y020341D01*
X010302Y020236D01*
X013771Y020236D01*
X013686Y020200D01*
X013542Y020057D01*
X013465Y019869D01*
X013465Y019667D01*
X013508Y019562D01*
X013460Y019610D01*
X013273Y019687D01*
X013070Y019687D01*
X012883Y019610D01*
X012739Y019466D01*
X012661Y019279D01*
X012661Y019076D01*
X012739Y018889D01*
X012883Y018745D01*
X013070Y018667D01*
X013273Y018667D01*
X013460Y018745D01*
X013604Y018889D01*
X013681Y019076D01*
X013681Y019279D01*
X013638Y019383D01*
X013686Y019336D01*
X013873Y019258D01*
X014076Y019258D01*
X014264Y019336D01*
X014407Y019479D01*
X014485Y019667D01*
X014485Y019869D01*
X014407Y020057D01*
X014264Y020200D01*
X014178Y020236D01*
X015466Y020236D01*
X015408Y020212D01*
X015312Y020116D01*
X015261Y019991D01*
X015261Y019856D01*
X015312Y019731D01*
X015408Y019635D01*
X015533Y019583D01*
X015668Y019583D01*
X015793Y019635D01*
X015889Y019731D01*
X015890Y019733D01*
X019648Y019733D01*
X019832Y019549D01*
X019943Y019438D01*
X022463Y019438D01*
X022771Y019747D01*
X022719Y019619D01*
X022719Y019417D01*
X022796Y019229D01*
X022940Y019086D01*
X023046Y019042D01*
X022940Y018998D01*
X022796Y018854D01*
X022719Y018667D01*
X000754Y018667D01*
X000754Y018589D02*
X020541Y018589D01*
X020545Y018590D02*
X020420Y018538D01*
X020324Y018443D01*
X020323Y018440D01*
X016597Y018440D01*
X016549Y018392D01*
X016546Y018393D01*
X016411Y018393D01*
X016286Y018342D01*
X016190Y018246D01*
X016139Y018121D01*
X016139Y017986D01*
X016190Y017861D01*
X016286Y017765D01*
X016411Y017713D01*
X016546Y017713D01*
X016671Y017765D01*
X016767Y017861D01*
X016819Y017986D01*
X016819Y018060D01*
X020323Y018060D01*
X020324Y018058D01*
X020420Y017962D01*
X020545Y017910D01*
X020680Y017910D01*
X020805Y017962D01*
X020901Y018058D01*
X020952Y018183D01*
X020952Y018318D01*
X020901Y018443D01*
X020805Y018538D01*
X020680Y018590D01*
X020545Y018590D01*
X020684Y018589D02*
X022719Y018589D01*
X022719Y018667D02*
X022719Y018464D01*
X022796Y018276D01*
X022940Y018133D01*
X023103Y018065D01*
X022940Y017998D01*
X022796Y017854D01*
X022719Y017667D01*
X022719Y017464D01*
X022796Y017276D01*
X022940Y017133D01*
X023122Y017057D01*
X022940Y016982D01*
X022796Y016838D01*
X022719Y016651D01*
X022719Y016448D01*
X022796Y016261D01*
X022940Y016117D01*
X023127Y016039D01*
X023330Y016039D01*
X023517Y016117D01*
X023661Y016261D01*
X023739Y016448D01*
X023739Y016651D01*
X023661Y016838D01*
X023517Y016982D01*
X023335Y017057D01*
X023517Y017133D01*
X023661Y017276D01*
X023739Y017464D01*
X023739Y017667D01*
X023661Y017854D01*
X023517Y017998D01*
X023354Y018065D01*
X023517Y018133D01*
X023661Y018276D01*
X023739Y018464D01*
X023739Y018667D01*
X023661Y018854D01*
X023517Y018998D01*
X023411Y019042D01*
X023517Y019086D01*
X023661Y019229D01*
X023739Y019417D01*
X023739Y019619D01*
X023661Y019807D01*
X023517Y019950D01*
X023330Y020028D01*
X023127Y020028D01*
X023000Y019975D01*
X023053Y020029D01*
X023779Y020029D01*
X023779Y010950D01*
X010597Y010950D01*
X010535Y011101D01*
X010319Y011316D01*
X010038Y011433D01*
X009734Y011433D01*
X009453Y011316D01*
X009238Y011101D01*
X009121Y010820D01*
X009121Y010515D01*
X009238Y010234D01*
X009453Y010019D01*
X009734Y009903D01*
X009999Y009903D01*
X009999Y008136D01*
X010105Y008031D01*
X034663Y008031D01*
X034769Y008148D02*
X047715Y008148D01*
X047715Y008227D02*
X034769Y008227D01*
X034769Y008305D02*
X047715Y008305D01*
X047715Y008384D02*
X034769Y008384D01*
X034769Y008462D02*
X047715Y008462D01*
X047715Y008541D02*
X034769Y008541D01*
X034769Y008619D02*
X047715Y008619D01*
X047715Y008698D02*
X036147Y008698D01*
X036038Y008653D02*
X036319Y008769D01*
X036535Y008984D01*
X036651Y009265D01*
X036651Y009570D01*
X036535Y009851D01*
X036319Y010066D01*
X036038Y010183D01*
X035734Y010183D01*
X035453Y010066D01*
X035238Y009851D01*
X035121Y009570D01*
X035121Y009265D01*
X035238Y008984D01*
X035453Y008769D01*
X035734Y008653D01*
X036038Y008653D01*
X036327Y008776D02*
X047715Y008776D01*
X047715Y008855D02*
X036405Y008855D01*
X036484Y008933D02*
X047715Y008933D01*
X047715Y009012D02*
X036546Y009012D01*
X036579Y009090D02*
X047715Y009090D01*
X047715Y009169D02*
X036611Y009169D01*
X036644Y009247D02*
X047715Y009247D01*
X047715Y009326D02*
X036651Y009326D01*
X036651Y009404D02*
X047715Y009404D01*
X047715Y009483D02*
X036651Y009483D01*
X036651Y009561D02*
X047715Y009561D01*
X047715Y009640D02*
X036622Y009640D01*
X036590Y009718D02*
X047715Y009718D01*
X047715Y009797D02*
X036557Y009797D01*
X036510Y009875D02*
X047715Y009875D01*
X047715Y009954D02*
X036432Y009954D01*
X036353Y010032D02*
X043190Y010032D01*
X043164Y010036D02*
X043244Y010024D01*
X043244Y010494D01*
X043324Y010494D01*
X043324Y010574D01*
X043794Y010574D01*
X043781Y010653D01*
X043756Y010729D01*
X043720Y010801D01*
X043673Y010866D01*
X043616Y010923D01*
X043551Y010970D01*
X043479Y011006D01*
X043403Y011031D01*
X043573Y011101D01*
X043716Y011245D01*
X043794Y011432D01*
X043794Y011635D01*
X043716Y011823D01*
X043573Y011966D01*
X043409Y012034D01*
X043573Y012101D01*
X043716Y012245D01*
X043794Y012432D01*
X043794Y012635D01*
X043716Y012823D01*
X043573Y012966D01*
X043385Y013044D01*
X043182Y013044D01*
X042995Y012966D01*
X042851Y012823D01*
X042774Y012635D01*
X042774Y012432D01*
X042851Y012245D01*
X042995Y012101D01*
X043158Y012034D01*
X042995Y011966D01*
X042851Y011823D01*
X042774Y011635D01*
X042774Y011432D01*
X042851Y011245D01*
X042995Y011101D01*
X043164Y011031D01*
X043164Y011031D01*
X043088Y011006D01*
X043016Y010970D01*
X042951Y010923D01*
X042895Y010866D01*
X042848Y010801D01*
X042811Y010729D01*
X042786Y010653D01*
X042774Y010574D01*
X042774Y010574D01*
X043244Y010574D01*
X043244Y010494D01*
X042774Y010494D01*
X042774Y010494D01*
X042786Y010414D01*
X042811Y010338D01*
X042848Y010266D01*
X042895Y010201D01*
X042951Y010145D01*
X043016Y010098D01*
X043088Y010061D01*
X043164Y010036D01*
X043244Y010032D02*
X043324Y010032D01*
X043324Y010024D02*
X043403Y010036D01*
X043479Y010061D01*
X043551Y010098D01*
X043616Y010145D01*
X043673Y010201D01*
X043720Y010266D01*
X043756Y010338D01*
X043781Y010414D01*
X043794Y010494D01*
X043324Y010494D01*
X043324Y010024D01*
X043324Y010024D01*
X043378Y010032D02*
X047715Y010032D01*
X047715Y010111D02*
X043569Y010111D01*
X043660Y010189D02*
X047715Y010189D01*
X047715Y010268D02*
X043721Y010268D01*
X043759Y010346D02*
X047715Y010346D01*
X047715Y010425D02*
X043783Y010425D01*
X043794Y010494D02*
X043794Y010494D01*
X043794Y010574D02*
X043794Y010574D01*
X043792Y010582D02*
X047715Y010582D01*
X047715Y010660D02*
X043779Y010660D01*
X043752Y010739D02*
X047715Y010739D01*
X047715Y010817D02*
X043708Y010817D01*
X043643Y010896D02*
X047715Y010896D01*
X047715Y010974D02*
X043542Y010974D01*
X043455Y011053D02*
X047715Y011053D01*
X047715Y011131D02*
X043602Y011131D01*
X043681Y011210D02*
X047715Y011210D01*
X047715Y011288D02*
X043734Y011288D01*
X043767Y011367D02*
X047715Y011367D01*
X047715Y011445D02*
X043794Y011445D01*
X043794Y011524D02*
X047715Y011524D01*
X047715Y011602D02*
X043794Y011602D01*
X043775Y011681D02*
X047715Y011681D01*
X047715Y011759D02*
X043742Y011759D01*
X043701Y011838D02*
X047715Y011838D01*
X047715Y011916D02*
X043622Y011916D01*
X043503Y011995D02*
X047715Y011995D01*
X047715Y012073D02*
X043505Y012073D01*
X043623Y012152D02*
X047715Y012152D01*
X047715Y012230D02*
X043701Y012230D01*
X043743Y012309D02*
X047715Y012309D01*
X047715Y012387D02*
X043775Y012387D01*
X043794Y012466D02*
X047715Y012466D01*
X047715Y012544D02*
X043794Y012544D01*
X043794Y012623D02*
X047715Y012623D01*
X047715Y012701D02*
X043766Y012701D01*
X043734Y012780D02*
X047715Y012780D01*
X047715Y012858D02*
X043680Y012858D01*
X043602Y012937D02*
X047715Y012937D01*
X047715Y013015D02*
X043454Y013015D01*
X043114Y013015D02*
X037280Y013015D01*
X037280Y012937D02*
X042965Y012937D01*
X042887Y012858D02*
X037280Y012858D01*
X037280Y012780D02*
X042834Y012780D01*
X042801Y012701D02*
X037253Y012701D01*
X037280Y012769D02*
X037280Y013496D01*
X037217Y013650D01*
X037098Y013768D01*
X036944Y013832D01*
X036777Y013832D01*
X036623Y013768D01*
X036504Y013650D01*
X036440Y013496D01*
X036440Y012769D01*
X036504Y012614D01*
X036623Y012496D01*
X036777Y012432D01*
X036944Y012432D01*
X037098Y012496D01*
X037217Y012614D01*
X037280Y012769D01*
X037220Y012623D02*
X042774Y012623D01*
X042774Y012544D02*
X037147Y012544D01*
X037025Y012466D02*
X042774Y012466D01*
X042792Y012387D02*
X036280Y012387D01*
X036280Y012309D02*
X042825Y012309D01*
X042866Y012230D02*
X036280Y012230D01*
X036280Y012152D02*
X042944Y012152D01*
X043063Y012073D02*
X036280Y012073D01*
X036280Y011995D02*
X043064Y011995D01*
X042945Y011916D02*
X036280Y011916D01*
X036280Y011838D02*
X042866Y011838D01*
X042825Y011759D02*
X036277Y011759D01*
X036280Y011769D02*
X036280Y012496D01*
X036217Y012650D01*
X036098Y012768D01*
X035944Y012832D01*
X035777Y012832D01*
X035623Y012768D01*
X035504Y012650D01*
X035440Y012496D01*
X035440Y011769D01*
X035504Y011614D01*
X035623Y011496D01*
X035777Y011432D01*
X035944Y011432D01*
X036098Y011496D01*
X036217Y011614D01*
X036280Y011769D01*
X036244Y011681D02*
X042793Y011681D01*
X042774Y011602D02*
X036205Y011602D01*
X036126Y011524D02*
X042774Y011524D01*
X042774Y011445D02*
X035976Y011445D01*
X035745Y011445D02*
X026304Y011445D01*
X026304Y011367D02*
X042801Y011367D01*
X042833Y011288D02*
X026304Y011288D01*
X026304Y011210D02*
X042886Y011210D01*
X042965Y011131D02*
X026304Y011131D01*
X026304Y011053D02*
X043112Y011053D01*
X043025Y010974D02*
X026304Y010974D01*
X026124Y010974D02*
X023959Y010974D01*
X023959Y010896D02*
X026124Y010896D01*
X026124Y010817D02*
X023959Y010817D01*
X023959Y010770D02*
X023959Y020029D01*
X026124Y020029D01*
X026124Y010770D01*
X034589Y010770D01*
X034589Y008211D01*
X010179Y008211D01*
X010179Y009961D01*
X010319Y010019D01*
X010535Y010234D01*
X010651Y010515D01*
X010651Y010770D01*
X023959Y010770D01*
X023779Y010974D02*
X010587Y010974D01*
X010555Y011053D02*
X023779Y011053D01*
X023779Y011131D02*
X010504Y011131D01*
X010426Y011210D02*
X023779Y011210D01*
X023779Y011288D02*
X010347Y011288D01*
X010197Y011367D02*
X023779Y011367D01*
X023779Y011445D02*
X000754Y011445D01*
X000754Y011367D02*
X009575Y011367D01*
X009425Y011288D02*
X000754Y011288D01*
X000754Y011210D02*
X009346Y011210D01*
X009268Y011131D02*
X000754Y011131D01*
X000754Y011053D02*
X009218Y011053D01*
X009185Y010974D02*
X000754Y010974D01*
X000754Y010896D02*
X009153Y010896D01*
X009121Y010817D02*
X000754Y010817D01*
X000754Y010739D02*
X009121Y010739D01*
X009121Y010660D02*
X000754Y010660D01*
X000754Y010582D02*
X009121Y010582D01*
X009126Y010503D02*
X000754Y010503D01*
X000754Y010425D02*
X009159Y010425D01*
X009191Y010346D02*
X000754Y010346D01*
X000754Y010268D02*
X009224Y010268D01*
X009283Y010189D02*
X000754Y010189D01*
X000754Y010111D02*
X009361Y010111D01*
X009440Y010032D02*
X000754Y010032D01*
X000754Y009954D02*
X009610Y009954D01*
X009999Y009875D02*
X000754Y009875D01*
X000754Y009797D02*
X009999Y009797D01*
X009999Y009718D02*
X000754Y009718D01*
X000754Y009640D02*
X009999Y009640D01*
X009999Y009561D02*
X000754Y009561D01*
X000754Y009483D02*
X009999Y009483D01*
X009999Y009404D02*
X000754Y009404D01*
X000754Y009326D02*
X009999Y009326D01*
X009999Y009247D02*
X000754Y009247D01*
X000754Y009169D02*
X009999Y009169D01*
X009999Y009090D02*
X000754Y009090D01*
X000754Y009012D02*
X009999Y009012D01*
X009999Y008933D02*
X000754Y008933D01*
X000754Y008855D02*
X009999Y008855D01*
X009999Y008776D02*
X000754Y008776D01*
X000754Y008698D02*
X009999Y008698D01*
X009999Y008619D02*
X000754Y008619D01*
X000754Y008541D02*
X009999Y008541D01*
X009999Y008462D02*
X000754Y008462D01*
X000754Y008384D02*
X009999Y008384D01*
X009999Y008305D02*
X000754Y008305D01*
X000754Y008227D02*
X009999Y008227D01*
X009999Y008148D02*
X000754Y008148D01*
X000754Y008070D02*
X010066Y008070D01*
X010179Y008227D02*
X034589Y008227D01*
X034589Y008305D02*
X010179Y008305D01*
X010179Y008384D02*
X034589Y008384D01*
X034589Y008462D02*
X033866Y008462D01*
X033832Y008445D02*
X033903Y008481D01*
X033968Y008529D01*
X034025Y008585D01*
X034072Y008650D01*
X034109Y008722D01*
X034134Y008798D01*
X034146Y008877D01*
X034146Y008878D01*
X033676Y008878D01*
X033676Y008958D01*
X033596Y008958D01*
X033596Y009428D01*
X033596Y009878D01*
X033676Y009878D01*
X033676Y009958D01*
X033596Y009958D01*
X033596Y010428D01*
X033248Y010428D01*
X033212Y010418D01*
X033180Y010400D01*
X033154Y010374D01*
X033136Y010342D01*
X033126Y010306D01*
X033126Y010067D01*
X033068Y010206D01*
X032925Y010350D01*
X032738Y010428D01*
X032535Y010428D01*
X032347Y010350D01*
X032204Y010206D01*
X032136Y010043D01*
X032068Y010206D01*
X031925Y010350D01*
X031738Y010428D01*
X031535Y010428D01*
X031347Y010350D01*
X031204Y010206D01*
X031136Y010043D01*
X031068Y010206D01*
X030925Y010350D01*
X030738Y010428D01*
X030535Y010428D01*
X030347Y010350D01*
X030204Y010206D01*
X030136Y010043D01*
X030068Y010206D01*
X029925Y010350D01*
X029738Y010428D01*
X029535Y010428D01*
X029347Y010350D01*
X029204Y010206D01*
X029136Y010043D01*
X029068Y010206D01*
X028925Y010350D01*
X028738Y010428D01*
X028535Y010428D01*
X028347Y010350D01*
X028204Y010206D01*
X028136Y010043D01*
X028068Y010206D01*
X027925Y010350D01*
X027738Y010428D01*
X027535Y010428D01*
X027347Y010350D01*
X027204Y010206D01*
X027136Y010043D01*
X027068Y010206D01*
X026925Y010350D01*
X026738Y010428D01*
X026535Y010428D01*
X026347Y010350D01*
X026204Y010206D01*
X026136Y010043D01*
X026068Y010206D01*
X025925Y010350D01*
X025738Y010428D01*
X025535Y010428D01*
X025347Y010350D01*
X025204Y010206D01*
X025136Y010043D01*
X025068Y010206D01*
X024925Y010350D01*
X024738Y010428D01*
X024535Y010428D01*
X024347Y010350D01*
X024204Y010206D01*
X024136Y010043D01*
X024068Y010206D01*
X023925Y010350D01*
X023738Y010428D01*
X023535Y010428D01*
X023347Y010350D01*
X023204Y010206D01*
X023136Y010043D01*
X023068Y010206D01*
X022925Y010350D01*
X022738Y010428D01*
X022535Y010428D01*
X022347Y010350D01*
X022204Y010206D01*
X022136Y010043D01*
X022068Y010206D01*
X021925Y010350D01*
X021738Y010428D01*
X021535Y010428D01*
X021347Y010350D01*
X021204Y010206D01*
X021136Y010043D01*
X021068Y010206D01*
X020925Y010350D01*
X020738Y010428D01*
X020535Y010428D01*
X020347Y010350D01*
X020204Y010206D01*
X020136Y010043D01*
X020068Y010206D01*
X019925Y010350D01*
X019738Y010428D01*
X019535Y010428D01*
X019347Y010350D01*
X019204Y010206D01*
X019136Y010043D01*
X019068Y010206D01*
X018925Y010350D01*
X018738Y010428D01*
X018535Y010428D01*
X018347Y010350D01*
X018204Y010206D01*
X018136Y010043D01*
X018068Y010206D01*
X017925Y010350D01*
X017738Y010428D01*
X017535Y010428D01*
X017347Y010350D01*
X017204Y010206D01*
X017136Y010043D01*
X017068Y010206D01*
X016925Y010350D01*
X016738Y010428D01*
X016535Y010428D01*
X016347Y010350D01*
X016204Y010206D01*
X016136Y010043D01*
X016068Y010206D01*
X015925Y010350D01*
X015738Y010428D01*
X015535Y010428D01*
X015347Y010350D01*
X015204Y010206D01*
X015136Y010043D01*
X015068Y010206D01*
X014925Y010350D01*
X014738Y010428D01*
X014535Y010428D01*
X014347Y010350D01*
X014204Y010206D01*
X014136Y010043D01*
X014068Y010206D01*
X013925Y010350D01*
X013738Y010428D01*
X013535Y010428D01*
X013347Y010350D01*
X013204Y010206D01*
X013136Y010043D01*
X013068Y010206D01*
X012925Y010350D01*
X012738Y010428D01*
X012535Y010428D01*
X012347Y010350D01*
X012204Y010206D01*
X012136Y010043D01*
X012068Y010206D01*
X011925Y010350D01*
X011738Y010428D01*
X011535Y010428D01*
X011347Y010350D01*
X011204Y010206D01*
X011126Y010019D01*
X011126Y009816D01*
X011204Y009629D01*
X011347Y009485D01*
X011510Y009418D01*
X011347Y009350D01*
X011204Y009206D01*
X011126Y009019D01*
X011126Y008816D01*
X011204Y008629D01*
X011347Y008485D01*
X011535Y008408D01*
X011738Y008408D01*
X011925Y008485D01*
X012068Y008629D01*
X012136Y008792D01*
X012204Y008629D01*
X012347Y008485D01*
X012535Y008408D01*
X012738Y008408D01*
X012925Y008485D01*
X013068Y008629D01*
X013136Y008792D01*
X013204Y008629D01*
X013347Y008485D01*
X013535Y008408D01*
X013738Y008408D01*
X013925Y008485D01*
X014068Y008629D01*
X014136Y008792D01*
X014204Y008629D01*
X014347Y008485D01*
X014535Y008408D01*
X014738Y008408D01*
X014925Y008485D01*
X015068Y008629D01*
X015136Y008792D01*
X015204Y008629D01*
X015347Y008485D01*
X015535Y008408D01*
X015738Y008408D01*
X015925Y008485D01*
X016068Y008629D01*
X016136Y008792D01*
X016204Y008629D01*
X016347Y008485D01*
X016535Y008408D01*
X016738Y008408D01*
X016925Y008485D01*
X017068Y008629D01*
X017136Y008792D01*
X017204Y008629D01*
X017347Y008485D01*
X017535Y008408D01*
X017738Y008408D01*
X017925Y008485D01*
X018068Y008629D01*
X018136Y008792D01*
X018204Y008629D01*
X018347Y008485D01*
X018535Y008408D01*
X018738Y008408D01*
X018925Y008485D01*
X019068Y008629D01*
X019136Y008792D01*
X019204Y008629D01*
X019347Y008485D01*
X019535Y008408D01*
X019738Y008408D01*
X019925Y008485D01*
X020068Y008629D01*
X020136Y008792D01*
X020204Y008629D01*
X020347Y008485D01*
X020535Y008408D01*
X020738Y008408D01*
X020925Y008485D01*
X021068Y008629D01*
X021136Y008792D01*
X021204Y008629D01*
X021347Y008485D01*
X021535Y008408D01*
X021738Y008408D01*
X021925Y008485D01*
X022068Y008629D01*
X022136Y008792D01*
X022204Y008629D01*
X022347Y008485D01*
X022535Y008408D01*
X022738Y008408D01*
X022925Y008485D01*
X023068Y008629D01*
X023136Y008792D01*
X023204Y008629D01*
X023347Y008485D01*
X023535Y008408D01*
X023738Y008408D01*
X023925Y008485D01*
X024068Y008629D01*
X024136Y008792D01*
X024204Y008629D01*
X024347Y008485D01*
X024535Y008408D01*
X024738Y008408D01*
X024925Y008485D01*
X025068Y008629D01*
X025136Y008792D01*
X025204Y008629D01*
X025347Y008485D01*
X025535Y008408D01*
X025738Y008408D01*
X025925Y008485D01*
X026068Y008629D01*
X026136Y008792D01*
X026204Y008629D01*
X026347Y008485D01*
X026535Y008408D01*
X026738Y008408D01*
X026925Y008485D01*
X027068Y008629D01*
X027136Y008792D01*
X027204Y008629D01*
X027347Y008485D01*
X027535Y008408D01*
X027738Y008408D01*
X027925Y008485D01*
X028068Y008629D01*
X028136Y008792D01*
X028204Y008629D01*
X028347Y008485D01*
X028535Y008408D01*
X028738Y008408D01*
X028925Y008485D01*
X029068Y008629D01*
X029136Y008792D01*
X029204Y008629D01*
X029347Y008485D01*
X029535Y008408D01*
X029738Y008408D01*
X029925Y008485D01*
X030068Y008629D01*
X030136Y008792D01*
X030204Y008629D01*
X030347Y008485D01*
X030535Y008408D01*
X030738Y008408D01*
X030925Y008485D01*
X031068Y008629D01*
X031136Y008792D01*
X031204Y008629D01*
X031347Y008485D01*
X031535Y008408D01*
X031738Y008408D01*
X031925Y008485D01*
X032068Y008629D01*
X032136Y008792D01*
X032204Y008629D01*
X032347Y008485D01*
X032535Y008408D01*
X032738Y008408D01*
X032925Y008485D01*
X033068Y008629D01*
X033139Y008798D01*
X033163Y008722D01*
X033200Y008650D01*
X033247Y008585D01*
X033304Y008529D01*
X033369Y008481D01*
X033440Y008445D01*
X033517Y008420D01*
X033596Y008408D01*
X033596Y008878D01*
X033676Y008878D01*
X033676Y008408D01*
X033676Y008408D01*
X033755Y008420D01*
X033832Y008445D01*
X033676Y008462D02*
X033596Y008462D01*
X033596Y008408D02*
X033596Y008408D01*
X033596Y008541D02*
X033676Y008541D01*
X033676Y008619D02*
X033596Y008619D01*
X033596Y008698D02*
X033676Y008698D01*
X033676Y008776D02*
X033596Y008776D01*
X033596Y008855D02*
X033676Y008855D01*
X033676Y008933D02*
X034589Y008933D01*
X034589Y008855D02*
X034142Y008855D01*
X034126Y008776D02*
X034589Y008776D01*
X034589Y008698D02*
X034096Y008698D01*
X034050Y008619D02*
X034589Y008619D01*
X034589Y008541D02*
X033980Y008541D01*
X034146Y008958D02*
X033676Y008958D01*
X033676Y009878D01*
X034146Y009878D01*
X034146Y009529D01*
X034137Y009494D01*
X034118Y009462D01*
X034092Y009436D01*
X034060Y009417D01*
X034024Y009408D01*
X033778Y009408D01*
X033832Y009390D01*
X033903Y009354D01*
X033968Y009307D01*
X034025Y009250D01*
X034072Y009185D01*
X034109Y009113D01*
X034134Y009037D01*
X034146Y008958D01*
X034146Y008958D01*
X034138Y009012D02*
X034589Y009012D01*
X034589Y009090D02*
X034116Y009090D01*
X034080Y009169D02*
X034589Y009169D01*
X034589Y009247D02*
X034027Y009247D01*
X033942Y009326D02*
X034589Y009326D01*
X034589Y009404D02*
X033789Y009404D01*
X033676Y009404D02*
X033596Y009404D01*
X033596Y009326D02*
X033676Y009326D01*
X033676Y009247D02*
X033596Y009247D01*
X033596Y009169D02*
X033676Y009169D01*
X033676Y009090D02*
X033596Y009090D01*
X033596Y009012D02*
X033676Y009012D01*
X033139Y008798D02*
X033139Y008798D01*
X033130Y008776D02*
X033146Y008776D01*
X033176Y008698D02*
X033097Y008698D01*
X033059Y008619D02*
X033222Y008619D01*
X033292Y008541D02*
X032980Y008541D01*
X032869Y008462D02*
X033406Y008462D01*
X032403Y008462D02*
X031869Y008462D01*
X031980Y008541D02*
X032292Y008541D01*
X032213Y008619D02*
X032059Y008619D01*
X032097Y008698D02*
X032175Y008698D01*
X032143Y008776D02*
X032130Y008776D01*
X031403Y008462D02*
X030869Y008462D01*
X030980Y008541D02*
X031292Y008541D01*
X031213Y008619D02*
X031059Y008619D01*
X031097Y008698D02*
X031175Y008698D01*
X031143Y008776D02*
X031130Y008776D01*
X030403Y008462D02*
X029869Y008462D01*
X029980Y008541D02*
X030292Y008541D01*
X030213Y008619D02*
X030059Y008619D01*
X030097Y008698D02*
X030175Y008698D01*
X030143Y008776D02*
X030130Y008776D01*
X029403Y008462D02*
X028869Y008462D01*
X028980Y008541D02*
X029292Y008541D01*
X029213Y008619D02*
X029059Y008619D01*
X029097Y008698D02*
X029175Y008698D01*
X029143Y008776D02*
X029130Y008776D01*
X028403Y008462D02*
X027869Y008462D01*
X027980Y008541D02*
X028292Y008541D01*
X028213Y008619D02*
X028059Y008619D01*
X028097Y008698D02*
X028175Y008698D01*
X028143Y008776D02*
X028130Y008776D01*
X027403Y008462D02*
X026869Y008462D01*
X026980Y008541D02*
X027292Y008541D01*
X027213Y008619D02*
X027059Y008619D01*
X027097Y008698D02*
X027175Y008698D01*
X027143Y008776D02*
X027130Y008776D01*
X026403Y008462D02*
X025869Y008462D01*
X025980Y008541D02*
X026292Y008541D01*
X026213Y008619D02*
X026059Y008619D01*
X026097Y008698D02*
X026175Y008698D01*
X026143Y008776D02*
X026130Y008776D01*
X025403Y008462D02*
X024869Y008462D01*
X024980Y008541D02*
X025292Y008541D01*
X025213Y008619D02*
X025059Y008619D01*
X025097Y008698D02*
X025175Y008698D01*
X025143Y008776D02*
X025130Y008776D01*
X024403Y008462D02*
X023869Y008462D01*
X023980Y008541D02*
X024292Y008541D01*
X024213Y008619D02*
X024059Y008619D01*
X024097Y008698D02*
X024175Y008698D01*
X024143Y008776D02*
X024130Y008776D01*
X023403Y008462D02*
X022869Y008462D01*
X022980Y008541D02*
X023292Y008541D01*
X023213Y008619D02*
X023059Y008619D01*
X023097Y008698D02*
X023175Y008698D01*
X023143Y008776D02*
X023130Y008776D01*
X022403Y008462D02*
X021869Y008462D01*
X021980Y008541D02*
X022292Y008541D01*
X022213Y008619D02*
X022059Y008619D01*
X022097Y008698D02*
X022175Y008698D01*
X022143Y008776D02*
X022130Y008776D01*
X021403Y008462D02*
X020869Y008462D01*
X020980Y008541D02*
X021292Y008541D01*
X021213Y008619D02*
X021059Y008619D01*
X021097Y008698D02*
X021175Y008698D01*
X021143Y008776D02*
X021130Y008776D01*
X020403Y008462D02*
X019869Y008462D01*
X019980Y008541D02*
X020292Y008541D01*
X020213Y008619D02*
X020059Y008619D01*
X020097Y008698D02*
X020175Y008698D01*
X020143Y008776D02*
X020130Y008776D01*
X019403Y008462D02*
X018869Y008462D01*
X018980Y008541D02*
X019292Y008541D01*
X019213Y008619D02*
X019059Y008619D01*
X019097Y008698D02*
X019175Y008698D01*
X019143Y008776D02*
X019130Y008776D01*
X018403Y008462D02*
X017869Y008462D01*
X017980Y008541D02*
X018292Y008541D01*
X018213Y008619D02*
X018059Y008619D01*
X018097Y008698D02*
X018175Y008698D01*
X018143Y008776D02*
X018130Y008776D01*
X017403Y008462D02*
X016869Y008462D01*
X016980Y008541D02*
X017292Y008541D01*
X017213Y008619D02*
X017059Y008619D01*
X017097Y008698D02*
X017175Y008698D01*
X017143Y008776D02*
X017130Y008776D01*
X016403Y008462D02*
X015869Y008462D01*
X015980Y008541D02*
X016292Y008541D01*
X016213Y008619D02*
X016059Y008619D01*
X016097Y008698D02*
X016175Y008698D01*
X016143Y008776D02*
X016130Y008776D01*
X015403Y008462D02*
X014869Y008462D01*
X014980Y008541D02*
X015292Y008541D01*
X015213Y008619D02*
X015059Y008619D01*
X015097Y008698D02*
X015175Y008698D01*
X015143Y008776D02*
X015130Y008776D01*
X014403Y008462D02*
X013869Y008462D01*
X013980Y008541D02*
X014292Y008541D01*
X014213Y008619D02*
X014059Y008619D01*
X014097Y008698D02*
X014175Y008698D01*
X014143Y008776D02*
X014130Y008776D01*
X013403Y008462D02*
X012869Y008462D01*
X012980Y008541D02*
X013292Y008541D01*
X013213Y008619D02*
X013059Y008619D01*
X013097Y008698D02*
X013175Y008698D01*
X013143Y008776D02*
X013130Y008776D01*
X012403Y008462D02*
X011869Y008462D01*
X011980Y008541D02*
X012292Y008541D01*
X012213Y008619D02*
X012059Y008619D01*
X012097Y008698D02*
X012175Y008698D01*
X012143Y008776D02*
X012130Y008776D01*
X011403Y008462D02*
X010179Y008462D01*
X010179Y008541D02*
X011292Y008541D01*
X011213Y008619D02*
X010179Y008619D01*
X010179Y008698D02*
X011175Y008698D01*
X011143Y008776D02*
X010179Y008776D01*
X010179Y008855D02*
X011126Y008855D01*
X011126Y008933D02*
X010179Y008933D01*
X010179Y009012D02*
X011126Y009012D01*
X011156Y009090D02*
X010179Y009090D01*
X010179Y009169D02*
X011188Y009169D01*
X011244Y009247D02*
X010179Y009247D01*
X010179Y009326D02*
X011323Y009326D01*
X011353Y009483D02*
X010179Y009483D01*
X010179Y009561D02*
X011271Y009561D01*
X011199Y009640D02*
X010179Y009640D01*
X010179Y009718D02*
X011167Y009718D01*
X011134Y009797D02*
X010179Y009797D01*
X010179Y009875D02*
X011126Y009875D01*
X011126Y009954D02*
X010179Y009954D01*
X010333Y010032D02*
X011132Y010032D01*
X011164Y010111D02*
X010411Y010111D01*
X010490Y010189D02*
X011197Y010189D01*
X011265Y010268D02*
X010548Y010268D01*
X010581Y010346D02*
X011343Y010346D01*
X011528Y010425D02*
X010614Y010425D01*
X010646Y010503D02*
X034589Y010503D01*
X034589Y010425D02*
X034035Y010425D01*
X034024Y010428D02*
X033676Y010428D01*
X033676Y009958D01*
X034146Y009958D01*
X034146Y010306D01*
X034137Y010342D01*
X034118Y010374D01*
X034092Y010400D01*
X034060Y010418D01*
X034024Y010428D01*
X034134Y010346D02*
X034589Y010346D01*
X034589Y010268D02*
X034146Y010268D01*
X034146Y010189D02*
X034589Y010189D01*
X034589Y010111D02*
X034146Y010111D01*
X034146Y010032D02*
X034589Y010032D01*
X034589Y009954D02*
X033676Y009954D01*
X033676Y010032D02*
X033596Y010032D01*
X033596Y010111D02*
X033676Y010111D01*
X033676Y010189D02*
X033596Y010189D01*
X033596Y010268D02*
X033676Y010268D01*
X033676Y010346D02*
X033596Y010346D01*
X033596Y010425D02*
X033676Y010425D01*
X033237Y010425D02*
X032744Y010425D01*
X032929Y010346D02*
X033138Y010346D01*
X033126Y010268D02*
X033007Y010268D01*
X033076Y010189D02*
X033126Y010189D01*
X033126Y010111D02*
X033108Y010111D01*
X033596Y009875D02*
X033676Y009875D01*
X033676Y009797D02*
X033596Y009797D01*
X033596Y009718D02*
X033676Y009718D01*
X033676Y009640D02*
X033596Y009640D01*
X033596Y009561D02*
X033676Y009561D01*
X033676Y009483D02*
X033596Y009483D01*
X034130Y009483D02*
X034589Y009483D01*
X034589Y009561D02*
X034146Y009561D01*
X034146Y009640D02*
X034589Y009640D01*
X034589Y009718D02*
X034146Y009718D01*
X034146Y009797D02*
X034589Y009797D01*
X034589Y009875D02*
X034146Y009875D01*
X034769Y009875D02*
X035262Y009875D01*
X035215Y009797D02*
X034769Y009797D01*
X034769Y009718D02*
X035183Y009718D01*
X035150Y009640D02*
X034769Y009640D01*
X034769Y009561D02*
X035121Y009561D01*
X035121Y009483D02*
X034769Y009483D01*
X034769Y009404D02*
X035121Y009404D01*
X035121Y009326D02*
X034769Y009326D01*
X034769Y009247D02*
X035129Y009247D01*
X035161Y009169D02*
X034769Y009169D01*
X034769Y009090D02*
X035194Y009090D01*
X035226Y009012D02*
X034769Y009012D01*
X034769Y008933D02*
X035289Y008933D01*
X035367Y008855D02*
X034769Y008855D01*
X034769Y008776D02*
X035446Y008776D01*
X035625Y008698D02*
X034769Y008698D01*
X034769Y009954D02*
X035340Y009954D01*
X035419Y010032D02*
X034769Y010032D01*
X034769Y010111D02*
X035560Y010111D01*
X036212Y010111D02*
X042998Y010111D01*
X042907Y010189D02*
X034769Y010189D01*
X034769Y010268D02*
X042847Y010268D01*
X042808Y010346D02*
X034769Y010346D01*
X034769Y010425D02*
X042785Y010425D01*
X042775Y010582D02*
X034769Y010582D01*
X034769Y010660D02*
X042789Y010660D01*
X042816Y010739D02*
X034769Y010739D01*
X034769Y010817D02*
X042859Y010817D01*
X042924Y010896D02*
X034718Y010896D01*
X034589Y010739D02*
X010651Y010739D01*
X010651Y010660D02*
X034589Y010660D01*
X034589Y010582D02*
X010651Y010582D01*
X011744Y010425D02*
X012528Y010425D01*
X012343Y010346D02*
X011929Y010346D01*
X012007Y010268D02*
X012265Y010268D01*
X012197Y010189D02*
X012076Y010189D01*
X012108Y010111D02*
X012164Y010111D01*
X012744Y010425D02*
X013528Y010425D01*
X013343Y010346D02*
X012929Y010346D01*
X013007Y010268D02*
X013265Y010268D01*
X013197Y010189D02*
X013076Y010189D01*
X013108Y010111D02*
X013164Y010111D01*
X013744Y010425D02*
X014528Y010425D01*
X014343Y010346D02*
X013929Y010346D01*
X014007Y010268D02*
X014265Y010268D01*
X014197Y010189D02*
X014076Y010189D01*
X014108Y010111D02*
X014164Y010111D01*
X014744Y010425D02*
X015528Y010425D01*
X015343Y010346D02*
X014929Y010346D01*
X015007Y010268D02*
X015265Y010268D01*
X015197Y010189D02*
X015076Y010189D01*
X015108Y010111D02*
X015164Y010111D01*
X015744Y010425D02*
X016528Y010425D01*
X016343Y010346D02*
X015929Y010346D01*
X016007Y010268D02*
X016265Y010268D01*
X016197Y010189D02*
X016076Y010189D01*
X016108Y010111D02*
X016164Y010111D01*
X016744Y010425D02*
X017528Y010425D01*
X017343Y010346D02*
X016929Y010346D01*
X017007Y010268D02*
X017265Y010268D01*
X017197Y010189D02*
X017076Y010189D01*
X017108Y010111D02*
X017164Y010111D01*
X017744Y010425D02*
X018528Y010425D01*
X018343Y010346D02*
X017929Y010346D01*
X018007Y010268D02*
X018265Y010268D01*
X018197Y010189D02*
X018076Y010189D01*
X018108Y010111D02*
X018164Y010111D01*
X018744Y010425D02*
X019528Y010425D01*
X019343Y010346D02*
X018929Y010346D01*
X019007Y010268D02*
X019265Y010268D01*
X019197Y010189D02*
X019076Y010189D01*
X019108Y010111D02*
X019164Y010111D01*
X019744Y010425D02*
X020528Y010425D01*
X020343Y010346D02*
X019929Y010346D01*
X020007Y010268D02*
X020265Y010268D01*
X020197Y010189D02*
X020076Y010189D01*
X020108Y010111D02*
X020164Y010111D01*
X020744Y010425D02*
X021528Y010425D01*
X021343Y010346D02*
X020929Y010346D01*
X021007Y010268D02*
X021265Y010268D01*
X021197Y010189D02*
X021076Y010189D01*
X021108Y010111D02*
X021164Y010111D01*
X021744Y010425D02*
X022528Y010425D01*
X022343Y010346D02*
X021929Y010346D01*
X022007Y010268D02*
X022265Y010268D01*
X022197Y010189D02*
X022076Y010189D01*
X022108Y010111D02*
X022164Y010111D01*
X022744Y010425D02*
X023528Y010425D01*
X023343Y010346D02*
X022929Y010346D01*
X023007Y010268D02*
X023265Y010268D01*
X023197Y010189D02*
X023076Y010189D01*
X023108Y010111D02*
X023164Y010111D01*
X023744Y010425D02*
X024528Y010425D01*
X024343Y010346D02*
X023929Y010346D01*
X024007Y010268D02*
X024265Y010268D01*
X024197Y010189D02*
X024076Y010189D01*
X024108Y010111D02*
X024164Y010111D01*
X024744Y010425D02*
X025528Y010425D01*
X025343Y010346D02*
X024929Y010346D01*
X025007Y010268D02*
X025265Y010268D01*
X025197Y010189D02*
X025076Y010189D01*
X025108Y010111D02*
X025164Y010111D01*
X025744Y010425D02*
X026528Y010425D01*
X026343Y010346D02*
X025929Y010346D01*
X026007Y010268D02*
X026265Y010268D01*
X026197Y010189D02*
X026076Y010189D01*
X026108Y010111D02*
X026164Y010111D01*
X026744Y010425D02*
X027528Y010425D01*
X027343Y010346D02*
X026929Y010346D01*
X027007Y010268D02*
X027265Y010268D01*
X027197Y010189D02*
X027076Y010189D01*
X027108Y010111D02*
X027164Y010111D01*
X027744Y010425D02*
X028528Y010425D01*
X028343Y010346D02*
X027929Y010346D01*
X028007Y010268D02*
X028265Y010268D01*
X028197Y010189D02*
X028076Y010189D01*
X028108Y010111D02*
X028164Y010111D01*
X028744Y010425D02*
X029528Y010425D01*
X029343Y010346D02*
X028929Y010346D01*
X029007Y010268D02*
X029265Y010268D01*
X029197Y010189D02*
X029076Y010189D01*
X029108Y010111D02*
X029164Y010111D01*
X029744Y010425D02*
X030528Y010425D01*
X030343Y010346D02*
X029929Y010346D01*
X030007Y010268D02*
X030265Y010268D01*
X030197Y010189D02*
X030076Y010189D01*
X030108Y010111D02*
X030164Y010111D01*
X030744Y010425D02*
X031528Y010425D01*
X031343Y010346D02*
X030929Y010346D01*
X031007Y010268D02*
X031265Y010268D01*
X031197Y010189D02*
X031076Y010189D01*
X031108Y010111D02*
X031164Y010111D01*
X031744Y010425D02*
X032528Y010425D01*
X032343Y010346D02*
X031929Y010346D01*
X032007Y010268D02*
X032265Y010268D01*
X032197Y010189D02*
X032076Y010189D01*
X032108Y010111D02*
X032164Y010111D01*
X032342Y011995D02*
X035440Y011995D01*
X035440Y012073D02*
X032421Y012073D01*
X032417Y012069D02*
X032417Y012069D01*
X032499Y012152D02*
X035440Y012152D01*
X035440Y012230D02*
X032578Y012230D01*
X032656Y012309D02*
X035440Y012309D01*
X035440Y012387D02*
X032735Y012387D01*
X032813Y012466D02*
X035440Y012466D01*
X035461Y012544D02*
X032892Y012544D01*
X032970Y012623D02*
X035493Y012623D01*
X035556Y012701D02*
X033049Y012701D01*
X033127Y012780D02*
X035650Y012780D01*
X036070Y012780D02*
X036440Y012780D01*
X036440Y012858D02*
X033206Y012858D01*
X033284Y012937D02*
X036440Y012937D01*
X036440Y013015D02*
X033363Y013015D01*
X033441Y013094D02*
X036440Y013094D01*
X036440Y013172D02*
X033520Y013172D01*
X033598Y013251D02*
X036440Y013251D01*
X036440Y013329D02*
X033677Y013329D01*
X033755Y013408D02*
X036440Y013408D01*
X036440Y013486D02*
X036068Y013486D01*
X036081Y013493D02*
X036134Y013532D01*
X036181Y013579D01*
X036220Y013632D01*
X036250Y013691D01*
X036270Y013754D01*
X036280Y013819D01*
X036280Y014092D01*
X035900Y014092D01*
X035900Y013433D01*
X035959Y013442D01*
X036022Y013463D01*
X036081Y013493D01*
X036167Y013565D02*
X036469Y013565D01*
X036502Y013643D02*
X036225Y013643D01*
X036260Y013722D02*
X036576Y013722D01*
X036700Y013800D02*
X036277Y013800D01*
X036280Y013879D02*
X042948Y013879D01*
X042919Y013949D02*
X043008Y013735D01*
X043172Y013571D01*
X043386Y013482D01*
X043618Y013482D01*
X043832Y013571D01*
X043996Y013735D01*
X044085Y013949D01*
X044085Y014181D01*
X043996Y014395D01*
X043832Y014559D01*
X043742Y014597D01*
X043832Y014634D01*
X043996Y014798D01*
X044085Y015012D01*
X044085Y015244D01*
X043996Y015458D01*
X043832Y015622D01*
X043692Y015681D01*
X043749Y015704D01*
X043871Y015827D01*
X043937Y015986D01*
X043937Y016160D01*
X043871Y016320D01*
X043749Y016442D01*
X043692Y016466D01*
X043832Y016524D01*
X043996Y016688D01*
X044085Y016902D01*
X044085Y017134D01*
X043996Y017348D01*
X043832Y017512D01*
X043742Y017549D01*
X043832Y017587D01*
X043996Y017751D01*
X044085Y017965D01*
X044085Y018197D01*
X043996Y018411D01*
X043832Y018575D01*
X043618Y018664D01*
X043386Y018664D01*
X043172Y018575D01*
X043008Y018411D01*
X042919Y018197D01*
X042919Y017965D01*
X043008Y017751D01*
X043172Y017587D01*
X043262Y017549D01*
X043172Y017512D01*
X043008Y017348D01*
X042919Y017134D01*
X042919Y016902D01*
X043008Y016688D01*
X043172Y016524D01*
X043312Y016466D01*
X043256Y016442D01*
X043133Y016320D01*
X043067Y016160D01*
X043067Y015986D01*
X043133Y015827D01*
X043256Y015704D01*
X043312Y015681D01*
X043172Y015622D01*
X043008Y015458D01*
X042919Y015244D01*
X042919Y015012D01*
X043008Y014798D01*
X043172Y014634D01*
X043262Y014597D01*
X043172Y014559D01*
X043008Y014395D01*
X042919Y014181D01*
X042919Y013949D01*
X042919Y013957D02*
X036280Y013957D01*
X036280Y014036D02*
X042919Y014036D01*
X042919Y014114D02*
X035900Y014114D01*
X035900Y014092D02*
X035900Y014172D01*
X035820Y014172D01*
X035820Y014092D01*
X035440Y014092D01*
X035440Y013819D01*
X035451Y013754D01*
X035471Y013691D01*
X035501Y013632D01*
X035540Y013579D01*
X035587Y013532D01*
X035640Y013493D01*
X035699Y013463D01*
X035762Y013442D01*
X035820Y013433D01*
X035820Y014092D01*
X035900Y014092D01*
X035900Y014036D02*
X035820Y014036D01*
X035820Y014114D02*
X034462Y014114D01*
X034540Y014193D02*
X035440Y014193D01*
X035440Y014172D02*
X035820Y014172D01*
X035820Y014831D01*
X035762Y014822D01*
X035699Y014801D01*
X035640Y014771D01*
X035587Y014732D01*
X035540Y014686D01*
X035501Y014632D01*
X035471Y014573D01*
X035451Y014510D01*
X035440Y014445D01*
X035440Y014172D01*
X035440Y014271D02*
X034619Y014271D01*
X034697Y014350D02*
X035440Y014350D01*
X035440Y014428D02*
X034776Y014428D01*
X034854Y014507D02*
X035450Y014507D01*
X035477Y014585D02*
X034933Y014585D01*
X035011Y014664D02*
X035524Y014664D01*
X035600Y014742D02*
X035090Y014742D01*
X035168Y014821D02*
X035759Y014821D01*
X035820Y014821D02*
X035900Y014821D01*
X035900Y014831D02*
X035900Y014172D01*
X036280Y014172D01*
X036280Y014445D01*
X036270Y014510D01*
X036250Y014573D01*
X036220Y014632D01*
X036181Y014686D01*
X036134Y014732D01*
X036081Y014771D01*
X036022Y014801D01*
X035959Y014822D01*
X035900Y014831D01*
X035962Y014821D02*
X042999Y014821D01*
X042966Y014899D02*
X035247Y014899D01*
X035325Y014978D02*
X042934Y014978D01*
X042919Y015056D02*
X035404Y015056D01*
X035482Y015135D02*
X042919Y015135D01*
X042919Y015213D02*
X035561Y015213D01*
X035639Y015292D02*
X042939Y015292D01*
X042972Y015370D02*
X035718Y015370D01*
X035796Y015449D02*
X043004Y015449D01*
X043077Y015527D02*
X035875Y015527D01*
X036165Y015606D02*
X043155Y015606D01*
X043197Y015763D02*
X036283Y015763D01*
X036307Y015841D02*
X043127Y015841D01*
X043095Y015920D02*
X036307Y015920D01*
X036289Y015998D02*
X043067Y015998D01*
X043067Y016077D02*
X036257Y016077D01*
X036180Y016155D02*
X043067Y016155D01*
X043098Y016234D02*
X035374Y016234D01*
X035374Y016312D02*
X043130Y016312D01*
X043204Y016391D02*
X035357Y016391D01*
X035325Y016469D02*
X043304Y016469D01*
X043148Y016548D02*
X035250Y016548D01*
X035349Y016155D02*
X035753Y016155D01*
X035677Y016077D02*
X035308Y016077D01*
X035229Y015998D02*
X035644Y015998D01*
X035627Y015920D02*
X034981Y015920D01*
X034902Y015841D02*
X035627Y015841D01*
X035573Y015763D02*
X034824Y015763D01*
X034745Y015684D02*
X035494Y015684D01*
X035416Y015606D02*
X034930Y015606D01*
X035037Y015527D02*
X035337Y015527D01*
X035259Y015449D02*
X035091Y015449D01*
X035124Y015370D02*
X035180Y015370D01*
X034448Y015370D02*
X034431Y015370D01*
X034446Y015292D02*
X034353Y015292D01*
X034274Y015213D02*
X034433Y015213D01*
X034354Y015135D02*
X034196Y015135D01*
X034117Y015056D02*
X034276Y015056D01*
X034197Y014978D02*
X034039Y014978D01*
X033960Y014899D02*
X034119Y014899D01*
X034040Y014821D02*
X033882Y014821D01*
X033803Y014742D02*
X033962Y014742D01*
X033883Y014664D02*
X033725Y014664D01*
X033646Y014585D02*
X033805Y014585D01*
X033726Y014507D02*
X033568Y014507D01*
X033489Y014428D02*
X033648Y014428D01*
X033569Y014350D02*
X033411Y014350D01*
X033332Y014271D02*
X033491Y014271D01*
X033412Y014193D02*
X033254Y014193D01*
X033175Y014114D02*
X033334Y014114D01*
X033255Y014036D02*
X033097Y014036D01*
X033018Y013957D02*
X033177Y013957D01*
X033098Y013879D02*
X032940Y013879D01*
X032861Y013800D02*
X033020Y013800D01*
X032941Y013722D02*
X032783Y013722D01*
X032704Y013643D02*
X032863Y013643D01*
X032784Y013565D02*
X032626Y013565D01*
X032547Y013486D02*
X032706Y013486D01*
X032627Y013408D02*
X032469Y013408D01*
X032390Y013329D02*
X032549Y013329D01*
X032470Y013251D02*
X032312Y013251D01*
X032233Y013172D02*
X032392Y013172D01*
X032313Y013094D02*
X032155Y013094D01*
X032076Y013015D02*
X032235Y013015D01*
X032156Y012937D02*
X031998Y012937D01*
X031919Y012858D02*
X032078Y012858D01*
X031999Y012780D02*
X031841Y012780D01*
X031762Y012701D02*
X031921Y012701D01*
X031842Y012623D02*
X031684Y012623D01*
X031764Y012544D02*
X026981Y012544D01*
X026902Y012623D02*
X028134Y012623D01*
X028055Y012701D02*
X026824Y012701D01*
X026761Y012780D02*
X027977Y012780D01*
X027898Y012858D02*
X026642Y012858D01*
X026394Y012858D02*
X026304Y012858D01*
X026304Y012937D02*
X027820Y012937D01*
X027741Y013015D02*
X026304Y013015D01*
X026304Y013094D02*
X027663Y013094D01*
X027584Y013172D02*
X026304Y013172D01*
X026304Y013251D02*
X027506Y013251D01*
X027427Y013329D02*
X026304Y013329D01*
X026304Y013408D02*
X027349Y013408D01*
X027270Y013486D02*
X026304Y013486D01*
X026304Y013565D02*
X027192Y013565D01*
X027113Y013643D02*
X026304Y013643D01*
X026304Y013722D02*
X027064Y013722D01*
X027064Y013800D02*
X026304Y013800D01*
X026304Y013879D02*
X027064Y013879D01*
X027064Y013957D02*
X026304Y013957D01*
X026304Y014036D02*
X027064Y014036D01*
X026982Y014114D02*
X026304Y014114D01*
X026304Y014193D02*
X026903Y014193D01*
X026840Y014271D02*
X026304Y014271D01*
X026304Y014350D02*
X026808Y014350D01*
X026775Y014428D02*
X026304Y014428D01*
X026304Y014507D02*
X026774Y014507D01*
X026774Y014585D02*
X026304Y014585D01*
X026304Y014664D02*
X026786Y014664D01*
X026818Y014742D02*
X026304Y014742D01*
X026304Y014821D02*
X026851Y014821D01*
X026928Y014899D02*
X026304Y014899D01*
X026304Y014978D02*
X027023Y014978D01*
X027544Y014978D02*
X030667Y014978D01*
X030745Y015056D02*
X026304Y015056D01*
X026304Y015135D02*
X030824Y015135D01*
X030902Y015213D02*
X026304Y015213D01*
X026304Y015292D02*
X030981Y015292D01*
X031059Y015370D02*
X026304Y015370D01*
X026304Y015449D02*
X031138Y015449D01*
X031216Y015527D02*
X026304Y015527D01*
X026304Y015606D02*
X031295Y015606D01*
X031373Y015684D02*
X026304Y015684D01*
X026304Y015763D02*
X031452Y015763D01*
X031530Y015841D02*
X026304Y015841D01*
X026304Y015920D02*
X031564Y015920D01*
X031564Y015998D02*
X026304Y015998D01*
X026304Y016077D02*
X031564Y016077D01*
X031564Y016155D02*
X026304Y016155D01*
X026304Y016234D02*
X031564Y016234D01*
X031564Y016312D02*
X026304Y016312D01*
X026304Y016391D02*
X031564Y016391D01*
X031564Y016469D02*
X026304Y016469D01*
X026304Y016548D02*
X031564Y016548D01*
X031564Y016626D02*
X026304Y016626D01*
X026304Y016705D02*
X031564Y016705D01*
X031564Y016783D02*
X026304Y016783D01*
X026304Y016862D02*
X031564Y016862D01*
X031564Y016940D02*
X026304Y016940D01*
X026304Y017019D02*
X031564Y017019D01*
X031564Y017097D02*
X026304Y017097D01*
X026304Y017176D02*
X031564Y017176D01*
X031564Y017254D02*
X026304Y017254D01*
X026304Y017333D02*
X031504Y017333D01*
X031466Y017411D02*
X026304Y017411D01*
X026304Y017490D02*
X031444Y017490D01*
X031444Y017568D02*
X026304Y017568D01*
X026304Y017647D02*
X031463Y017647D01*
X031495Y017725D02*
X026304Y017725D01*
X026304Y017804D02*
X031564Y017804D01*
X031564Y017882D02*
X026304Y017882D01*
X026304Y017961D02*
X031564Y017961D01*
X031564Y018039D02*
X027423Y018039D01*
X027385Y018024D02*
X027573Y018101D01*
X027716Y018245D01*
X027794Y018432D01*
X027794Y018635D01*
X027716Y018823D01*
X027573Y018966D01*
X027385Y019044D01*
X027182Y019044D01*
X026995Y018966D01*
X026851Y018823D01*
X026774Y018635D01*
X026774Y018432D01*
X026304Y018432D01*
X026304Y018510D02*
X026774Y018510D01*
X026774Y018432D02*
X026851Y018245D01*
X026995Y018101D01*
X027182Y018024D01*
X027385Y018024D01*
X027589Y018118D02*
X031564Y018118D01*
X031564Y018196D02*
X027668Y018196D01*
X027728Y018275D02*
X031564Y018275D01*
X031564Y018353D02*
X027761Y018353D01*
X027793Y018432D02*
X031564Y018432D01*
X031564Y018510D02*
X027794Y018510D01*
X027794Y018589D02*
X031564Y018589D01*
X031564Y018667D02*
X027780Y018667D01*
X027748Y018746D02*
X031564Y018746D01*
X031564Y018824D02*
X027714Y018824D01*
X027636Y018903D02*
X031564Y018903D01*
X031564Y018981D02*
X027536Y018981D01*
X027032Y018981D02*
X026304Y018981D01*
X026304Y018903D02*
X026932Y018903D01*
X026853Y018824D02*
X026304Y018824D01*
X026304Y018746D02*
X026820Y018746D01*
X026787Y018667D02*
X026304Y018667D01*
X026304Y018589D02*
X026774Y018589D01*
X026806Y018353D02*
X026304Y018353D01*
X026304Y018275D02*
X026839Y018275D01*
X026900Y018196D02*
X026304Y018196D01*
X026304Y018118D02*
X026978Y018118D01*
X027145Y018039D02*
X026304Y018039D01*
X026124Y018039D02*
X023959Y018039D01*
X023959Y017961D02*
X026124Y017961D01*
X026124Y017882D02*
X023959Y017882D01*
X023959Y017804D02*
X026124Y017804D01*
X026124Y017725D02*
X023959Y017725D01*
X023959Y017647D02*
X026124Y017647D01*
X026124Y017568D02*
X023959Y017568D01*
X023959Y017490D02*
X026124Y017490D01*
X026124Y017411D02*
X023959Y017411D01*
X023959Y017333D02*
X026124Y017333D01*
X026124Y017254D02*
X023959Y017254D01*
X023959Y017176D02*
X026124Y017176D01*
X026124Y017097D02*
X023959Y017097D01*
X023959Y017019D02*
X026124Y017019D01*
X026124Y016940D02*
X023959Y016940D01*
X023959Y016862D02*
X026124Y016862D01*
X026124Y016783D02*
X023959Y016783D01*
X023959Y016705D02*
X026124Y016705D01*
X026124Y016626D02*
X023959Y016626D01*
X023959Y016548D02*
X026124Y016548D01*
X026124Y016469D02*
X023959Y016469D01*
X023959Y016391D02*
X026124Y016391D01*
X026124Y016312D02*
X023959Y016312D01*
X023959Y016234D02*
X026124Y016234D01*
X026124Y016155D02*
X023959Y016155D01*
X023959Y016077D02*
X026124Y016077D01*
X026124Y015998D02*
X023959Y015998D01*
X023959Y015920D02*
X026124Y015920D01*
X026124Y015841D02*
X023959Y015841D01*
X023959Y015763D02*
X026124Y015763D01*
X026124Y015684D02*
X023959Y015684D01*
X023959Y015606D02*
X026124Y015606D01*
X026124Y015527D02*
X023959Y015527D01*
X023959Y015449D02*
X026124Y015449D01*
X026124Y015370D02*
X023959Y015370D01*
X023959Y015292D02*
X026124Y015292D01*
X026124Y015213D02*
X023959Y015213D01*
X023959Y015135D02*
X026124Y015135D01*
X026124Y015056D02*
X023959Y015056D01*
X023959Y014978D02*
X026124Y014978D01*
X026124Y014899D02*
X023959Y014899D01*
X023959Y014821D02*
X026124Y014821D01*
X026124Y014742D02*
X023959Y014742D01*
X023959Y014664D02*
X026124Y014664D01*
X026124Y014585D02*
X023959Y014585D01*
X023959Y014507D02*
X026124Y014507D01*
X026124Y014428D02*
X023959Y014428D01*
X023959Y014350D02*
X026124Y014350D01*
X026124Y014271D02*
X023959Y014271D01*
X023959Y014193D02*
X026124Y014193D01*
X026124Y014114D02*
X023959Y014114D01*
X023959Y014036D02*
X026124Y014036D01*
X026124Y013957D02*
X023959Y013957D01*
X023959Y013879D02*
X026124Y013879D01*
X026124Y013800D02*
X023959Y013800D01*
X023959Y013722D02*
X026124Y013722D01*
X026124Y013643D02*
X023959Y013643D01*
X023959Y013565D02*
X026124Y013565D01*
X026124Y013486D02*
X023959Y013486D01*
X023959Y013408D02*
X026124Y013408D01*
X026124Y013329D02*
X023959Y013329D01*
X023959Y013251D02*
X026124Y013251D01*
X026124Y013172D02*
X023959Y013172D01*
X023959Y013094D02*
X026124Y013094D01*
X026124Y013015D02*
X023959Y013015D01*
X023959Y012937D02*
X026124Y012937D01*
X026124Y012858D02*
X023959Y012858D01*
X023959Y012780D02*
X026124Y012780D01*
X026124Y012701D02*
X023959Y012701D01*
X023959Y012623D02*
X026124Y012623D01*
X026124Y012544D02*
X023959Y012544D01*
X023959Y012466D02*
X026124Y012466D01*
X026124Y012387D02*
X023959Y012387D01*
X023959Y012309D02*
X026124Y012309D01*
X026124Y012230D02*
X023959Y012230D01*
X023959Y012152D02*
X026124Y012152D01*
X026124Y012073D02*
X023959Y012073D01*
X023959Y011995D02*
X026124Y011995D01*
X026124Y011916D02*
X023959Y011916D01*
X023959Y011838D02*
X026124Y011838D01*
X026124Y011759D02*
X023959Y011759D01*
X023959Y011681D02*
X026124Y011681D01*
X026124Y011602D02*
X023959Y011602D01*
X023959Y011524D02*
X026124Y011524D01*
X026124Y011445D02*
X023959Y011445D01*
X023959Y011367D02*
X026124Y011367D01*
X026124Y011288D02*
X023959Y011288D01*
X023959Y011210D02*
X026124Y011210D01*
X026124Y011131D02*
X023959Y011131D01*
X023959Y011053D02*
X026124Y011053D01*
X026304Y011524D02*
X035595Y011524D01*
X035516Y011602D02*
X026304Y011602D01*
X026304Y011681D02*
X026307Y011681D01*
X026728Y011681D02*
X035477Y011681D01*
X035444Y011759D02*
X026807Y011759D01*
X026870Y011838D02*
X035440Y011838D01*
X035440Y011916D02*
X026949Y011916D01*
X028363Y013015D02*
X031454Y013015D01*
X031533Y013094D02*
X028285Y013094D01*
X028206Y013172D02*
X031611Y013172D01*
X031690Y013251D02*
X028128Y013251D01*
X028049Y013329D02*
X031768Y013329D01*
X031847Y013408D02*
X027971Y013408D01*
X027892Y013486D02*
X031925Y013486D01*
X032004Y013565D02*
X027814Y013565D01*
X027735Y013643D02*
X032082Y013643D01*
X032161Y013722D02*
X027657Y013722D01*
X027578Y013800D02*
X032239Y013800D01*
X032318Y013879D02*
X027504Y013879D01*
X027504Y013957D02*
X032396Y013957D01*
X032475Y014036D02*
X027504Y014036D01*
X027585Y014114D02*
X032553Y014114D01*
X032632Y014193D02*
X027664Y014193D01*
X027727Y014271D02*
X030315Y014271D01*
X030242Y014350D02*
X027760Y014350D01*
X027792Y014428D02*
X030209Y014428D01*
X030194Y014507D02*
X027794Y014507D01*
X027794Y014585D02*
X030194Y014585D01*
X030220Y014664D02*
X027782Y014664D01*
X027749Y014742D02*
X030261Y014742D01*
X030340Y014821D02*
X027717Y014821D01*
X027639Y014899D02*
X030588Y014899D01*
X030896Y014585D02*
X033024Y014585D01*
X032946Y014507D02*
X030874Y014507D01*
X030858Y014428D02*
X032867Y014428D01*
X032789Y014350D02*
X030826Y014350D01*
X030752Y014271D02*
X032710Y014271D01*
X033103Y014664D02*
X030975Y014664D01*
X031053Y014742D02*
X033181Y014742D01*
X033260Y014821D02*
X031132Y014821D01*
X031210Y014899D02*
X033338Y014899D01*
X033417Y014978D02*
X031289Y014978D01*
X031367Y015056D02*
X033495Y015056D01*
X033574Y015135D02*
X031446Y015135D01*
X031524Y015213D02*
X033652Y015213D01*
X033731Y015292D02*
X031603Y015292D01*
X031681Y015370D02*
X033809Y015370D01*
X033888Y015449D02*
X031760Y015449D01*
X031838Y015527D02*
X033966Y015527D01*
X034045Y015606D02*
X031917Y015606D01*
X031995Y015684D02*
X034123Y015684D01*
X034202Y015763D02*
X032004Y015763D01*
X032004Y015841D02*
X034280Y015841D01*
X034359Y015920D02*
X032004Y015920D01*
X032004Y015998D02*
X034437Y015998D01*
X034516Y016077D02*
X032004Y016077D01*
X032004Y016155D02*
X034594Y016155D01*
X034673Y016234D02*
X032004Y016234D01*
X032004Y016312D02*
X034694Y016312D01*
X034710Y016391D02*
X032004Y016391D01*
X032004Y016469D02*
X034743Y016469D01*
X034817Y016548D02*
X032004Y016548D01*
X032004Y016626D02*
X043070Y016626D01*
X043001Y016705D02*
X032004Y016705D01*
X032004Y016783D02*
X042968Y016783D01*
X042936Y016862D02*
X032004Y016862D01*
X032004Y016940D02*
X042919Y016940D01*
X042919Y017019D02*
X032004Y017019D01*
X032004Y017097D02*
X042919Y017097D01*
X042937Y017176D02*
X032004Y017176D01*
X032004Y017254D02*
X042969Y017254D01*
X043002Y017333D02*
X032064Y017333D01*
X032101Y017411D02*
X043071Y017411D01*
X043150Y017490D02*
X032124Y017490D01*
X032124Y017568D02*
X043217Y017568D01*
X043112Y017647D02*
X032105Y017647D01*
X032072Y017725D02*
X043034Y017725D01*
X042986Y017804D02*
X032004Y017804D01*
X032004Y017882D02*
X042954Y017882D01*
X042921Y017961D02*
X032004Y017961D01*
X032004Y018039D02*
X042919Y018039D01*
X042919Y018118D02*
X032004Y018118D01*
X032004Y018196D02*
X042919Y018196D01*
X042952Y018275D02*
X032004Y018275D01*
X032004Y018353D02*
X042984Y018353D01*
X043029Y018432D02*
X032004Y018432D01*
X032004Y018510D02*
X043107Y018510D01*
X043205Y018589D02*
X032004Y018589D01*
X032004Y018667D02*
X047715Y018667D01*
X047715Y018589D02*
X043799Y018589D01*
X043897Y018510D02*
X047715Y018510D01*
X047715Y018432D02*
X045666Y018432D01*
X045717Y018411D02*
X045557Y018477D01*
X045384Y018477D01*
X045224Y018411D01*
X045102Y018288D01*
X045035Y018128D01*
X045035Y017955D01*
X045102Y017795D01*
X045224Y017673D01*
X045384Y017606D01*
X045557Y017606D01*
X045717Y017673D01*
X045840Y017795D01*
X045906Y017955D01*
X045906Y018128D01*
X045840Y018288D01*
X045717Y018411D01*
X045775Y018353D02*
X047715Y018353D01*
X047715Y018275D02*
X045845Y018275D01*
X045878Y018196D02*
X047715Y018196D01*
X047715Y018118D02*
X045906Y018118D01*
X045906Y018039D02*
X047715Y018039D01*
X047715Y017961D02*
X045906Y017961D01*
X045876Y017882D02*
X047715Y017882D01*
X047715Y017804D02*
X045843Y017804D01*
X045770Y017725D02*
X047715Y017725D01*
X047715Y017647D02*
X045655Y017647D01*
X045286Y017647D02*
X043892Y017647D01*
X043971Y017725D02*
X045171Y017725D01*
X045098Y017804D02*
X044018Y017804D01*
X044051Y017882D02*
X045066Y017882D01*
X045035Y017961D02*
X044083Y017961D01*
X044085Y018039D02*
X045035Y018039D01*
X045035Y018118D02*
X044085Y018118D01*
X044085Y018196D02*
X045064Y018196D01*
X045096Y018275D02*
X044053Y018275D01*
X044020Y018353D02*
X045167Y018353D01*
X045275Y018432D02*
X043976Y018432D01*
X043573Y019101D02*
X043716Y019245D01*
X043794Y019432D01*
X043794Y019635D01*
X043716Y019823D01*
X043573Y019966D01*
X043409Y020034D01*
X043573Y020101D01*
X043716Y020245D01*
X043794Y020432D01*
X043794Y020635D01*
X043716Y020823D01*
X043573Y020966D01*
X043409Y021034D01*
X043573Y021101D01*
X043716Y021245D01*
X043794Y021432D01*
X043794Y021635D01*
X043716Y021823D01*
X043573Y021966D01*
X043409Y022034D01*
X043573Y022101D01*
X043716Y022245D01*
X043794Y022432D01*
X043794Y022635D01*
X043716Y022823D01*
X043573Y022966D01*
X043409Y023034D01*
X043573Y023101D01*
X043716Y023245D01*
X043794Y023432D01*
X043794Y023635D01*
X043716Y023823D01*
X043573Y023966D01*
X043409Y024034D01*
X043573Y024101D01*
X043716Y024245D01*
X043794Y024432D01*
X043794Y024635D01*
X043716Y024823D01*
X043573Y024966D01*
X043409Y025034D01*
X043573Y025101D01*
X043716Y025245D01*
X043794Y025432D01*
X043794Y025635D01*
X043716Y025823D01*
X043573Y025966D01*
X043409Y026034D01*
X043573Y026101D01*
X043716Y026245D01*
X043794Y026432D01*
X043794Y026635D01*
X043716Y026823D01*
X043573Y026966D01*
X043409Y027034D01*
X043573Y027101D01*
X043716Y027245D01*
X043794Y027432D01*
X043794Y027635D01*
X043716Y027823D01*
X043573Y027966D01*
X043385Y028044D01*
X043182Y028044D01*
X042995Y027966D01*
X042851Y027823D01*
X042774Y027635D01*
X042774Y027432D01*
X042851Y027245D01*
X042995Y027101D01*
X043158Y027034D01*
X042995Y026966D01*
X042851Y026823D01*
X042774Y026635D01*
X042774Y026432D01*
X042851Y026245D01*
X042995Y026101D01*
X043158Y026034D01*
X042995Y025966D01*
X042851Y025823D01*
X042774Y025635D01*
X042774Y025432D01*
X042851Y025245D01*
X042995Y025101D01*
X043158Y025034D01*
X042995Y024966D01*
X042851Y024823D01*
X042774Y024635D01*
X042774Y024432D01*
X042851Y024245D01*
X042995Y024101D01*
X043158Y024034D01*
X042995Y023966D01*
X042851Y023823D01*
X042774Y023635D01*
X042774Y023432D01*
X042851Y023245D01*
X042995Y023101D01*
X043158Y023034D01*
X042995Y022966D01*
X042851Y022823D01*
X042774Y022635D01*
X042774Y022432D01*
X042851Y022245D01*
X042995Y022101D01*
X043158Y022034D01*
X042995Y021966D01*
X042851Y021823D01*
X042774Y021635D01*
X042774Y021432D01*
X042851Y021245D01*
X042995Y021101D01*
X043158Y021034D01*
X042995Y020966D01*
X042851Y020823D01*
X042774Y020635D01*
X042774Y020432D01*
X042851Y020245D01*
X042995Y020101D01*
X043158Y020034D01*
X042995Y019966D01*
X042851Y019823D01*
X042774Y019635D01*
X042774Y019432D01*
X042851Y019245D01*
X042995Y019101D01*
X043182Y019024D01*
X043385Y019024D01*
X043573Y019101D01*
X043610Y019138D02*
X047715Y019138D01*
X047715Y019060D02*
X043472Y019060D01*
X043688Y019217D02*
X047715Y019217D01*
X047715Y019295D02*
X043737Y019295D01*
X043769Y019374D02*
X047715Y019374D01*
X047715Y019452D02*
X043794Y019452D01*
X043794Y019531D02*
X047715Y019531D01*
X047715Y019609D02*
X043794Y019609D01*
X043772Y019688D02*
X047715Y019688D01*
X047715Y019766D02*
X043739Y019766D01*
X043694Y019845D02*
X047715Y019845D01*
X047715Y019923D02*
X043615Y019923D01*
X043486Y020002D02*
X047715Y020002D01*
X047715Y020080D02*
X043522Y020080D01*
X043630Y020159D02*
X047715Y020159D01*
X047715Y020237D02*
X043709Y020237D01*
X043745Y020316D02*
X047715Y020316D01*
X047715Y020394D02*
X043778Y020394D01*
X043794Y020473D02*
X047715Y020473D01*
X047715Y020551D02*
X043794Y020551D01*
X043794Y020630D02*
X047715Y020630D01*
X047715Y020708D02*
X043763Y020708D01*
X043731Y020787D02*
X047715Y020787D01*
X047715Y020865D02*
X043673Y020865D01*
X043595Y020944D02*
X047715Y020944D01*
X047715Y021022D02*
X043437Y021022D01*
X043571Y021101D02*
X047715Y021101D01*
X047715Y021179D02*
X043651Y021179D01*
X043721Y021258D02*
X047715Y021258D01*
X047715Y021336D02*
X043754Y021336D01*
X043786Y021415D02*
X047715Y021415D01*
X047715Y021493D02*
X043794Y021493D01*
X043794Y021572D02*
X047715Y021572D01*
X047715Y021650D02*
X043787Y021650D01*
X043755Y021729D02*
X047715Y021729D01*
X047715Y021807D02*
X043722Y021807D01*
X043653Y021886D02*
X047715Y021886D01*
X047715Y021964D02*
X043574Y021964D01*
X043593Y022121D02*
X047715Y022121D01*
X047715Y022043D02*
X043431Y022043D01*
X043671Y022200D02*
X047715Y022200D01*
X047715Y022278D02*
X043730Y022278D01*
X043762Y022357D02*
X047715Y022357D01*
X047715Y022435D02*
X043794Y022435D01*
X043794Y022514D02*
X047715Y022514D01*
X047715Y022592D02*
X043794Y022592D01*
X043779Y022671D02*
X047715Y022671D01*
X047715Y022749D02*
X043746Y022749D01*
X043711Y022828D02*
X047715Y022828D01*
X047715Y022906D02*
X043632Y022906D01*
X043527Y022985D02*
X047715Y022985D01*
X047715Y023063D02*
X043481Y023063D01*
X043613Y023142D02*
X047715Y023142D01*
X047715Y023220D02*
X043692Y023220D01*
X043738Y023299D02*
X047715Y023299D01*
X047715Y023377D02*
X043771Y023377D01*
X043794Y023456D02*
X047715Y023456D01*
X047715Y023534D02*
X043794Y023534D01*
X043794Y023613D02*
X047715Y023613D01*
X047715Y023691D02*
X043770Y023691D01*
X043738Y023770D02*
X047715Y023770D01*
X047715Y023848D02*
X043690Y023848D01*
X043612Y023927D02*
X047715Y023927D01*
X047715Y024005D02*
X043478Y024005D01*
X043530Y024084D02*
X047715Y024084D01*
X047715Y024162D02*
X043634Y024162D01*
X043712Y024241D02*
X047715Y024241D01*
X047715Y024319D02*
X043747Y024319D01*
X043779Y024398D02*
X047715Y024398D01*
X047715Y024476D02*
X043794Y024476D01*
X043794Y024555D02*
X047715Y024555D01*
X047715Y024633D02*
X043794Y024633D01*
X043762Y024712D02*
X047715Y024712D01*
X047715Y024790D02*
X043729Y024790D01*
X043670Y024869D02*
X047715Y024869D01*
X047715Y024947D02*
X043591Y024947D01*
X043576Y025104D02*
X047715Y025104D01*
X047715Y025026D02*
X043428Y025026D01*
X043654Y025183D02*
X047715Y025183D01*
X047715Y025261D02*
X043723Y025261D01*
X043755Y025340D02*
X047715Y025340D01*
X047715Y025418D02*
X043788Y025418D01*
X043794Y025497D02*
X047715Y025497D01*
X047715Y025575D02*
X043794Y025575D01*
X043786Y025654D02*
X047715Y025654D01*
X047715Y025732D02*
X043753Y025732D01*
X043721Y025811D02*
X047715Y025811D01*
X047715Y025889D02*
X043649Y025889D01*
X043568Y025968D02*
X047715Y025968D01*
X047715Y026046D02*
X043440Y026046D01*
X043596Y026125D02*
X047715Y026125D01*
X047715Y026203D02*
X043675Y026203D01*
X043731Y026282D02*
X047715Y026282D01*
X047715Y026360D02*
X043764Y026360D01*
X043794Y026439D02*
X047715Y026439D01*
X047715Y026517D02*
X043794Y026517D01*
X043794Y026596D02*
X047715Y026596D01*
X047715Y026674D02*
X043777Y026674D01*
X043745Y026753D02*
X047715Y026753D01*
X047715Y026831D02*
X043707Y026831D01*
X043629Y026910D02*
X047715Y026910D01*
X047715Y026988D02*
X043519Y026988D01*
X043489Y027067D02*
X047715Y027067D01*
X047715Y027145D02*
X043617Y027145D01*
X043695Y027224D02*
X047715Y027224D01*
X047715Y027302D02*
X043740Y027302D01*
X043772Y027381D02*
X047715Y027381D01*
X047715Y027459D02*
X043794Y027459D01*
X043794Y027538D02*
X047715Y027538D01*
X047715Y027616D02*
X043794Y027616D01*
X043769Y027695D02*
X047715Y027695D01*
X047715Y027773D02*
X043736Y027773D01*
X043687Y027852D02*
X047715Y027852D01*
X047715Y027930D02*
X043608Y027930D01*
X043469Y028009D02*
X047715Y028009D01*
X047715Y028087D02*
X036577Y028087D01*
X036545Y028009D02*
X043098Y028009D01*
X042959Y027930D02*
X036481Y027930D01*
X036535Y027984D02*
X036651Y028265D01*
X036651Y028570D01*
X036535Y028851D01*
X036319Y029066D01*
X036038Y029183D01*
X035734Y029183D01*
X035453Y029066D01*
X035238Y028851D01*
X035121Y028570D01*
X035121Y028265D01*
X035238Y027984D01*
X035453Y027769D01*
X035734Y027653D01*
X036038Y027653D01*
X036319Y027769D01*
X036535Y027984D01*
X036402Y027852D02*
X042881Y027852D01*
X042831Y027773D02*
X036324Y027773D01*
X036140Y027695D02*
X042798Y027695D01*
X042774Y027616D02*
X034572Y027616D01*
X034572Y027538D02*
X042774Y027538D01*
X042774Y027459D02*
X034572Y027459D01*
X034572Y027381D02*
X042795Y027381D01*
X042828Y027302D02*
X034572Y027302D01*
X034572Y027224D02*
X042872Y027224D01*
X042951Y027145D02*
X034572Y027145D01*
X034572Y027067D02*
X043078Y027067D01*
X043048Y026988D02*
X034572Y026988D01*
X034572Y026910D02*
X042939Y026910D01*
X042860Y026831D02*
X034572Y026831D01*
X034572Y026753D02*
X042822Y026753D01*
X042790Y026674D02*
X034572Y026674D01*
X034572Y026596D02*
X042774Y026596D01*
X042774Y026517D02*
X034572Y026517D01*
X034572Y026439D02*
X042774Y026439D01*
X042804Y026360D02*
X034572Y026360D01*
X034572Y026282D02*
X042836Y026282D01*
X042893Y026203D02*
X034572Y026203D01*
X034572Y026125D02*
X042971Y026125D01*
X042999Y025968D02*
X034572Y025968D01*
X034572Y026046D02*
X043128Y026046D01*
X042918Y025889D02*
X034572Y025889D01*
X034572Y025811D02*
X042846Y025811D01*
X042814Y025732D02*
X034572Y025732D01*
X034572Y025654D02*
X042781Y025654D01*
X042774Y025575D02*
X034572Y025575D01*
X034572Y025497D02*
X042774Y025497D01*
X042779Y025418D02*
X034572Y025418D01*
X034572Y025340D02*
X042812Y025340D01*
X042845Y025261D02*
X034572Y025261D01*
X034572Y025183D02*
X042913Y025183D01*
X042992Y025104D02*
X034572Y025104D01*
X034572Y025026D02*
X043139Y025026D01*
X042976Y024947D02*
X034572Y024947D01*
X034572Y024869D02*
X042898Y024869D01*
X042838Y024790D02*
X034572Y024790D01*
X034572Y024712D02*
X042805Y024712D01*
X042774Y024633D02*
X034572Y024633D01*
X034572Y024555D02*
X042774Y024555D01*
X042774Y024476D02*
X034572Y024476D01*
X034572Y024398D02*
X042788Y024398D01*
X042820Y024319D02*
X034572Y024319D01*
X034572Y024241D02*
X042855Y024241D01*
X042934Y024162D02*
X034572Y024162D01*
X034572Y024084D02*
X043037Y024084D01*
X043089Y024005D02*
X034572Y024005D01*
X034572Y023927D02*
X042956Y023927D01*
X042877Y023848D02*
X034572Y023848D01*
X034572Y023770D02*
X042829Y023770D01*
X042797Y023691D02*
X034572Y023691D01*
X034572Y023613D02*
X042774Y023613D01*
X042774Y023534D02*
X034572Y023534D01*
X034572Y023456D02*
X042774Y023456D01*
X042796Y023377D02*
X034572Y023377D01*
X034572Y023299D02*
X042829Y023299D01*
X042876Y023220D02*
X034572Y023220D01*
X034572Y023142D02*
X042954Y023142D01*
X043087Y023063D02*
X034572Y023063D01*
X034572Y022985D02*
X043040Y022985D01*
X042935Y022906D02*
X034572Y022906D01*
X034572Y022828D02*
X042857Y022828D01*
X042821Y022749D02*
X034572Y022749D01*
X034572Y022671D02*
X042788Y022671D01*
X042774Y022592D02*
X034572Y022592D01*
X034572Y022514D02*
X042774Y022514D01*
X042774Y022435D02*
X034572Y022435D01*
X034572Y022357D02*
X042805Y022357D01*
X042837Y022278D02*
X034572Y022278D01*
X034572Y022200D02*
X042896Y022200D01*
X042975Y022121D02*
X034572Y022121D01*
X034572Y022043D02*
X043136Y022043D01*
X042993Y021964D02*
X034572Y021964D01*
X034572Y021886D02*
X042915Y021886D01*
X042845Y021807D02*
X034572Y021807D01*
X034572Y021729D02*
X042812Y021729D01*
X042780Y021650D02*
X034572Y021650D01*
X034572Y021572D02*
X042774Y021572D01*
X042774Y021493D02*
X034572Y021493D01*
X034572Y021415D02*
X042781Y021415D01*
X042813Y021336D02*
X034572Y021336D01*
X034572Y021258D02*
X042846Y021258D01*
X042917Y021179D02*
X034572Y021179D01*
X034572Y021101D02*
X042996Y021101D01*
X043131Y021022D02*
X034572Y021022D01*
X034572Y020944D02*
X042973Y020944D01*
X042894Y020865D02*
X034572Y020865D01*
X034572Y020787D02*
X042837Y020787D01*
X042804Y020708D02*
X034572Y020708D01*
X034572Y020630D02*
X042774Y020630D01*
X042774Y020551D02*
X034572Y020551D01*
X034572Y020473D02*
X042774Y020473D01*
X042789Y020394D02*
X034572Y020394D01*
X034547Y020316D02*
X042822Y020316D01*
X042859Y020237D02*
X034468Y020237D01*
X034392Y020416D02*
X032004Y020416D01*
X032004Y027564D01*
X032068Y027629D01*
X032136Y027792D01*
X032204Y027629D01*
X032347Y027485D01*
X032535Y027408D01*
X032738Y027408D01*
X032925Y027485D01*
X033068Y027629D01*
X033139Y027798D01*
X033163Y027722D01*
X033200Y027650D01*
X033247Y027585D01*
X033304Y027529D01*
X033369Y027481D01*
X033440Y027445D01*
X033517Y027420D01*
X033596Y027408D01*
X033596Y027878D01*
X033676Y027878D01*
X033676Y027958D01*
X033596Y027958D01*
X033596Y028428D01*
X033596Y028878D01*
X033676Y028878D01*
X033676Y028958D01*
X033596Y028958D01*
X033596Y029428D01*
X033248Y029428D01*
X033212Y029418D01*
X033180Y029400D01*
X033154Y029374D01*
X033136Y029342D01*
X033126Y029306D01*
X033126Y029067D01*
X033068Y029206D01*
X032925Y029350D01*
X032738Y029428D01*
X032535Y029428D01*
X032347Y029350D01*
X032204Y029206D01*
X032136Y029043D01*
X032068Y029206D01*
X031925Y029350D01*
X031738Y029428D01*
X031535Y029428D01*
X031347Y029350D01*
X031204Y029206D01*
X031136Y029043D01*
X031068Y029206D01*
X030925Y029350D01*
X030738Y029428D01*
X030535Y029428D01*
X030347Y029350D01*
X030204Y029206D01*
X030136Y029043D01*
X030068Y029206D01*
X029925Y029350D01*
X029738Y029428D01*
X029535Y029428D01*
X029347Y029350D01*
X029204Y029206D01*
X029136Y029043D01*
X029068Y029206D01*
X028925Y029350D01*
X028738Y029428D01*
X028535Y029428D01*
X028347Y029350D01*
X028204Y029206D01*
X028136Y029043D01*
X028068Y029206D01*
X027925Y029350D01*
X027738Y029428D01*
X027535Y029428D01*
X027347Y029350D01*
X027204Y029206D01*
X027136Y029043D01*
X027068Y029206D01*
X026925Y029350D01*
X026738Y029428D01*
X026535Y029428D01*
X026347Y029350D01*
X026204Y029206D01*
X026136Y029043D01*
X026068Y029206D01*
X025925Y029350D01*
X025738Y029428D01*
X025535Y029428D01*
X025347Y029350D01*
X025204Y029206D01*
X025136Y029043D01*
X025068Y029206D01*
X024925Y029350D01*
X024738Y029428D01*
X024535Y029428D01*
X024347Y029350D01*
X024204Y029206D01*
X024136Y029043D01*
X024068Y029206D01*
X023925Y029350D01*
X023738Y029428D01*
X023535Y029428D01*
X023347Y029350D01*
X023204Y029206D01*
X023136Y029043D01*
X023068Y029206D01*
X022925Y029350D01*
X022738Y029428D01*
X022535Y029428D01*
X022347Y029350D01*
X022204Y029206D01*
X022136Y029043D01*
X022068Y029206D01*
X021925Y029350D01*
X021738Y029428D01*
X021535Y029428D01*
X021347Y029350D01*
X021204Y029206D01*
X021136Y029043D01*
X021068Y029206D01*
X020925Y029350D01*
X020738Y029428D01*
X020535Y029428D01*
X020347Y029350D01*
X020204Y029206D01*
X020136Y029043D01*
X020068Y029206D01*
X019925Y029350D01*
X019738Y029428D01*
X019535Y029428D01*
X019347Y029350D01*
X019204Y029206D01*
X019136Y029043D01*
X019068Y029206D01*
X018925Y029350D01*
X018738Y029428D01*
X018535Y029428D01*
X018347Y029350D01*
X018204Y029206D01*
X018136Y029043D01*
X018068Y029206D01*
X017925Y029350D01*
X017738Y029428D01*
X017535Y029428D01*
X017347Y029350D01*
X017204Y029206D01*
X017136Y029043D01*
X017068Y029206D01*
X016925Y029350D01*
X016738Y029428D01*
X016535Y029428D01*
X016347Y029350D01*
X016204Y029206D01*
X016136Y029043D01*
X016068Y029206D01*
X015925Y029350D01*
X015738Y029428D01*
X015535Y029428D01*
X015347Y029350D01*
X015204Y029206D01*
X015136Y029043D01*
X015068Y029206D01*
X014925Y029350D01*
X014738Y029428D01*
X014535Y029428D01*
X014347Y029350D01*
X014204Y029206D01*
X014136Y029043D01*
X014068Y029206D01*
X013925Y029350D01*
X013738Y029428D01*
X013535Y029428D01*
X013347Y029350D01*
X013204Y029206D01*
X013134Y029037D01*
X013134Y029037D01*
X013109Y029113D01*
X013072Y029185D01*
X013025Y029250D01*
X012968Y029307D01*
X012903Y029354D01*
X012832Y029390D01*
X012755Y029415D01*
X012676Y029428D01*
X012676Y028958D01*
X012596Y028958D01*
X012596Y029428D01*
X012596Y029428D01*
X012517Y029415D01*
X012440Y029390D01*
X012369Y029354D01*
X012304Y029307D01*
X012247Y029250D01*
X012200Y029185D01*
X012163Y029113D01*
X012139Y029037D01*
X012136Y029021D01*
X012134Y029037D01*
X012109Y029113D01*
X012072Y029185D01*
X012025Y029250D01*
X011968Y029307D01*
X011903Y029354D01*
X011832Y029390D01*
X011755Y029415D01*
X011676Y029428D01*
X011676Y028958D01*
X011596Y028958D01*
X011596Y029428D01*
X011596Y029428D01*
X011517Y029415D01*
X011440Y029390D01*
X011369Y029354D01*
X011304Y029307D01*
X011247Y029250D01*
X011200Y029185D01*
X011163Y029113D01*
X011139Y029037D01*
X011126Y028958D01*
X011126Y028958D01*
X011596Y028958D01*
X011596Y028878D01*
X011126Y028878D01*
X011126Y028877D01*
X011139Y028798D01*
X011163Y028722D01*
X011200Y028650D01*
X011247Y028585D01*
X011304Y028529D01*
X011369Y028481D01*
X011440Y028445D01*
X011517Y028420D01*
X011533Y028418D01*
X011517Y028415D01*
X011440Y028390D01*
X011369Y028354D01*
X011304Y028307D01*
X011247Y028250D01*
X011200Y028185D01*
X011163Y028113D01*
X011139Y028037D01*
X011126Y027958D01*
X011126Y027958D01*
X011596Y027958D01*
X011596Y028408D01*
X011596Y028878D01*
X011676Y028878D01*
X011676Y028958D01*
X012126Y028958D01*
X012596Y028958D01*
X012596Y028878D01*
X011676Y028878D01*
X011676Y027958D01*
X011596Y027958D01*
X011596Y027878D01*
X011126Y027878D01*
X011126Y027877D01*
X011139Y027798D01*
X011163Y027722D01*
X011200Y027650D01*
X011247Y027585D01*
X011304Y027529D01*
X011369Y027481D01*
X011440Y027445D01*
X011517Y027420D01*
X011596Y027408D01*
X011596Y027878D01*
X011676Y027878D01*
X011676Y027958D01*
X012126Y027958D01*
X012596Y027958D01*
X012596Y028428D01*
X012596Y028878D01*
X012676Y028878D01*
X012676Y027958D01*
X012596Y027958D01*
X012596Y027878D01*
X011676Y027878D01*
X011676Y027408D01*
X011676Y027408D01*
X011755Y027420D01*
X011832Y027445D01*
X011903Y027481D01*
X011968Y027529D01*
X012025Y027585D01*
X012072Y027650D01*
X012109Y027722D01*
X012134Y027798D01*
X012136Y027814D01*
X012139Y027798D01*
X012163Y027722D01*
X012200Y027650D01*
X012247Y027585D01*
X012304Y027529D01*
X012369Y027481D01*
X012440Y027445D01*
X012517Y027420D01*
X012596Y027408D01*
X012596Y027878D01*
X012676Y027878D01*
X012676Y027408D01*
X012676Y027408D01*
X012755Y027420D01*
X012832Y027445D01*
X012903Y027481D01*
X012968Y027529D01*
X013025Y027585D01*
X013072Y027650D01*
X013109Y027722D01*
X013134Y027798D01*
X013134Y027798D01*
X013204Y027629D01*
X013347Y027485D01*
X013535Y027408D01*
X013738Y027408D01*
X013925Y027485D01*
X014068Y027629D01*
X014136Y027792D01*
X014204Y027629D01*
X014347Y027485D01*
X014535Y027408D01*
X014738Y027408D01*
X014925Y027485D01*
X015068Y027629D01*
X015136Y027792D01*
X015204Y027629D01*
X015347Y027485D01*
X015535Y027408D01*
X015738Y027408D01*
X015925Y027485D01*
X016068Y027629D01*
X016136Y027792D01*
X016204Y027629D01*
X016347Y027485D01*
X016535Y027408D01*
X016738Y027408D01*
X016925Y027485D01*
X017068Y027629D01*
X017136Y027792D01*
X017204Y027629D01*
X017347Y027485D01*
X017535Y027408D01*
X017738Y027408D01*
X017925Y027485D01*
X018068Y027629D01*
X018136Y027792D01*
X018204Y027629D01*
X018347Y027485D01*
X018535Y027408D01*
X018738Y027408D01*
X018925Y027485D01*
X018946Y027506D01*
X018946Y025219D01*
X018848Y025120D01*
X018848Y024496D01*
X018773Y024496D01*
X018648Y024444D01*
X018553Y024348D01*
X018501Y024223D01*
X018501Y024088D01*
X018553Y023963D01*
X018648Y023868D01*
X018739Y023830D01*
X018025Y023117D01*
X018023Y023118D01*
X017887Y023118D01*
X017762Y023066D01*
X017667Y022970D01*
X017615Y022845D01*
X017615Y022710D01*
X017667Y022585D01*
X017762Y022490D01*
X017853Y022452D01*
X017778Y022377D01*
X016597Y022377D01*
X016485Y022266D01*
X016115Y021896D01*
X016089Y021885D01*
X015993Y021789D01*
X015942Y021664D01*
X015942Y021529D01*
X015993Y021404D01*
X016089Y021308D01*
X016214Y021257D01*
X016349Y021257D01*
X016474Y021308D01*
X016570Y021404D01*
X016622Y021529D01*
X016622Y021664D01*
X016570Y021789D01*
X016558Y021801D01*
X016754Y021997D01*
X017935Y021997D01*
X019707Y023769D01*
X019818Y023880D01*
X019818Y025455D01*
X021479Y027115D01*
X024038Y027115D01*
X024136Y027214D01*
X024140Y027214D01*
X024330Y027404D01*
X024330Y027502D01*
X024347Y027485D01*
X024535Y027408D01*
X024556Y027408D01*
X024556Y026990D01*
X018787Y021221D01*
X018787Y021271D01*
X018735Y021396D01*
X018640Y021491D01*
X018515Y021543D01*
X018379Y021543D01*
X018254Y021491D01*
X018159Y021396D01*
X018107Y021271D01*
X018107Y021196D01*
X015967Y021196D01*
X015881Y021282D01*
X015881Y021701D01*
X015884Y021702D01*
X015979Y021798D01*
X016031Y021923D01*
X016031Y022058D01*
X015979Y022183D01*
X015884Y022279D01*
X015759Y022330D01*
X015624Y022330D01*
X015499Y022279D01*
X015403Y022183D01*
X015351Y022058D01*
X015351Y021923D01*
X015403Y021798D01*
X015499Y021702D01*
X015501Y021701D01*
X015501Y021480D01*
X015490Y021491D01*
X015365Y021543D01*
X015230Y021543D01*
X015105Y021491D01*
X015009Y021396D01*
X014957Y021271D01*
X014957Y021135D01*
X015009Y021010D01*
X015105Y020915D01*
X015230Y020863D01*
X015365Y020863D01*
X015368Y020864D01*
X015429Y020802D01*
X013014Y020802D01*
X011798Y022019D01*
X011799Y022021D01*
X011799Y022156D01*
X011747Y022281D01*
X011651Y022377D01*
X011527Y022429D01*
X011391Y022429D01*
X011266Y022377D01*
X011171Y022281D01*
X011119Y022156D01*
X011119Y022021D01*
X011171Y021896D01*
X011266Y021801D01*
X011391Y021749D01*
X011527Y021749D01*
X011529Y021750D01*
X012745Y020534D01*
X012857Y020422D01*
X015809Y020422D01*
X015816Y020416D01*
X010376Y020416D01*
X010376Y026576D01*
X010535Y026734D01*
X010651Y027015D01*
X010651Y027320D01*
X010535Y027601D01*
X010376Y027759D01*
X010376Y029471D01*
X034392Y029471D01*
X034392Y020416D01*
X034392Y020473D02*
X032004Y020473D01*
X032004Y020551D02*
X034392Y020551D01*
X034392Y020630D02*
X032004Y020630D01*
X032004Y020708D02*
X034392Y020708D01*
X034392Y020787D02*
X032004Y020787D01*
X032004Y020865D02*
X034392Y020865D01*
X034392Y020944D02*
X032004Y020944D01*
X032004Y021022D02*
X034392Y021022D01*
X034392Y021101D02*
X032004Y021101D01*
X032004Y021179D02*
X034392Y021179D01*
X034392Y021258D02*
X032004Y021258D01*
X032004Y021336D02*
X034392Y021336D01*
X034392Y021415D02*
X032004Y021415D01*
X032004Y021493D02*
X034392Y021493D01*
X034392Y021572D02*
X032004Y021572D01*
X032004Y021650D02*
X034392Y021650D01*
X034392Y021729D02*
X032004Y021729D01*
X032004Y021807D02*
X034392Y021807D01*
X034392Y021886D02*
X032004Y021886D01*
X032004Y021964D02*
X034392Y021964D01*
X034392Y022043D02*
X032004Y022043D01*
X032004Y022121D02*
X034392Y022121D01*
X034392Y022200D02*
X032004Y022200D01*
X032004Y022278D02*
X034392Y022278D01*
X034392Y022357D02*
X032004Y022357D01*
X032004Y022435D02*
X034392Y022435D01*
X034392Y022514D02*
X032004Y022514D01*
X032004Y022592D02*
X034392Y022592D01*
X034392Y022671D02*
X032004Y022671D01*
X032004Y022749D02*
X034392Y022749D01*
X034392Y022828D02*
X032004Y022828D01*
X032004Y022906D02*
X034392Y022906D01*
X034392Y022985D02*
X032004Y022985D01*
X032004Y023063D02*
X034392Y023063D01*
X034392Y023142D02*
X032004Y023142D01*
X032004Y023220D02*
X034392Y023220D01*
X034392Y023299D02*
X032004Y023299D01*
X032004Y023377D02*
X034392Y023377D01*
X034392Y023456D02*
X032004Y023456D01*
X032004Y023534D02*
X034392Y023534D01*
X034392Y023613D02*
X032004Y023613D01*
X032004Y023691D02*
X034392Y023691D01*
X034392Y023770D02*
X032004Y023770D01*
X032004Y023848D02*
X034392Y023848D01*
X034392Y023927D02*
X032004Y023927D01*
X032004Y024005D02*
X034392Y024005D01*
X034392Y024084D02*
X032004Y024084D01*
X032004Y024162D02*
X034392Y024162D01*
X034392Y024241D02*
X032004Y024241D01*
X032004Y024319D02*
X034392Y024319D01*
X034392Y024398D02*
X032004Y024398D01*
X032004Y024476D02*
X034392Y024476D01*
X034392Y024555D02*
X032004Y024555D01*
X032004Y024633D02*
X034392Y024633D01*
X034392Y024712D02*
X032004Y024712D01*
X032004Y024790D02*
X034392Y024790D01*
X034392Y024869D02*
X032004Y024869D01*
X032004Y024947D02*
X034392Y024947D01*
X034392Y025026D02*
X032004Y025026D01*
X032004Y025104D02*
X034392Y025104D01*
X034392Y025183D02*
X032004Y025183D01*
X032004Y025261D02*
X034392Y025261D01*
X034392Y025340D02*
X032004Y025340D01*
X032004Y025418D02*
X034392Y025418D01*
X034392Y025497D02*
X032004Y025497D01*
X032004Y025575D02*
X034392Y025575D01*
X034392Y025654D02*
X032004Y025654D01*
X032004Y025732D02*
X034392Y025732D01*
X034392Y025811D02*
X032004Y025811D01*
X032004Y025889D02*
X034392Y025889D01*
X034392Y025968D02*
X032004Y025968D01*
X032004Y026046D02*
X034392Y026046D01*
X034392Y026125D02*
X032004Y026125D01*
X032004Y026203D02*
X034392Y026203D01*
X034392Y026282D02*
X032004Y026282D01*
X032004Y026360D02*
X034392Y026360D01*
X034392Y026439D02*
X032004Y026439D01*
X032004Y026517D02*
X034392Y026517D01*
X034392Y026596D02*
X032004Y026596D01*
X032004Y026674D02*
X034392Y026674D01*
X034392Y026753D02*
X032004Y026753D01*
X032004Y026831D02*
X034392Y026831D01*
X034392Y026910D02*
X032004Y026910D01*
X032004Y026988D02*
X034392Y026988D01*
X034392Y027067D02*
X032004Y027067D01*
X032004Y027145D02*
X034392Y027145D01*
X034392Y027224D02*
X032004Y027224D01*
X032004Y027302D02*
X034392Y027302D01*
X034392Y027381D02*
X032004Y027381D01*
X032004Y027459D02*
X032410Y027459D01*
X032295Y027538D02*
X032004Y027538D01*
X032056Y027616D02*
X032216Y027616D01*
X032176Y027695D02*
X032096Y027695D01*
X032128Y027773D02*
X032144Y027773D01*
X031564Y027408D02*
X031564Y020416D01*
X030936Y020416D01*
X030940Y020420D01*
X030992Y020545D01*
X030992Y020680D01*
X030940Y020805D01*
X030844Y020901D01*
X030719Y020952D01*
X030584Y020952D01*
X030459Y020901D01*
X030364Y020805D01*
X030312Y020680D01*
X030312Y020545D01*
X030313Y020542D01*
X030186Y020416D01*
X026124Y020416D01*
X026124Y020409D01*
X023959Y020409D01*
X023959Y020416D01*
X021669Y020416D01*
X021787Y020534D01*
X021787Y023290D01*
X025219Y026722D01*
X028709Y026722D01*
X029436Y027449D01*
X029535Y027408D01*
X029738Y027408D01*
X029925Y027485D01*
X030068Y027629D01*
X030136Y027792D01*
X030204Y027629D01*
X030347Y027485D01*
X030535Y027408D01*
X030738Y027408D01*
X030925Y027485D01*
X031068Y027629D01*
X031136Y027792D01*
X031204Y027629D01*
X031347Y027485D01*
X031535Y027408D01*
X031564Y027408D01*
X031564Y027381D02*
X029368Y027381D01*
X029289Y027302D02*
X031564Y027302D01*
X031564Y027224D02*
X029211Y027224D01*
X029132Y027145D02*
X031564Y027145D01*
X031564Y027067D02*
X029054Y027067D01*
X028975Y026988D02*
X031564Y026988D01*
X031564Y026910D02*
X028897Y026910D01*
X028818Y026831D02*
X031564Y026831D01*
X031564Y026753D02*
X028740Y026753D01*
X029862Y027459D02*
X030410Y027459D01*
X030295Y027538D02*
X029978Y027538D01*
X030056Y027616D02*
X030216Y027616D01*
X030176Y027695D02*
X030096Y027695D01*
X030128Y027773D02*
X030144Y027773D01*
X030862Y027459D02*
X031410Y027459D01*
X031295Y027538D02*
X030978Y027538D01*
X031056Y027616D02*
X031216Y027616D01*
X031176Y027695D02*
X031096Y027695D01*
X031128Y027773D02*
X031144Y027773D01*
X032862Y027459D02*
X033412Y027459D01*
X033295Y027538D02*
X032978Y027538D01*
X033056Y027616D02*
X033225Y027616D01*
X033177Y027695D02*
X033096Y027695D01*
X033128Y027773D02*
X033147Y027773D01*
X033139Y027798D02*
X033139Y027798D01*
X033596Y027773D02*
X033676Y027773D01*
X033676Y027695D02*
X033596Y027695D01*
X033596Y027616D02*
X033676Y027616D01*
X033676Y027538D02*
X033596Y027538D01*
X033596Y027459D02*
X033676Y027459D01*
X033676Y027408D02*
X033755Y027420D01*
X033832Y027445D01*
X033903Y027481D01*
X033968Y027529D01*
X034025Y027585D01*
X034072Y027650D01*
X034109Y027722D01*
X034134Y027798D01*
X034146Y027877D01*
X034146Y027878D01*
X033676Y027878D01*
X033676Y027408D01*
X033676Y027408D01*
X033596Y027408D02*
X033596Y027408D01*
X033860Y027459D02*
X034392Y027459D01*
X034392Y027538D02*
X033978Y027538D01*
X034048Y027616D02*
X034392Y027616D01*
X034392Y027695D02*
X034095Y027695D01*
X034125Y027773D02*
X034392Y027773D01*
X034392Y027852D02*
X034142Y027852D01*
X034146Y027958D02*
X034146Y027958D01*
X034134Y028037D01*
X034109Y028113D01*
X034072Y028185D01*
X034025Y028250D01*
X033968Y028307D01*
X033903Y028354D01*
X033832Y028390D01*
X033778Y028408D01*
X034024Y028408D01*
X034060Y028417D01*
X034092Y028436D01*
X034118Y028462D01*
X034137Y028494D01*
X034146Y028529D01*
X034146Y028878D01*
X033676Y028878D01*
X033676Y027958D01*
X034146Y027958D01*
X034138Y028009D02*
X034392Y028009D01*
X034392Y028087D02*
X034117Y028087D01*
X034082Y028166D02*
X034392Y028166D01*
X034392Y028244D02*
X034029Y028244D01*
X033946Y028323D02*
X034392Y028323D01*
X034392Y028401D02*
X033798Y028401D01*
X033676Y028401D02*
X033596Y028401D01*
X033596Y028323D02*
X033676Y028323D01*
X033676Y028244D02*
X033596Y028244D01*
X033596Y028166D02*
X033676Y028166D01*
X033676Y028087D02*
X033596Y028087D01*
X033596Y028009D02*
X033676Y028009D01*
X033676Y027930D02*
X034392Y027930D01*
X034572Y027930D02*
X035291Y027930D01*
X035227Y028009D02*
X034572Y028009D01*
X034572Y028087D02*
X035195Y028087D01*
X035162Y028166D02*
X034572Y028166D01*
X034572Y028244D02*
X035130Y028244D01*
X035121Y028323D02*
X034572Y028323D01*
X034572Y028401D02*
X035121Y028401D01*
X035121Y028480D02*
X034572Y028480D01*
X034572Y028558D02*
X035121Y028558D01*
X035149Y028637D02*
X034572Y028637D01*
X034572Y028715D02*
X035181Y028715D01*
X035214Y028794D02*
X034572Y028794D01*
X034572Y028872D02*
X035259Y028872D01*
X035337Y028951D02*
X034572Y028951D01*
X034572Y029029D02*
X035416Y029029D01*
X035553Y029108D02*
X034572Y029108D01*
X034572Y029186D02*
X045787Y029186D01*
X045767Y029235D02*
X045888Y028944D01*
X046110Y028722D01*
X046400Y028602D01*
X046714Y028602D01*
X047005Y028722D01*
X047227Y028944D01*
X047347Y029235D01*
X047347Y029549D01*
X047227Y029839D01*
X047005Y030062D01*
X046714Y030182D01*
X046400Y030182D01*
X046110Y030062D01*
X045888Y029839D01*
X045767Y029549D01*
X045767Y029235D01*
X045767Y029265D02*
X034572Y029265D01*
X034572Y029343D02*
X045767Y029343D01*
X045767Y029422D02*
X034572Y029422D01*
X034572Y029500D02*
X045767Y029500D01*
X045780Y029579D02*
X034538Y029579D01*
X034392Y029422D02*
X034046Y029422D01*
X034060Y029418D02*
X034024Y029428D01*
X033676Y029428D01*
X033676Y028958D01*
X034146Y028958D01*
X034146Y029306D01*
X034137Y029342D01*
X034118Y029374D01*
X034092Y029400D01*
X034060Y029418D01*
X034136Y029343D02*
X034392Y029343D01*
X034392Y029265D02*
X034146Y029265D01*
X034146Y029186D02*
X034392Y029186D01*
X034392Y029108D02*
X034146Y029108D01*
X034146Y029029D02*
X034392Y029029D01*
X034392Y028951D02*
X033676Y028951D01*
X033676Y029029D02*
X033596Y029029D01*
X033596Y029108D02*
X033676Y029108D01*
X033676Y029186D02*
X033596Y029186D01*
X033596Y029265D02*
X033676Y029265D01*
X033676Y029343D02*
X033596Y029343D01*
X033596Y029422D02*
X033676Y029422D01*
X033226Y029422D02*
X032751Y029422D01*
X032932Y029343D02*
X033137Y029343D01*
X033126Y029265D02*
X033010Y029265D01*
X033077Y029186D02*
X033126Y029186D01*
X033126Y029108D02*
X033109Y029108D01*
X033596Y028872D02*
X033676Y028872D01*
X033676Y028794D02*
X033596Y028794D01*
X033596Y028715D02*
X033676Y028715D01*
X033676Y028637D02*
X033596Y028637D01*
X033596Y028558D02*
X033676Y028558D01*
X033676Y028480D02*
X033596Y028480D01*
X034129Y028480D02*
X034392Y028480D01*
X034392Y028558D02*
X034146Y028558D01*
X034146Y028637D02*
X034392Y028637D01*
X034392Y028715D02*
X034146Y028715D01*
X034146Y028794D02*
X034392Y028794D01*
X034392Y028872D02*
X034146Y028872D01*
X034572Y027852D02*
X035370Y027852D01*
X035448Y027773D02*
X034572Y027773D01*
X034572Y027695D02*
X035632Y027695D01*
X036610Y028166D02*
X047715Y028166D01*
X047715Y028244D02*
X036642Y028244D01*
X036651Y028323D02*
X047715Y028323D01*
X047715Y028401D02*
X036651Y028401D01*
X036651Y028480D02*
X047715Y028480D01*
X047715Y028558D02*
X036651Y028558D01*
X036623Y028637D02*
X046316Y028637D01*
X046127Y028715D02*
X036591Y028715D01*
X036558Y028794D02*
X046038Y028794D01*
X045960Y028872D02*
X036513Y028872D01*
X036435Y028951D02*
X045885Y028951D01*
X045852Y029029D02*
X036356Y029029D01*
X036219Y029108D02*
X045820Y029108D01*
X045812Y029657D02*
X002657Y029657D01*
X002689Y029579D02*
X010230Y029579D01*
X010196Y029500D02*
X002702Y029500D01*
X002702Y029549D02*
X002581Y029839D01*
X002359Y030062D01*
X002069Y030182D01*
X001755Y030182D01*
X001464Y030062D01*
X001242Y029839D01*
X001122Y029549D01*
X001122Y029235D01*
X001242Y028944D01*
X001464Y028722D01*
X001755Y028602D01*
X002069Y028602D01*
X002359Y028722D01*
X002581Y028944D01*
X002702Y029235D01*
X002702Y029549D01*
X002702Y029422D02*
X010196Y029422D01*
X010196Y029343D02*
X002702Y029343D01*
X002702Y029265D02*
X010196Y029265D01*
X010196Y029186D02*
X002682Y029186D01*
X002649Y029108D02*
X010196Y029108D01*
X010196Y029029D02*
X002617Y029029D01*
X002584Y028951D02*
X010196Y028951D01*
X010196Y028872D02*
X002509Y028872D01*
X002431Y028794D02*
X010196Y028794D01*
X010196Y028715D02*
X002342Y028715D01*
X002153Y028637D02*
X010196Y028637D01*
X010196Y028558D02*
X000754Y028558D01*
X000754Y028480D02*
X010196Y028480D01*
X010196Y028401D02*
X000754Y028401D01*
X000754Y028323D02*
X010196Y028323D01*
X010196Y028244D02*
X000754Y028244D01*
X000754Y028166D02*
X010196Y028166D01*
X010196Y028087D02*
X000754Y028087D01*
X000754Y028009D02*
X010196Y028009D01*
X010196Y027930D02*
X010044Y027930D01*
X009728Y027930D02*
X000754Y027930D01*
X000754Y027852D02*
X009539Y027852D01*
X009410Y027773D02*
X000754Y027773D01*
X000754Y027695D02*
X009331Y027695D01*
X009253Y027616D02*
X000754Y027616D01*
X000754Y027538D02*
X009211Y027538D01*
X009179Y027459D02*
X000754Y027459D01*
X000754Y027381D02*
X009146Y027381D01*
X009121Y027302D02*
X000754Y027302D01*
X000754Y027224D02*
X009121Y027224D01*
X009121Y027145D02*
X000754Y027145D01*
X000754Y027067D02*
X009121Y027067D01*
X009132Y026988D02*
X000754Y026988D01*
X000754Y026910D02*
X009165Y026910D01*
X009197Y026831D02*
X000754Y026831D01*
X000754Y026753D02*
X009230Y026753D01*
X009297Y026674D02*
X000754Y026674D01*
X000754Y026596D02*
X009376Y026596D01*
X009457Y026517D02*
X000754Y026517D01*
X000754Y026439D02*
X009646Y026439D01*
X010126Y026439D02*
X010196Y026439D01*
X010196Y026360D02*
X000754Y026360D01*
X000754Y026282D02*
X010196Y026282D01*
X010196Y026203D02*
X000754Y026203D01*
X000754Y026125D02*
X010196Y026125D01*
X010196Y026046D02*
X000754Y026046D01*
X000754Y025968D02*
X010196Y025968D01*
X010196Y025889D02*
X000754Y025889D01*
X000754Y025811D02*
X010196Y025811D01*
X010196Y025732D02*
X000754Y025732D01*
X000754Y025654D02*
X010196Y025654D01*
X010196Y025575D02*
X000754Y025575D01*
X000754Y025497D02*
X010196Y025497D01*
X010196Y025418D02*
X000754Y025418D01*
X000754Y025340D02*
X010196Y025340D01*
X010196Y025261D02*
X000754Y025261D01*
X000754Y025183D02*
X010196Y025183D01*
X010196Y025104D02*
X000754Y025104D01*
X000754Y025026D02*
X010196Y025026D01*
X010196Y024947D02*
X000754Y024947D01*
X000754Y024869D02*
X010196Y024869D01*
X010196Y024790D02*
X000754Y024790D01*
X000754Y024712D02*
X010196Y024712D01*
X010196Y024633D02*
X000754Y024633D01*
X000754Y024555D02*
X010196Y024555D01*
X010196Y024476D02*
X000754Y024476D01*
X000754Y024398D02*
X010196Y024398D01*
X010196Y024319D02*
X000754Y024319D01*
X000754Y024241D02*
X010196Y024241D01*
X010196Y024162D02*
X000754Y024162D01*
X000754Y024084D02*
X010196Y024084D01*
X010196Y024005D02*
X000754Y024005D01*
X000754Y023927D02*
X010196Y023927D01*
X010196Y023848D02*
X000754Y023848D01*
X000754Y023770D02*
X010196Y023770D01*
X010196Y023691D02*
X000754Y023691D01*
X000754Y023613D02*
X010196Y023613D01*
X010196Y023534D02*
X000754Y023534D01*
X000754Y023456D02*
X010196Y023456D01*
X010196Y023377D02*
X000754Y023377D01*
X000754Y023299D02*
X010196Y023299D01*
X010196Y023220D02*
X000754Y023220D01*
X000754Y023142D02*
X010196Y023142D01*
X010196Y023063D02*
X000754Y023063D01*
X000754Y022985D02*
X010196Y022985D01*
X010196Y022906D02*
X000754Y022906D01*
X000754Y022828D02*
X010196Y022828D01*
X010196Y022749D02*
X000754Y022749D01*
X000754Y022671D02*
X010196Y022671D01*
X010196Y022592D02*
X000754Y022592D01*
X000754Y022514D02*
X010196Y022514D01*
X010196Y022435D02*
X000754Y022435D01*
X000754Y022357D02*
X010196Y022357D01*
X010196Y022278D02*
X000754Y022278D01*
X000754Y022200D02*
X010196Y022200D01*
X010196Y022121D02*
X000754Y022121D01*
X000754Y022043D02*
X010196Y022043D01*
X010196Y021964D02*
X000754Y021964D01*
X000754Y021886D02*
X010196Y021886D01*
X010196Y021807D02*
X000754Y021807D01*
X000754Y021729D02*
X010196Y021729D01*
X010196Y021650D02*
X000754Y021650D01*
X000754Y021572D02*
X010196Y021572D01*
X010196Y021493D02*
X000754Y021493D01*
X000754Y021415D02*
X010196Y021415D01*
X010196Y021336D02*
X000754Y021336D01*
X000754Y021258D02*
X010196Y021258D01*
X010196Y021179D02*
X000754Y021179D01*
X000754Y021101D02*
X010196Y021101D01*
X010196Y021022D02*
X000754Y021022D01*
X000754Y020944D02*
X010196Y020944D01*
X010196Y020865D02*
X000754Y020865D01*
X000754Y020787D02*
X010196Y020787D01*
X010196Y020708D02*
X000754Y020708D01*
X000754Y020630D02*
X010196Y020630D01*
X010196Y020551D02*
X000754Y020551D01*
X000754Y020473D02*
X010196Y020473D01*
X010196Y020394D02*
X000754Y020394D01*
X000754Y020316D02*
X010221Y020316D01*
X010300Y020237D02*
X000754Y020237D01*
X000754Y020159D02*
X013644Y020159D01*
X013566Y020080D02*
X000754Y020080D01*
X000754Y020002D02*
X013519Y020002D01*
X013487Y019923D02*
X000754Y019923D01*
X000754Y019845D02*
X013465Y019845D01*
X013465Y019766D02*
X000754Y019766D01*
X000754Y019688D02*
X013465Y019688D01*
X013461Y019609D02*
X013488Y019609D01*
X013642Y019374D02*
X013648Y019374D01*
X013675Y019295D02*
X013783Y019295D01*
X013681Y019217D02*
X022809Y019217D01*
X022769Y019295D02*
X014166Y019295D01*
X014302Y019374D02*
X022736Y019374D01*
X022719Y019452D02*
X022477Y019452D01*
X022555Y019531D02*
X022719Y019531D01*
X022719Y019609D02*
X022634Y019609D01*
X022712Y019688D02*
X022747Y019688D01*
X023026Y020002D02*
X023064Y020002D01*
X023393Y020002D02*
X023779Y020002D01*
X023779Y019923D02*
X023545Y019923D01*
X023623Y019845D02*
X023779Y019845D01*
X023779Y019766D02*
X023678Y019766D01*
X023710Y019688D02*
X023779Y019688D01*
X023779Y019609D02*
X023739Y019609D01*
X023739Y019531D02*
X023779Y019531D01*
X023779Y019452D02*
X023739Y019452D01*
X023721Y019374D02*
X023779Y019374D01*
X023779Y019295D02*
X023688Y019295D01*
X023649Y019217D02*
X023779Y019217D01*
X023779Y019138D02*
X023570Y019138D01*
X023455Y019060D02*
X023779Y019060D01*
X023779Y018981D02*
X023534Y018981D01*
X023612Y018903D02*
X023779Y018903D01*
X023779Y018824D02*
X023673Y018824D01*
X023706Y018746D02*
X023779Y018746D01*
X023779Y018667D02*
X023738Y018667D01*
X023739Y018589D02*
X023779Y018589D01*
X023779Y018510D02*
X023739Y018510D01*
X023725Y018432D02*
X023779Y018432D01*
X023779Y018353D02*
X023693Y018353D01*
X023659Y018275D02*
X023779Y018275D01*
X023779Y018196D02*
X023581Y018196D01*
X023481Y018118D02*
X023779Y018118D01*
X023779Y018039D02*
X023417Y018039D01*
X023554Y017961D02*
X023779Y017961D01*
X023779Y017882D02*
X023633Y017882D01*
X023682Y017804D02*
X023779Y017804D01*
X023779Y017725D02*
X023714Y017725D01*
X023739Y017647D02*
X023779Y017647D01*
X023779Y017568D02*
X023739Y017568D01*
X023739Y017490D02*
X023779Y017490D01*
X023779Y017411D02*
X023717Y017411D01*
X023684Y017333D02*
X023779Y017333D01*
X023779Y017254D02*
X023639Y017254D01*
X023560Y017176D02*
X023779Y017176D01*
X023779Y017097D02*
X023432Y017097D01*
X023428Y017019D02*
X023779Y017019D01*
X023779Y016940D02*
X023559Y016940D01*
X023638Y016862D02*
X023779Y016862D01*
X023779Y016783D02*
X023684Y016783D01*
X023716Y016705D02*
X023779Y016705D01*
X023779Y016626D02*
X023739Y016626D01*
X023739Y016548D02*
X023779Y016548D01*
X023779Y016469D02*
X023739Y016469D01*
X023715Y016391D02*
X023779Y016391D01*
X023779Y016312D02*
X023682Y016312D01*
X023634Y016234D02*
X023779Y016234D01*
X023779Y016155D02*
X023556Y016155D01*
X023420Y016077D02*
X023779Y016077D01*
X023779Y015998D02*
X016275Y015998D01*
X016275Y015920D02*
X023779Y015920D01*
X023779Y015841D02*
X016275Y015841D01*
X016275Y015763D02*
X023779Y015763D01*
X023779Y015684D02*
X016275Y015684D01*
X016275Y015606D02*
X023779Y015606D01*
X023779Y015527D02*
X016275Y015527D01*
X016275Y015449D02*
X023779Y015449D01*
X023779Y015370D02*
X016275Y015370D01*
X016275Y015292D02*
X023779Y015292D01*
X023779Y015213D02*
X017210Y015213D01*
X017262Y015192D02*
X017137Y015244D01*
X017002Y015244D01*
X016877Y015192D01*
X016781Y015096D01*
X016729Y014971D01*
X016729Y014836D01*
X016781Y014711D01*
X016877Y014616D01*
X016879Y014614D01*
X016879Y014181D01*
X016275Y014786D01*
X016275Y016780D01*
X016277Y016781D01*
X016373Y016877D01*
X016425Y017002D01*
X016425Y017137D01*
X016373Y017262D01*
X016277Y017357D01*
X016153Y017409D01*
X016017Y017409D01*
X015892Y017357D01*
X015797Y017262D01*
X015745Y017137D01*
X015745Y017002D01*
X015797Y016877D01*
X015892Y016781D01*
X015895Y016780D01*
X015895Y014628D01*
X018454Y012069D01*
X018565Y011958D01*
X023028Y011958D01*
X023028Y011883D01*
X023080Y011758D01*
X023176Y011663D01*
X023301Y011611D01*
X023436Y011611D01*
X023561Y011663D01*
X023657Y011758D01*
X023708Y011883D01*
X023708Y012019D01*
X023657Y012144D01*
X023561Y012239D01*
X023544Y012246D01*
X023561Y012253D01*
X023657Y012349D01*
X023708Y012474D01*
X023708Y012609D01*
X023657Y012734D01*
X023561Y012830D01*
X023436Y012882D01*
X023301Y012882D01*
X023176Y012830D01*
X023080Y012734D01*
X023028Y012609D01*
X023028Y012535D01*
X018919Y012535D01*
X017259Y014195D01*
X017259Y014614D01*
X017262Y014616D01*
X017357Y014711D01*
X017409Y014836D01*
X017409Y014971D01*
X017357Y015096D01*
X017262Y015192D01*
X017319Y015135D02*
X023779Y015135D01*
X023779Y015056D02*
X017374Y015056D01*
X017407Y014978D02*
X023779Y014978D01*
X023779Y014899D02*
X017409Y014899D01*
X017403Y014821D02*
X023779Y014821D01*
X023779Y014742D02*
X017370Y014742D01*
X017310Y014664D02*
X023779Y014664D01*
X023779Y014585D02*
X017259Y014585D01*
X017259Y014507D02*
X023779Y014507D01*
X023779Y014428D02*
X017259Y014428D01*
X017259Y014350D02*
X023779Y014350D01*
X023779Y014271D02*
X017259Y014271D01*
X017261Y014193D02*
X023779Y014193D01*
X023779Y014114D02*
X017340Y014114D01*
X017418Y014036D02*
X023779Y014036D01*
X023779Y013957D02*
X017497Y013957D01*
X017575Y013879D02*
X023779Y013879D01*
X023779Y013800D02*
X017654Y013800D01*
X017732Y013722D02*
X023779Y013722D01*
X023779Y013643D02*
X017811Y013643D01*
X017889Y013565D02*
X023779Y013565D01*
X023779Y013486D02*
X017968Y013486D01*
X018046Y013408D02*
X023779Y013408D01*
X023779Y013329D02*
X018125Y013329D01*
X018203Y013251D02*
X023779Y013251D01*
X023779Y013172D02*
X018282Y013172D01*
X018360Y013094D02*
X023779Y013094D01*
X023779Y013015D02*
X018439Y013015D01*
X018517Y012937D02*
X023779Y012937D01*
X023779Y012858D02*
X023492Y012858D01*
X023611Y012780D02*
X023779Y012780D01*
X023779Y012701D02*
X023670Y012701D01*
X023703Y012623D02*
X023779Y012623D01*
X023779Y012544D02*
X023708Y012544D01*
X023705Y012466D02*
X023779Y012466D01*
X023779Y012387D02*
X023672Y012387D01*
X023616Y012309D02*
X023779Y012309D01*
X023779Y012230D02*
X023570Y012230D01*
X023648Y012152D02*
X023779Y012152D01*
X023779Y012073D02*
X023686Y012073D01*
X023708Y011995D02*
X023779Y011995D01*
X023779Y011916D02*
X023708Y011916D01*
X023689Y011838D02*
X023779Y011838D01*
X023779Y011759D02*
X023657Y011759D01*
X023579Y011681D02*
X023779Y011681D01*
X023779Y011602D02*
X000754Y011602D01*
X000754Y011524D02*
X023779Y011524D01*
X023158Y011681D02*
X000754Y011681D01*
X000754Y011759D02*
X023080Y011759D01*
X023047Y011838D02*
X000754Y011838D01*
X000754Y011916D02*
X023028Y011916D01*
X023028Y012544D02*
X018910Y012544D01*
X018831Y012623D02*
X023034Y012623D01*
X023066Y012701D02*
X018753Y012701D01*
X018674Y012780D02*
X023126Y012780D01*
X023244Y012858D02*
X018596Y012858D01*
X018136Y012387D02*
X000754Y012387D01*
X000754Y012309D02*
X018214Y012309D01*
X018293Y012230D02*
X000754Y012230D01*
X000754Y012152D02*
X018371Y012152D01*
X018450Y012073D02*
X000754Y012073D01*
X000754Y011995D02*
X018528Y011995D01*
X018454Y012069D02*
X018454Y012069D01*
X018057Y012466D02*
X000754Y012466D01*
X000754Y012544D02*
X017979Y012544D01*
X017900Y012623D02*
X000754Y012623D01*
X000754Y012701D02*
X017822Y012701D01*
X017743Y012780D02*
X000754Y012780D01*
X000754Y012858D02*
X017665Y012858D01*
X017586Y012937D02*
X000754Y012937D01*
X000754Y013015D02*
X017508Y013015D01*
X017429Y013094D02*
X000754Y013094D01*
X000754Y013172D02*
X017351Y013172D01*
X017272Y013251D02*
X000754Y013251D01*
X000754Y013329D02*
X017194Y013329D01*
X017115Y013408D02*
X000754Y013408D01*
X000754Y013486D02*
X017037Y013486D01*
X016958Y013565D02*
X000754Y013565D01*
X000754Y013643D02*
X016880Y013643D01*
X016801Y013722D02*
X000754Y013722D01*
X000754Y013800D02*
X016723Y013800D01*
X016644Y013879D02*
X000754Y013879D01*
X000754Y013957D02*
X016566Y013957D01*
X016487Y014036D02*
X000754Y014036D01*
X000754Y014114D02*
X016409Y014114D01*
X016330Y014193D02*
X000754Y014193D01*
X000754Y014271D02*
X016252Y014271D01*
X016173Y014350D02*
X000754Y014350D01*
X000754Y014428D02*
X016095Y014428D01*
X016016Y014507D02*
X000754Y014507D01*
X000754Y014585D02*
X015938Y014585D01*
X015895Y014664D02*
X000754Y014664D01*
X000754Y014742D02*
X015895Y014742D01*
X015895Y014821D02*
X000754Y014821D01*
X000754Y014899D02*
X015895Y014899D01*
X015895Y014978D02*
X000754Y014978D01*
X000754Y015056D02*
X015895Y015056D01*
X015895Y015135D02*
X000754Y015135D01*
X000754Y015213D02*
X015895Y015213D01*
X015895Y015292D02*
X000754Y015292D01*
X000754Y015370D02*
X015895Y015370D01*
X015895Y015449D02*
X000754Y015449D01*
X000754Y015527D02*
X015895Y015527D01*
X015895Y015606D02*
X000754Y015606D01*
X000754Y015684D02*
X015895Y015684D01*
X015895Y015763D02*
X000754Y015763D01*
X000754Y015841D02*
X015895Y015841D01*
X015895Y015920D02*
X000754Y015920D01*
X000754Y015998D02*
X015895Y015998D01*
X015895Y016077D02*
X000754Y016077D01*
X000754Y016155D02*
X015895Y016155D01*
X015895Y016234D02*
X000754Y016234D01*
X000754Y016312D02*
X005336Y016312D01*
X005338Y016311D02*
X005414Y016286D01*
X005494Y016274D01*
X005494Y016744D01*
X005574Y016744D01*
X005574Y016824D01*
X006044Y016824D01*
X006031Y016903D01*
X006006Y016979D01*
X005970Y017051D01*
X005923Y017116D01*
X005866Y017173D01*
X005801Y017220D01*
X005729Y017256D01*
X005653Y017281D01*
X005823Y017351D01*
X005966Y017495D01*
X006044Y017682D01*
X006044Y017885D01*
X005966Y018073D01*
X005823Y018216D01*
X005635Y018294D01*
X005432Y018294D01*
X005245Y018216D01*
X005101Y018073D01*
X005024Y017885D01*
X005024Y017682D01*
X005101Y017495D01*
X005245Y017351D01*
X005414Y017281D01*
X005414Y017281D01*
X005338Y017256D01*
X005266Y017220D01*
X005201Y017173D01*
X005145Y017116D01*
X005098Y017051D01*
X005061Y016979D01*
X005036Y016903D01*
X005024Y016824D01*
X005024Y016824D01*
X005494Y016824D01*
X005494Y016744D01*
X005024Y016744D01*
X005024Y016744D01*
X005036Y016664D01*
X005061Y016588D01*
X005098Y016516D01*
X005145Y016451D01*
X005201Y016395D01*
X005266Y016348D01*
X005338Y016311D01*
X005207Y016391D02*
X000754Y016391D01*
X000754Y016469D02*
X005132Y016469D01*
X005082Y016548D02*
X000754Y016548D01*
X000754Y016626D02*
X005049Y016626D01*
X005030Y016705D02*
X000754Y016705D01*
X000754Y016783D02*
X005494Y016783D01*
X005494Y016705D02*
X005574Y016705D01*
X005574Y016744D02*
X005574Y016274D01*
X005653Y016286D01*
X005729Y016311D01*
X005801Y016348D01*
X005866Y016395D01*
X005923Y016451D01*
X005970Y016516D01*
X006006Y016588D01*
X006031Y016664D01*
X006044Y016744D01*
X005574Y016744D01*
X005574Y016783D02*
X015890Y016783D01*
X015895Y016705D02*
X006038Y016705D01*
X006044Y016744D02*
X006044Y016744D01*
X006044Y016824D02*
X006044Y016824D01*
X006038Y016862D02*
X015811Y016862D01*
X015770Y016940D02*
X006019Y016940D01*
X005986Y017019D02*
X015745Y017019D01*
X015745Y017097D02*
X005936Y017097D01*
X005862Y017176D02*
X015761Y017176D01*
X015794Y017254D02*
X005734Y017254D01*
X005653Y017281D02*
X005653Y017281D01*
X005778Y017333D02*
X015868Y017333D01*
X016302Y017333D02*
X022773Y017333D01*
X022740Y017411D02*
X005883Y017411D01*
X005961Y017490D02*
X022719Y017490D01*
X022719Y017568D02*
X005996Y017568D01*
X006029Y017647D02*
X022719Y017647D01*
X022743Y017725D02*
X016575Y017725D01*
X016710Y017804D02*
X022775Y017804D01*
X022824Y017882D02*
X016776Y017882D01*
X016808Y017961D02*
X020423Y017961D01*
X020343Y018039D02*
X016819Y018039D01*
X016588Y018432D02*
X000754Y018432D01*
X000754Y018510D02*
X020392Y018510D01*
X020833Y018510D02*
X022719Y018510D01*
X022732Y018432D02*
X020905Y018432D01*
X020938Y018353D02*
X022764Y018353D01*
X022798Y018275D02*
X020952Y018275D01*
X020952Y018196D02*
X022876Y018196D01*
X022976Y018118D02*
X020926Y018118D01*
X020882Y018039D02*
X023040Y018039D01*
X022903Y017961D02*
X020802Y017961D01*
X019929Y019452D02*
X014380Y019452D01*
X014428Y019531D02*
X019851Y019531D01*
X019772Y019609D02*
X015731Y019609D01*
X015846Y019688D02*
X019694Y019688D01*
X021726Y020473D02*
X030243Y020473D01*
X030312Y020551D02*
X021787Y020551D01*
X021787Y020630D02*
X030312Y020630D01*
X030323Y020708D02*
X021787Y020708D01*
X021787Y020787D02*
X030356Y020787D01*
X030424Y020865D02*
X021787Y020865D01*
X021787Y020944D02*
X030563Y020944D01*
X030740Y020944D02*
X031564Y020944D01*
X031564Y021022D02*
X021787Y021022D01*
X021787Y021101D02*
X031564Y021101D01*
X031564Y021179D02*
X021787Y021179D01*
X021787Y021258D02*
X031564Y021258D01*
X031564Y021336D02*
X021787Y021336D01*
X021787Y021415D02*
X031564Y021415D01*
X031564Y021493D02*
X021787Y021493D01*
X021787Y021572D02*
X031564Y021572D01*
X031564Y021650D02*
X021787Y021650D01*
X021787Y021729D02*
X031564Y021729D01*
X031564Y021807D02*
X021787Y021807D01*
X021787Y021886D02*
X031564Y021886D01*
X031564Y021964D02*
X021787Y021964D01*
X021787Y022043D02*
X031564Y022043D01*
X031564Y022121D02*
X021787Y022121D01*
X021787Y022200D02*
X031564Y022200D01*
X031564Y022278D02*
X021787Y022278D01*
X021787Y022357D02*
X031564Y022357D01*
X031564Y022435D02*
X021787Y022435D01*
X021787Y022514D02*
X031564Y022514D01*
X031564Y022592D02*
X021787Y022592D01*
X021787Y022671D02*
X031564Y022671D01*
X031564Y022749D02*
X021787Y022749D01*
X021787Y022828D02*
X031564Y022828D01*
X031564Y022906D02*
X021787Y022906D01*
X021787Y022985D02*
X031564Y022985D01*
X031564Y023063D02*
X021787Y023063D01*
X021787Y023142D02*
X031564Y023142D01*
X031564Y023220D02*
X021787Y023220D01*
X021796Y023299D02*
X031564Y023299D01*
X031564Y023377D02*
X021874Y023377D01*
X021953Y023456D02*
X031564Y023456D01*
X031564Y023534D02*
X022031Y023534D01*
X022110Y023613D02*
X031564Y023613D01*
X031564Y023691D02*
X022188Y023691D01*
X022267Y023770D02*
X031564Y023770D01*
X031564Y023848D02*
X022345Y023848D01*
X022424Y023927D02*
X031564Y023927D01*
X031564Y024005D02*
X022502Y024005D01*
X022581Y024084D02*
X031564Y024084D01*
X031564Y024162D02*
X022659Y024162D01*
X022738Y024241D02*
X031564Y024241D01*
X031564Y024319D02*
X022816Y024319D01*
X022895Y024398D02*
X031564Y024398D01*
X031564Y024476D02*
X022973Y024476D01*
X023052Y024555D02*
X031564Y024555D01*
X031564Y024633D02*
X023130Y024633D01*
X023209Y024712D02*
X031564Y024712D01*
X031564Y024790D02*
X023287Y024790D01*
X023366Y024869D02*
X031564Y024869D01*
X031564Y024947D02*
X023444Y024947D01*
X023523Y025026D02*
X031564Y025026D01*
X031564Y025104D02*
X023601Y025104D01*
X023680Y025183D02*
X031564Y025183D01*
X031564Y025261D02*
X023758Y025261D01*
X023837Y025340D02*
X031564Y025340D01*
X031564Y025418D02*
X023915Y025418D01*
X023994Y025497D02*
X031564Y025497D01*
X031564Y025575D02*
X024072Y025575D01*
X024151Y025654D02*
X031564Y025654D01*
X031564Y025732D02*
X024229Y025732D01*
X024308Y025811D02*
X031564Y025811D01*
X031564Y025889D02*
X024386Y025889D01*
X024465Y025968D02*
X031564Y025968D01*
X031564Y026046D02*
X024543Y026046D01*
X024622Y026125D02*
X031564Y026125D01*
X031564Y026203D02*
X024700Y026203D01*
X024779Y026282D02*
X031564Y026282D01*
X031564Y026360D02*
X024857Y026360D01*
X024936Y026439D02*
X031564Y026439D01*
X031564Y026517D02*
X025014Y026517D01*
X025093Y026596D02*
X031564Y026596D01*
X031564Y026674D02*
X025171Y026674D01*
X024554Y026988D02*
X021351Y026988D01*
X021273Y026910D02*
X024476Y026910D01*
X024397Y026831D02*
X021194Y026831D01*
X021116Y026753D02*
X024319Y026753D01*
X024240Y026674D02*
X021037Y026674D01*
X020959Y026596D02*
X024162Y026596D01*
X024083Y026517D02*
X020880Y026517D01*
X020802Y026439D02*
X024005Y026439D01*
X023926Y026360D02*
X020723Y026360D01*
X020645Y026282D02*
X023848Y026282D01*
X023769Y026203D02*
X020566Y026203D01*
X020488Y026125D02*
X023691Y026125D01*
X023612Y026046D02*
X020409Y026046D01*
X020331Y025968D02*
X023534Y025968D01*
X023455Y025889D02*
X020252Y025889D01*
X020174Y025811D02*
X023377Y025811D01*
X023298Y025732D02*
X020095Y025732D01*
X020017Y025654D02*
X023220Y025654D01*
X023141Y025575D02*
X019938Y025575D01*
X019860Y025497D02*
X023063Y025497D01*
X022984Y025418D02*
X019818Y025418D01*
X019818Y025340D02*
X022906Y025340D01*
X022827Y025261D02*
X019818Y025261D01*
X019818Y025183D02*
X022749Y025183D01*
X022670Y025104D02*
X019818Y025104D01*
X019818Y025026D02*
X022592Y025026D01*
X022513Y024947D02*
X019818Y024947D01*
X019818Y024869D02*
X022435Y024869D01*
X022356Y024790D02*
X019818Y024790D01*
X019818Y024712D02*
X022278Y024712D01*
X022199Y024633D02*
X019818Y024633D01*
X019818Y024555D02*
X022121Y024555D01*
X022042Y024476D02*
X019818Y024476D01*
X019818Y024398D02*
X021964Y024398D01*
X021885Y024319D02*
X019818Y024319D01*
X019818Y024241D02*
X021807Y024241D01*
X021728Y024162D02*
X019818Y024162D01*
X019818Y024084D02*
X021650Y024084D01*
X021571Y024005D02*
X019818Y024005D01*
X019818Y023927D02*
X021493Y023927D01*
X021414Y023848D02*
X019786Y023848D01*
X019708Y023770D02*
X021336Y023770D01*
X021257Y023691D02*
X019629Y023691D01*
X019551Y023613D02*
X021179Y023613D01*
X021100Y023534D02*
X019472Y023534D01*
X019394Y023456D02*
X021022Y023456D01*
X020943Y023377D02*
X019315Y023377D01*
X019237Y023299D02*
X020865Y023299D01*
X020786Y023220D02*
X019158Y023220D01*
X019080Y023142D02*
X020708Y023142D01*
X020629Y023063D02*
X019001Y023063D01*
X018923Y022985D02*
X020551Y022985D01*
X020472Y022906D02*
X018844Y022906D01*
X018766Y022828D02*
X020394Y022828D01*
X020315Y022749D02*
X018687Y022749D01*
X018609Y022671D02*
X020237Y022671D01*
X020158Y022592D02*
X018530Y022592D01*
X018452Y022514D02*
X020080Y022514D01*
X020001Y022435D02*
X018373Y022435D01*
X018295Y022357D02*
X019923Y022357D01*
X019844Y022278D02*
X018216Y022278D01*
X018138Y022200D02*
X019766Y022200D01*
X019687Y022121D02*
X018059Y022121D01*
X017981Y022043D02*
X019609Y022043D01*
X019530Y021964D02*
X016721Y021964D01*
X016643Y021886D02*
X019452Y021886D01*
X019373Y021807D02*
X016564Y021807D01*
X016595Y021729D02*
X019295Y021729D01*
X019216Y021650D02*
X016622Y021650D01*
X016622Y021572D02*
X019138Y021572D01*
X019059Y021493D02*
X018635Y021493D01*
X018716Y021415D02*
X018981Y021415D01*
X018902Y021336D02*
X018760Y021336D01*
X018787Y021258D02*
X018824Y021258D01*
X018259Y021493D02*
X016607Y021493D01*
X016574Y021415D02*
X018178Y021415D01*
X018134Y021336D02*
X016502Y021336D01*
X016352Y021258D02*
X018107Y021258D01*
X017836Y022435D02*
X010376Y022435D01*
X010376Y022357D02*
X011246Y022357D01*
X011169Y022278D02*
X010376Y022278D01*
X010376Y022200D02*
X011137Y022200D01*
X011119Y022121D02*
X010376Y022121D01*
X010376Y022043D02*
X011119Y022043D01*
X011142Y021964D02*
X010376Y021964D01*
X010376Y021886D02*
X011181Y021886D01*
X011260Y021807D02*
X010376Y021807D01*
X010376Y021729D02*
X011550Y021729D01*
X011629Y021650D02*
X010376Y021650D01*
X010376Y021572D02*
X011707Y021572D01*
X011786Y021493D02*
X010376Y021493D01*
X010376Y021415D02*
X011864Y021415D01*
X011943Y021336D02*
X010376Y021336D01*
X010376Y021258D02*
X012021Y021258D01*
X012100Y021179D02*
X010376Y021179D01*
X010376Y021101D02*
X012178Y021101D01*
X012257Y021022D02*
X010376Y021022D01*
X010376Y020944D02*
X012335Y020944D01*
X012414Y020865D02*
X010376Y020865D01*
X010376Y020787D02*
X012492Y020787D01*
X012571Y020708D02*
X010376Y020708D01*
X010376Y020630D02*
X012649Y020630D01*
X012728Y020551D02*
X010376Y020551D01*
X010376Y020473D02*
X012806Y020473D01*
X012951Y020865D02*
X015224Y020865D01*
X015076Y020944D02*
X012873Y020944D01*
X012794Y021022D02*
X015004Y021022D01*
X014972Y021101D02*
X012716Y021101D01*
X012637Y021179D02*
X014957Y021179D01*
X014957Y021258D02*
X012559Y021258D01*
X012480Y021336D02*
X014985Y021336D01*
X015028Y021415D02*
X012402Y021415D01*
X012323Y021493D02*
X015110Y021493D01*
X015485Y021493D02*
X015501Y021493D01*
X015501Y021572D02*
X012245Y021572D01*
X012166Y021650D02*
X015501Y021650D01*
X015472Y021729D02*
X012088Y021729D01*
X012009Y021807D02*
X015399Y021807D01*
X015367Y021886D02*
X011931Y021886D01*
X011852Y021964D02*
X015351Y021964D01*
X015351Y022043D02*
X011799Y022043D01*
X011799Y022121D02*
X015377Y022121D01*
X015420Y022200D02*
X011781Y022200D01*
X011748Y022278D02*
X015498Y022278D01*
X015884Y022278D02*
X016498Y022278D01*
X016419Y022200D02*
X015963Y022200D01*
X016005Y022121D02*
X016341Y022121D01*
X016262Y022043D02*
X016031Y022043D01*
X016031Y021964D02*
X016184Y021964D01*
X016091Y021886D02*
X016016Y021886D01*
X016011Y021807D02*
X015983Y021807D01*
X015968Y021729D02*
X015910Y021729D01*
X015881Y021650D02*
X015942Y021650D01*
X015942Y021572D02*
X015881Y021572D01*
X015881Y021493D02*
X015957Y021493D01*
X015989Y021415D02*
X015881Y021415D01*
X015881Y021336D02*
X016061Y021336D01*
X016212Y021258D02*
X015905Y021258D01*
X016576Y022357D02*
X011672Y022357D01*
X010376Y022514D02*
X017738Y022514D01*
X017664Y022592D02*
X010376Y022592D01*
X010376Y022671D02*
X017631Y022671D01*
X017615Y022749D02*
X010376Y022749D01*
X010376Y022828D02*
X017615Y022828D01*
X017640Y022906D02*
X010376Y022906D01*
X010376Y022985D02*
X017681Y022985D01*
X017760Y023063D02*
X010376Y023063D01*
X010376Y023142D02*
X018050Y023142D01*
X018129Y023220D02*
X010376Y023220D01*
X010376Y023299D02*
X018207Y023299D01*
X018286Y023377D02*
X010376Y023377D01*
X010376Y023456D02*
X018364Y023456D01*
X018443Y023534D02*
X010376Y023534D01*
X010376Y023613D02*
X018521Y023613D01*
X018600Y023691D02*
X010376Y023691D01*
X010376Y023770D02*
X018678Y023770D01*
X018695Y023848D02*
X010376Y023848D01*
X010376Y023927D02*
X018589Y023927D01*
X018535Y024005D02*
X010376Y024005D01*
X010376Y024084D02*
X018503Y024084D01*
X018501Y024162D02*
X010376Y024162D01*
X010376Y024241D02*
X018508Y024241D01*
X018541Y024319D02*
X010376Y024319D01*
X010376Y024398D02*
X018602Y024398D01*
X018726Y024476D02*
X010376Y024476D01*
X010376Y024555D02*
X018848Y024555D01*
X018848Y024633D02*
X010376Y024633D01*
X010376Y024712D02*
X018848Y024712D01*
X018848Y024790D02*
X010376Y024790D01*
X010376Y024869D02*
X018848Y024869D01*
X018848Y024947D02*
X010376Y024947D01*
X010376Y025026D02*
X018848Y025026D01*
X018848Y025104D02*
X010376Y025104D01*
X010376Y025183D02*
X018910Y025183D01*
X018946Y025261D02*
X010376Y025261D01*
X010376Y025340D02*
X018946Y025340D01*
X018946Y025418D02*
X010376Y025418D01*
X010376Y025497D02*
X018946Y025497D01*
X018946Y025575D02*
X010376Y025575D01*
X010376Y025654D02*
X018946Y025654D01*
X018946Y025732D02*
X010376Y025732D01*
X010376Y025811D02*
X018946Y025811D01*
X018946Y025889D02*
X010376Y025889D01*
X010376Y025968D02*
X018946Y025968D01*
X018946Y026046D02*
X010376Y026046D01*
X010376Y026125D02*
X018946Y026125D01*
X018946Y026203D02*
X010376Y026203D01*
X010376Y026282D02*
X018946Y026282D01*
X018946Y026360D02*
X010376Y026360D01*
X010376Y026439D02*
X018946Y026439D01*
X018946Y026517D02*
X010376Y026517D01*
X010396Y026596D02*
X018946Y026596D01*
X018946Y026674D02*
X010475Y026674D01*
X010542Y026753D02*
X018946Y026753D01*
X018946Y026831D02*
X010575Y026831D01*
X010607Y026910D02*
X018946Y026910D01*
X018946Y026988D02*
X010640Y026988D01*
X010651Y027067D02*
X018946Y027067D01*
X018946Y027145D02*
X010651Y027145D01*
X010651Y027224D02*
X018946Y027224D01*
X018946Y027302D02*
X010651Y027302D01*
X010626Y027381D02*
X018946Y027381D01*
X018946Y027459D02*
X018862Y027459D01*
X019136Y027630D02*
X019136Y028404D01*
X019109Y029108D02*
X019163Y029108D01*
X019195Y029186D02*
X019077Y029186D01*
X019010Y029265D02*
X019262Y029265D01*
X019341Y029343D02*
X018932Y029343D01*
X018751Y029422D02*
X019521Y029422D01*
X019751Y029422D02*
X020521Y029422D01*
X020341Y029343D02*
X019932Y029343D01*
X020010Y029265D02*
X020262Y029265D01*
X020195Y029186D02*
X020077Y029186D01*
X020109Y029108D02*
X020163Y029108D01*
X020751Y029422D02*
X021521Y029422D01*
X021341Y029343D02*
X020932Y029343D01*
X021010Y029265D02*
X021262Y029265D01*
X021195Y029186D02*
X021077Y029186D01*
X021109Y029108D02*
X021163Y029108D01*
X021751Y029422D02*
X022521Y029422D01*
X022341Y029343D02*
X021932Y029343D01*
X022010Y029265D02*
X022262Y029265D01*
X022195Y029186D02*
X022077Y029186D01*
X022109Y029108D02*
X022163Y029108D01*
X022751Y029422D02*
X023521Y029422D01*
X023341Y029343D02*
X022932Y029343D01*
X023010Y029265D02*
X023262Y029265D01*
X023195Y029186D02*
X023077Y029186D01*
X023109Y029108D02*
X023163Y029108D01*
X023751Y029422D02*
X024521Y029422D01*
X024341Y029343D02*
X023932Y029343D01*
X024010Y029265D02*
X024262Y029265D01*
X024195Y029186D02*
X024077Y029186D01*
X024109Y029108D02*
X024163Y029108D01*
X024751Y029422D02*
X025521Y029422D01*
X025341Y029343D02*
X024932Y029343D01*
X025010Y029265D02*
X025262Y029265D01*
X025195Y029186D02*
X025077Y029186D01*
X025109Y029108D02*
X025163Y029108D01*
X025751Y029422D02*
X026521Y029422D01*
X026341Y029343D02*
X025932Y029343D01*
X026010Y029265D02*
X026262Y029265D01*
X026195Y029186D02*
X026077Y029186D01*
X026109Y029108D02*
X026163Y029108D01*
X026751Y029422D02*
X027521Y029422D01*
X027341Y029343D02*
X026932Y029343D01*
X027010Y029265D02*
X027262Y029265D01*
X027195Y029186D02*
X027077Y029186D01*
X027109Y029108D02*
X027163Y029108D01*
X027751Y029422D02*
X028521Y029422D01*
X028341Y029343D02*
X027932Y029343D01*
X028010Y029265D02*
X028262Y029265D01*
X028195Y029186D02*
X028077Y029186D01*
X028109Y029108D02*
X028163Y029108D01*
X028751Y029422D02*
X029521Y029422D01*
X029341Y029343D02*
X028932Y029343D01*
X029010Y029265D02*
X029262Y029265D01*
X029195Y029186D02*
X029077Y029186D01*
X029109Y029108D02*
X029163Y029108D01*
X029751Y029422D02*
X030521Y029422D01*
X030341Y029343D02*
X029932Y029343D01*
X030010Y029265D02*
X030262Y029265D01*
X030195Y029186D02*
X030077Y029186D01*
X030109Y029108D02*
X030163Y029108D01*
X030751Y029422D02*
X031521Y029422D01*
X031341Y029343D02*
X030932Y029343D01*
X031010Y029265D02*
X031262Y029265D01*
X031195Y029186D02*
X031077Y029186D01*
X031109Y029108D02*
X031163Y029108D01*
X031751Y029422D02*
X032521Y029422D01*
X032341Y029343D02*
X031932Y029343D01*
X032010Y029265D02*
X032262Y029265D01*
X032195Y029186D02*
X032077Y029186D01*
X032109Y029108D02*
X032163Y029108D01*
X033596Y027852D02*
X033676Y027852D01*
X024556Y027381D02*
X024307Y027381D01*
X024330Y027459D02*
X024410Y027459D01*
X024556Y027302D02*
X024228Y027302D01*
X024150Y027224D02*
X024556Y027224D01*
X024556Y027145D02*
X024068Y027145D01*
X024140Y027483D02*
X024140Y028421D01*
X024556Y027067D02*
X021430Y027067D01*
X018410Y027459D02*
X017862Y027459D01*
X017978Y027538D02*
X018295Y027538D01*
X018216Y027616D02*
X018056Y027616D01*
X018096Y027695D02*
X018176Y027695D01*
X018144Y027773D02*
X018128Y027773D01*
X017410Y027459D02*
X016862Y027459D01*
X016978Y027538D02*
X017295Y027538D01*
X017216Y027616D02*
X017056Y027616D01*
X017096Y027695D02*
X017176Y027695D01*
X017144Y027773D02*
X017128Y027773D01*
X016410Y027459D02*
X015862Y027459D01*
X015978Y027538D02*
X016295Y027538D01*
X016216Y027616D02*
X016056Y027616D01*
X016096Y027695D02*
X016176Y027695D01*
X016144Y027773D02*
X016128Y027773D01*
X015410Y027459D02*
X014862Y027459D01*
X014978Y027538D02*
X015295Y027538D01*
X015216Y027616D02*
X015056Y027616D01*
X015096Y027695D02*
X015176Y027695D01*
X015144Y027773D02*
X015128Y027773D01*
X014410Y027459D02*
X013862Y027459D01*
X013978Y027538D02*
X014295Y027538D01*
X014216Y027616D02*
X014056Y027616D01*
X014096Y027695D02*
X014176Y027695D01*
X014144Y027773D02*
X014128Y027773D01*
X013410Y027459D02*
X012860Y027459D01*
X012978Y027538D02*
X013295Y027538D01*
X013216Y027616D02*
X013048Y027616D01*
X013095Y027695D02*
X013176Y027695D01*
X013144Y027773D02*
X013125Y027773D01*
X012676Y027773D02*
X012596Y027773D01*
X012596Y027695D02*
X012676Y027695D01*
X012676Y027616D02*
X012596Y027616D01*
X012596Y027538D02*
X012676Y027538D01*
X012676Y027459D02*
X012596Y027459D01*
X012596Y027408D02*
X012596Y027408D01*
X012412Y027459D02*
X011860Y027459D01*
X011978Y027538D02*
X012295Y027538D01*
X012225Y027616D02*
X012048Y027616D01*
X012095Y027695D02*
X012177Y027695D01*
X012147Y027773D02*
X012125Y027773D01*
X011676Y027773D02*
X011596Y027773D01*
X011596Y027695D02*
X011676Y027695D01*
X011676Y027616D02*
X011596Y027616D01*
X011596Y027538D02*
X011676Y027538D01*
X011676Y027459D02*
X011596Y027459D01*
X011596Y027408D02*
X011596Y027408D01*
X011412Y027459D02*
X010593Y027459D01*
X010561Y027538D02*
X011295Y027538D01*
X011225Y027616D02*
X010519Y027616D01*
X010441Y027695D02*
X011177Y027695D01*
X011147Y027773D02*
X010376Y027773D01*
X010376Y027852D02*
X011130Y027852D01*
X011134Y028009D02*
X010376Y028009D01*
X010376Y028087D02*
X011155Y028087D01*
X011190Y028166D02*
X010376Y028166D01*
X010376Y028244D02*
X011243Y028244D01*
X011326Y028323D02*
X010376Y028323D01*
X010376Y028401D02*
X011474Y028401D01*
X011596Y028401D02*
X011676Y028401D01*
X011676Y028323D02*
X011596Y028323D01*
X011596Y028244D02*
X011676Y028244D01*
X011676Y028166D02*
X011596Y028166D01*
X011596Y028087D02*
X011676Y028087D01*
X011676Y028009D02*
X011596Y028009D01*
X011596Y027930D02*
X010376Y027930D01*
X010376Y028480D02*
X011372Y028480D01*
X011274Y028558D02*
X010376Y028558D01*
X010376Y028637D02*
X011210Y028637D01*
X011167Y028715D02*
X010376Y028715D01*
X010376Y028794D02*
X011140Y028794D01*
X011127Y028872D02*
X010376Y028872D01*
X010376Y028951D02*
X011596Y028951D01*
X011596Y029029D02*
X011676Y029029D01*
X011676Y028951D02*
X012596Y028951D01*
X012596Y029029D02*
X012676Y029029D01*
X012676Y029108D02*
X012596Y029108D01*
X012596Y029186D02*
X012676Y029186D01*
X012676Y029265D02*
X012596Y029265D01*
X012596Y029343D02*
X012676Y029343D01*
X012676Y029422D02*
X012596Y029422D01*
X012560Y029422D02*
X011713Y029422D01*
X011676Y029422D02*
X011596Y029422D01*
X011560Y029422D02*
X010376Y029422D01*
X010376Y029343D02*
X011354Y029343D01*
X011262Y029265D02*
X010376Y029265D01*
X010376Y029186D02*
X011201Y029186D01*
X011162Y029108D02*
X010376Y029108D01*
X010376Y029029D02*
X011137Y029029D01*
X011596Y029108D02*
X011676Y029108D01*
X011676Y029186D02*
X011596Y029186D01*
X011596Y029265D02*
X011676Y029265D01*
X011676Y029343D02*
X011596Y029343D01*
X011676Y029428D02*
X011676Y029428D01*
X011918Y029343D02*
X012354Y029343D01*
X012262Y029265D02*
X012010Y029265D01*
X012071Y029186D02*
X012201Y029186D01*
X012162Y029108D02*
X012110Y029108D01*
X012135Y029029D02*
X012137Y029029D01*
X012596Y028872D02*
X012676Y028872D01*
X012676Y028794D02*
X012596Y028794D01*
X012596Y028715D02*
X012676Y028715D01*
X012676Y028637D02*
X012596Y028637D01*
X012596Y028558D02*
X012676Y028558D01*
X012676Y028480D02*
X012596Y028480D01*
X012596Y028401D02*
X012676Y028401D01*
X012676Y028323D02*
X012596Y028323D01*
X012596Y028244D02*
X012676Y028244D01*
X012676Y028166D02*
X012596Y028166D01*
X012596Y028087D02*
X012676Y028087D01*
X012676Y028009D02*
X012596Y028009D01*
X012596Y027930D02*
X011676Y027930D01*
X011676Y027852D02*
X011596Y027852D01*
X011596Y028480D02*
X011676Y028480D01*
X011676Y028558D02*
X011596Y028558D01*
X011596Y028637D02*
X011676Y028637D01*
X011676Y028715D02*
X011596Y028715D01*
X011596Y028794D02*
X011676Y028794D01*
X011676Y028872D02*
X011596Y028872D01*
X012676Y029428D02*
X012676Y029428D01*
X012713Y029422D02*
X013521Y029422D01*
X013341Y029343D02*
X012918Y029343D01*
X013010Y029265D02*
X013262Y029265D01*
X013195Y029186D02*
X013071Y029186D01*
X013110Y029108D02*
X013163Y029108D01*
X013751Y029422D02*
X014521Y029422D01*
X014341Y029343D02*
X013932Y029343D01*
X014010Y029265D02*
X014262Y029265D01*
X014195Y029186D02*
X014077Y029186D01*
X014109Y029108D02*
X014163Y029108D01*
X014751Y029422D02*
X015521Y029422D01*
X015341Y029343D02*
X014932Y029343D01*
X015010Y029265D02*
X015262Y029265D01*
X015195Y029186D02*
X015077Y029186D01*
X015109Y029108D02*
X015163Y029108D01*
X015751Y029422D02*
X016521Y029422D01*
X016341Y029343D02*
X015932Y029343D01*
X016010Y029265D02*
X016262Y029265D01*
X016195Y029186D02*
X016077Y029186D01*
X016109Y029108D02*
X016163Y029108D01*
X016751Y029422D02*
X017521Y029422D01*
X017341Y029343D02*
X016932Y029343D01*
X017010Y029265D02*
X017262Y029265D01*
X017195Y029186D02*
X017077Y029186D01*
X017109Y029108D02*
X017163Y029108D01*
X017751Y029422D02*
X018521Y029422D01*
X018341Y029343D02*
X017932Y029343D01*
X018010Y029265D02*
X018262Y029265D01*
X018195Y029186D02*
X018077Y029186D01*
X018109Y029108D02*
X018163Y029108D01*
X012676Y027852D02*
X012596Y027852D01*
X002624Y029736D02*
X045845Y029736D01*
X045877Y029814D02*
X002592Y029814D01*
X002528Y029893D02*
X045941Y029893D01*
X046019Y029971D02*
X002450Y029971D01*
X002371Y030050D02*
X046098Y030050D01*
X046271Y030128D02*
X002198Y030128D01*
X001625Y030128D02*
X000754Y030128D01*
X000754Y030050D02*
X001452Y030050D01*
X001374Y029971D02*
X000754Y029971D01*
X000754Y029893D02*
X001295Y029893D01*
X001231Y029814D02*
X000754Y029814D01*
X000754Y029736D02*
X001199Y029736D01*
X001166Y029657D02*
X000754Y029657D01*
X000754Y029579D02*
X001134Y029579D01*
X001122Y029500D02*
X000754Y029500D01*
X000754Y029422D02*
X001122Y029422D01*
X001122Y029343D02*
X000754Y029343D01*
X000754Y029265D02*
X001122Y029265D01*
X001142Y029186D02*
X000754Y029186D01*
X000754Y029108D02*
X001174Y029108D01*
X001207Y029029D02*
X000754Y029029D01*
X000754Y028951D02*
X001239Y028951D01*
X001314Y028872D02*
X000754Y028872D01*
X000754Y028794D02*
X001393Y028794D01*
X001481Y028715D02*
X000754Y028715D01*
X000754Y028637D02*
X001670Y028637D01*
X000754Y030207D02*
X047715Y030207D01*
X047715Y030285D02*
X000754Y030285D01*
X000754Y030364D02*
X047715Y030364D01*
X047715Y030442D02*
X000754Y030442D01*
X000754Y030521D02*
X047715Y030521D01*
X047715Y030599D02*
X000754Y030599D01*
X000754Y030678D02*
X047715Y030678D01*
X047715Y030756D02*
X000754Y030756D01*
X000754Y030835D02*
X047715Y030835D01*
X047715Y030913D02*
X000754Y030913D01*
X000754Y030992D02*
X047715Y030992D01*
X047715Y031070D02*
X000754Y031070D01*
X000754Y031149D02*
X047715Y031149D01*
X047715Y031227D02*
X000754Y031227D01*
X000754Y031306D02*
X047715Y031306D01*
X047715Y031384D02*
X000754Y031384D01*
X000754Y031463D02*
X047715Y031463D01*
X047715Y031541D02*
X000754Y031541D01*
X000754Y031620D02*
X047715Y031620D01*
X047715Y031698D02*
X000754Y031698D01*
X000754Y031777D02*
X047715Y031777D01*
X047715Y030128D02*
X046844Y030128D01*
X047017Y030050D02*
X047715Y030050D01*
X047715Y029971D02*
X047095Y029971D01*
X047174Y029893D02*
X047715Y029893D01*
X047715Y029814D02*
X047237Y029814D01*
X047270Y029736D02*
X047715Y029736D01*
X047715Y029657D02*
X047303Y029657D01*
X047335Y029579D02*
X047715Y029579D01*
X047715Y029500D02*
X047347Y029500D01*
X047347Y029422D02*
X047715Y029422D01*
X047715Y029343D02*
X047347Y029343D01*
X047347Y029265D02*
X047715Y029265D01*
X047715Y029186D02*
X047327Y029186D01*
X047295Y029108D02*
X047715Y029108D01*
X047715Y029029D02*
X047262Y029029D01*
X047230Y028951D02*
X047715Y028951D01*
X047715Y028872D02*
X047155Y028872D01*
X047076Y028794D02*
X047715Y028794D01*
X047715Y028715D02*
X046988Y028715D01*
X046799Y028637D02*
X047715Y028637D01*
X042937Y020159D02*
X032004Y020159D01*
X032004Y020080D02*
X043046Y020080D01*
X043081Y020002D02*
X032004Y020002D01*
X032004Y019923D02*
X042952Y019923D01*
X042874Y019845D02*
X032004Y019845D01*
X032004Y019766D02*
X042828Y019766D01*
X042795Y019688D02*
X032004Y019688D01*
X032004Y019609D02*
X042774Y019609D01*
X042774Y019531D02*
X032004Y019531D01*
X032004Y019452D02*
X042774Y019452D01*
X042798Y019374D02*
X032004Y019374D01*
X032004Y019295D02*
X042830Y019295D01*
X042879Y019217D02*
X032004Y019217D01*
X032004Y019138D02*
X042958Y019138D01*
X043095Y019060D02*
X032004Y019060D01*
X032004Y018981D02*
X047715Y018981D01*
X047715Y018903D02*
X032004Y018903D01*
X032004Y018824D02*
X047715Y018824D01*
X047715Y018746D02*
X032004Y018746D01*
X031564Y019060D02*
X026304Y019060D01*
X026304Y019138D02*
X031564Y019138D01*
X031564Y019217D02*
X026304Y019217D01*
X026304Y019295D02*
X031564Y019295D01*
X031564Y019374D02*
X026304Y019374D01*
X026304Y019452D02*
X031564Y019452D01*
X031564Y019531D02*
X026304Y019531D01*
X026304Y019609D02*
X031564Y019609D01*
X031564Y019688D02*
X026304Y019688D01*
X026304Y019766D02*
X031564Y019766D01*
X031564Y019845D02*
X026304Y019845D01*
X026304Y019923D02*
X031564Y019923D01*
X031564Y020002D02*
X026304Y020002D01*
X026124Y020002D02*
X023959Y020002D01*
X023959Y019923D02*
X026124Y019923D01*
X026124Y019845D02*
X023959Y019845D01*
X023959Y019766D02*
X026124Y019766D01*
X026124Y019688D02*
X023959Y019688D01*
X023959Y019609D02*
X026124Y019609D01*
X026124Y019531D02*
X023959Y019531D01*
X023959Y019452D02*
X026124Y019452D01*
X026124Y019374D02*
X023959Y019374D01*
X023959Y019295D02*
X026124Y019295D01*
X026124Y019217D02*
X023959Y019217D01*
X023959Y019138D02*
X026124Y019138D01*
X026124Y019060D02*
X023959Y019060D01*
X023959Y018981D02*
X026124Y018981D01*
X026124Y018903D02*
X023959Y018903D01*
X023959Y018824D02*
X026124Y018824D01*
X026124Y018746D02*
X023959Y018746D01*
X023959Y018667D02*
X026124Y018667D01*
X026124Y018589D02*
X023959Y018589D01*
X023959Y018510D02*
X026124Y018510D01*
X026124Y018432D02*
X023959Y018432D01*
X023959Y018353D02*
X026124Y018353D01*
X026124Y018275D02*
X023959Y018275D01*
X023959Y018196D02*
X026124Y018196D01*
X026124Y018118D02*
X023959Y018118D01*
X023002Y019060D02*
X013675Y019060D01*
X013681Y019138D02*
X022887Y019138D01*
X022923Y018981D02*
X013642Y018981D01*
X013610Y018903D02*
X022845Y018903D01*
X022784Y018824D02*
X013540Y018824D01*
X013461Y018746D02*
X022751Y018746D01*
X022818Y017254D02*
X016376Y017254D01*
X016409Y017176D02*
X022897Y017176D01*
X023026Y017097D02*
X016425Y017097D01*
X016425Y017019D02*
X023029Y017019D01*
X022898Y016940D02*
X016400Y016940D01*
X016358Y016862D02*
X022820Y016862D01*
X022773Y016783D02*
X016280Y016783D01*
X016275Y016705D02*
X022741Y016705D01*
X022719Y016626D02*
X016275Y016626D01*
X016275Y016548D02*
X022719Y016548D01*
X022719Y016469D02*
X016275Y016469D01*
X016275Y016391D02*
X022742Y016391D01*
X022775Y016312D02*
X016275Y016312D01*
X016275Y016234D02*
X022823Y016234D01*
X022902Y016155D02*
X016275Y016155D01*
X016275Y016077D02*
X023037Y016077D01*
X016928Y015213D02*
X016275Y015213D01*
X016275Y015135D02*
X016819Y015135D01*
X016764Y015056D02*
X016275Y015056D01*
X016275Y014978D02*
X016732Y014978D01*
X016729Y014899D02*
X016275Y014899D01*
X016275Y014821D02*
X016736Y014821D01*
X016768Y014742D02*
X016318Y014742D01*
X016397Y014664D02*
X016828Y014664D01*
X016879Y014585D02*
X016475Y014585D01*
X016554Y014507D02*
X016879Y014507D01*
X016879Y014428D02*
X016632Y014428D01*
X016711Y014350D02*
X016879Y014350D01*
X016879Y014271D02*
X016789Y014271D01*
X016868Y014193D02*
X016879Y014193D01*
X015895Y016312D02*
X005732Y016312D01*
X005861Y016391D02*
X015895Y016391D01*
X015895Y016469D02*
X005936Y016469D01*
X005986Y016548D02*
X015895Y016548D01*
X015895Y016626D02*
X006019Y016626D01*
X005574Y016626D02*
X005494Y016626D01*
X005494Y016548D02*
X005574Y016548D01*
X005574Y016469D02*
X005494Y016469D01*
X005494Y016391D02*
X005574Y016391D01*
X005574Y016312D02*
X005494Y016312D01*
X005494Y016274D02*
X005494Y016274D01*
X005574Y016274D02*
X005574Y016274D01*
X005030Y016862D02*
X000754Y016862D01*
X000754Y016940D02*
X005048Y016940D01*
X005081Y017019D02*
X000754Y017019D01*
X000754Y017097D02*
X005131Y017097D01*
X005206Y017176D02*
X000754Y017176D01*
X000754Y017254D02*
X005334Y017254D01*
X005290Y017333D02*
X000754Y017333D01*
X000754Y017411D02*
X005185Y017411D01*
X005106Y017490D02*
X000754Y017490D01*
X000754Y017568D02*
X005071Y017568D01*
X005038Y017647D02*
X000754Y017647D01*
X000754Y017725D02*
X005024Y017725D01*
X005024Y017804D02*
X000754Y017804D01*
X000754Y017882D02*
X005024Y017882D01*
X005055Y017961D02*
X000754Y017961D01*
X000754Y018039D02*
X005088Y018039D01*
X005147Y018118D02*
X000754Y018118D01*
X000754Y018196D02*
X005225Y018196D01*
X005387Y018275D02*
X000754Y018275D01*
X000754Y018353D02*
X016314Y018353D01*
X016219Y018275D02*
X005681Y018275D01*
X005842Y018196D02*
X016170Y018196D01*
X016139Y018118D02*
X005921Y018118D01*
X005980Y018039D02*
X016139Y018039D01*
X016149Y017961D02*
X006012Y017961D01*
X006044Y017882D02*
X016181Y017882D01*
X016247Y017804D02*
X006044Y017804D01*
X006044Y017725D02*
X016382Y017725D01*
X015471Y019609D02*
X014461Y019609D01*
X014485Y019688D02*
X015356Y019688D01*
X015298Y019766D02*
X014485Y019766D01*
X014485Y019845D02*
X015265Y019845D01*
X015261Y019923D02*
X014462Y019923D01*
X014430Y020002D02*
X015265Y020002D01*
X015298Y020080D02*
X014384Y020080D01*
X014305Y020159D02*
X015355Y020159D01*
X012882Y019609D02*
X000754Y019609D01*
X000754Y019531D02*
X012804Y019531D01*
X012733Y019452D02*
X000754Y019452D01*
X000754Y019374D02*
X012701Y019374D01*
X012668Y019295D02*
X000754Y019295D01*
X000754Y019217D02*
X012661Y019217D01*
X012661Y019138D02*
X000754Y019138D01*
X000754Y019060D02*
X012668Y019060D01*
X012701Y018981D02*
X000754Y018981D01*
X000754Y018903D02*
X012733Y018903D01*
X012803Y018824D02*
X000754Y018824D01*
X000754Y018746D02*
X012882Y018746D01*
X011478Y009404D02*
X010179Y009404D01*
X002581Y003462D02*
X002359Y003684D01*
X002069Y003804D01*
X001755Y003804D01*
X001464Y003684D01*
X001242Y003462D01*
X001122Y003171D01*
X001122Y002857D01*
X001242Y002567D01*
X001464Y002344D01*
X001755Y002224D01*
X002069Y002224D01*
X002359Y002344D01*
X002581Y002567D01*
X002702Y002857D01*
X002702Y003171D01*
X002581Y003462D01*
X002591Y003438D02*
X045878Y003438D01*
X045845Y003360D02*
X002624Y003360D01*
X002656Y003281D02*
X045813Y003281D01*
X045780Y003203D02*
X002689Y003203D01*
X002702Y003124D02*
X045767Y003124D01*
X045767Y003046D02*
X002702Y003046D01*
X002702Y002967D02*
X045767Y002967D01*
X045767Y002889D02*
X002702Y002889D01*
X002682Y002810D02*
X045787Y002810D01*
X045819Y002732D02*
X002650Y002732D01*
X002617Y002653D02*
X045852Y002653D01*
X045884Y002575D02*
X002585Y002575D01*
X002511Y002496D02*
X045958Y002496D01*
X046036Y002418D02*
X002433Y002418D01*
X002347Y002339D02*
X046122Y002339D01*
X046312Y002261D02*
X002157Y002261D01*
X001666Y002261D02*
X000754Y002261D01*
X000754Y002339D02*
X001476Y002339D01*
X001391Y002418D02*
X000754Y002418D01*
X000754Y002496D02*
X001312Y002496D01*
X001239Y002575D02*
X000754Y002575D01*
X000754Y002653D02*
X001206Y002653D01*
X001173Y002732D02*
X000754Y002732D01*
X000754Y002810D02*
X001141Y002810D01*
X001122Y002889D02*
X000754Y002889D01*
X000754Y002967D02*
X001122Y002967D01*
X001122Y003046D02*
X000754Y003046D01*
X000754Y003124D02*
X001122Y003124D01*
X001135Y003203D02*
X000754Y003203D01*
X000754Y003281D02*
X001167Y003281D01*
X001200Y003360D02*
X000754Y003360D01*
X000754Y003438D02*
X001232Y003438D01*
X001297Y003517D02*
X000754Y003517D01*
X000754Y003595D02*
X001376Y003595D01*
X001454Y003674D02*
X000754Y003674D01*
X000754Y003752D02*
X001629Y003752D01*
X002194Y003752D02*
X046275Y003752D01*
X046100Y003674D02*
X002369Y003674D01*
X002448Y003595D02*
X046021Y003595D01*
X045943Y003517D02*
X002526Y003517D01*
X030388Y020080D02*
X031564Y020080D01*
X031564Y020159D02*
X030467Y020159D01*
X030962Y020473D02*
X031564Y020473D01*
X031564Y020551D02*
X030992Y020551D01*
X030992Y020630D02*
X031564Y020630D01*
X031564Y020708D02*
X030980Y020708D01*
X030948Y020787D02*
X031564Y020787D01*
X031564Y020865D02*
X030880Y020865D01*
X036244Y015684D02*
X043303Y015684D01*
X043701Y015684D02*
X044962Y015684D01*
X044937Y015717D02*
X044988Y015650D01*
X045048Y015591D01*
X045114Y015540D01*
X045187Y015498D01*
X045265Y015466D01*
X045346Y015444D01*
X045429Y015433D01*
X045431Y015433D01*
X045431Y016033D01*
X045511Y016033D01*
X045511Y016113D01*
X046111Y016113D01*
X046111Y016115D01*
X046100Y016198D01*
X046078Y016279D01*
X046046Y016357D01*
X046004Y016429D01*
X045953Y016496D01*
X045894Y016555D01*
X045827Y016606D01*
X045754Y016648D01*
X045677Y016680D01*
X045596Y016702D01*
X045513Y016713D01*
X045511Y016713D01*
X045511Y016113D01*
X045431Y016113D01*
X045431Y016713D01*
X045429Y016713D01*
X045346Y016702D01*
X045265Y016680D01*
X045187Y016648D01*
X045114Y016606D01*
X045048Y016555D01*
X044988Y016496D01*
X044937Y016429D01*
X044895Y016357D01*
X044863Y016279D01*
X044842Y016198D01*
X044831Y016115D01*
X044831Y016113D01*
X045431Y016113D01*
X045431Y016033D01*
X044831Y016033D01*
X044831Y016031D01*
X044842Y015948D01*
X044863Y015867D01*
X044895Y015789D01*
X044937Y015717D01*
X044911Y015763D02*
X043807Y015763D01*
X043877Y015841D02*
X044874Y015841D01*
X044849Y015920D02*
X043910Y015920D01*
X043937Y015998D02*
X044835Y015998D01*
X044836Y016155D02*
X043937Y016155D01*
X043937Y016077D02*
X045431Y016077D01*
X045431Y016155D02*
X045511Y016155D01*
X045511Y016077D02*
X047715Y016077D01*
X047715Y016155D02*
X046105Y016155D01*
X046090Y016234D02*
X047715Y016234D01*
X047715Y016312D02*
X046064Y016312D01*
X046026Y016391D02*
X047715Y016391D01*
X047715Y016469D02*
X045973Y016469D01*
X045901Y016548D02*
X047715Y016548D01*
X047715Y016626D02*
X045793Y016626D01*
X045576Y016705D02*
X047715Y016705D01*
X047715Y016783D02*
X044036Y016783D01*
X044003Y016705D02*
X045366Y016705D01*
X045431Y016705D02*
X045511Y016705D01*
X045511Y016626D02*
X045431Y016626D01*
X045431Y016548D02*
X045511Y016548D01*
X045511Y016469D02*
X045431Y016469D01*
X045431Y016391D02*
X045511Y016391D01*
X045511Y016312D02*
X045431Y016312D01*
X045431Y016234D02*
X045511Y016234D01*
X045511Y016033D02*
X046111Y016033D01*
X046111Y016031D01*
X046100Y015948D01*
X046078Y015867D01*
X046046Y015789D01*
X046004Y015717D01*
X045953Y015650D01*
X045894Y015591D01*
X045827Y015540D01*
X045754Y015498D01*
X045677Y015466D01*
X045596Y015444D01*
X045513Y015433D01*
X045511Y015433D01*
X045511Y016033D01*
X045511Y015998D02*
X045431Y015998D01*
X045431Y015920D02*
X045511Y015920D01*
X045511Y015841D02*
X045431Y015841D01*
X045431Y015763D02*
X045511Y015763D01*
X045511Y015684D02*
X045431Y015684D01*
X045431Y015606D02*
X045511Y015606D01*
X045511Y015527D02*
X045431Y015527D01*
X045431Y015449D02*
X045511Y015449D01*
X045613Y015449D02*
X047715Y015449D01*
X047715Y015527D02*
X045805Y015527D01*
X045908Y015606D02*
X047715Y015606D01*
X047715Y015684D02*
X045979Y015684D01*
X046031Y015763D02*
X047715Y015763D01*
X047715Y015841D02*
X046067Y015841D01*
X046092Y015920D02*
X047715Y015920D01*
X047715Y015998D02*
X046106Y015998D01*
X045328Y015449D02*
X044000Y015449D01*
X044033Y015370D02*
X047715Y015370D01*
X047715Y015292D02*
X044065Y015292D01*
X044085Y015213D02*
X047715Y015213D01*
X047715Y015135D02*
X044085Y015135D01*
X044085Y015056D02*
X047715Y015056D01*
X047715Y014978D02*
X044071Y014978D01*
X044038Y014899D02*
X047715Y014899D01*
X047715Y014821D02*
X044006Y014821D01*
X043941Y014742D02*
X047715Y014742D01*
X047715Y014664D02*
X043862Y014664D01*
X043770Y014585D02*
X047715Y014585D01*
X047715Y014507D02*
X045637Y014507D01*
X045717Y014474D02*
X045557Y014540D01*
X045384Y014540D01*
X045224Y014474D01*
X045102Y014351D01*
X045035Y014191D01*
X045035Y014018D01*
X045102Y013858D01*
X045224Y013736D01*
X045384Y013669D01*
X045557Y013669D01*
X045717Y013736D01*
X045840Y013858D01*
X045906Y014018D01*
X045906Y014191D01*
X045840Y014351D01*
X045717Y014474D01*
X045763Y014428D02*
X047715Y014428D01*
X047715Y014350D02*
X045840Y014350D01*
X045873Y014271D02*
X047715Y014271D01*
X047715Y014193D02*
X045905Y014193D01*
X045906Y014114D02*
X047715Y014114D01*
X047715Y014036D02*
X045906Y014036D01*
X045881Y013957D02*
X047715Y013957D01*
X047715Y013879D02*
X045848Y013879D01*
X045782Y013800D02*
X047715Y013800D01*
X047715Y013722D02*
X045684Y013722D01*
X045257Y013722D02*
X043983Y013722D01*
X044023Y013800D02*
X045159Y013800D01*
X045093Y013879D02*
X044056Y013879D01*
X044085Y013957D02*
X045061Y013957D01*
X045035Y014036D02*
X044085Y014036D01*
X044085Y014114D02*
X045035Y014114D01*
X045036Y014193D02*
X044080Y014193D01*
X044048Y014271D02*
X045069Y014271D01*
X045101Y014350D02*
X044015Y014350D01*
X043964Y014428D02*
X045179Y014428D01*
X045304Y014507D02*
X043885Y014507D01*
X043234Y014585D02*
X036244Y014585D01*
X036271Y014507D02*
X043119Y014507D01*
X043041Y014428D02*
X036280Y014428D01*
X036280Y014350D02*
X042989Y014350D01*
X042957Y014271D02*
X036280Y014271D01*
X036280Y014193D02*
X042924Y014193D01*
X042981Y013800D02*
X037021Y013800D01*
X037145Y013722D02*
X043021Y013722D01*
X043100Y013643D02*
X037219Y013643D01*
X037252Y013565D02*
X043187Y013565D01*
X043377Y013486D02*
X037280Y013486D01*
X037280Y013408D02*
X047715Y013408D01*
X047715Y013486D02*
X043628Y013486D01*
X043817Y013565D02*
X047715Y013565D01*
X047715Y013643D02*
X043905Y013643D01*
X043142Y014664D02*
X036197Y014664D01*
X036121Y014742D02*
X043064Y014742D01*
X043928Y015527D02*
X045136Y015527D01*
X045033Y015606D02*
X043849Y015606D01*
X043907Y016234D02*
X044851Y016234D01*
X044877Y016312D02*
X043874Y016312D01*
X043800Y016391D02*
X044915Y016391D01*
X044968Y016469D02*
X043701Y016469D01*
X043856Y016548D02*
X045040Y016548D01*
X045149Y016626D02*
X043935Y016626D01*
X044068Y016862D02*
X047715Y016862D01*
X047715Y016940D02*
X044085Y016940D01*
X044085Y017019D02*
X047715Y017019D01*
X047715Y017097D02*
X044085Y017097D01*
X044068Y017176D02*
X047715Y017176D01*
X047715Y017254D02*
X044035Y017254D01*
X044003Y017333D02*
X047715Y017333D01*
X047715Y017411D02*
X043933Y017411D01*
X043855Y017490D02*
X047715Y017490D01*
X047715Y017568D02*
X043788Y017568D01*
X047715Y013329D02*
X037280Y013329D01*
X037280Y013251D02*
X047715Y013251D01*
X047715Y013172D02*
X037280Y013172D01*
X037280Y013094D02*
X047715Y013094D01*
X047715Y010503D02*
X043324Y010503D01*
X043324Y010425D02*
X043244Y010425D01*
X043244Y010503D02*
X034769Y010503D01*
X036280Y012466D02*
X036696Y012466D01*
X036574Y012544D02*
X036260Y012544D01*
X036228Y012623D02*
X036501Y012623D01*
X036468Y012701D02*
X036165Y012701D01*
X035900Y013486D02*
X035820Y013486D01*
X035820Y013565D02*
X035900Y013565D01*
X035900Y013643D02*
X035820Y013643D01*
X035820Y013722D02*
X035900Y013722D01*
X035900Y013800D02*
X035820Y013800D01*
X035820Y013879D02*
X035900Y013879D01*
X035900Y013957D02*
X035820Y013957D01*
X035820Y014193D02*
X035900Y014193D01*
X035900Y014271D02*
X035820Y014271D01*
X035820Y014350D02*
X035900Y014350D01*
X035900Y014428D02*
X035820Y014428D01*
X035820Y014507D02*
X035900Y014507D01*
X035900Y014585D02*
X035820Y014585D01*
X035820Y014664D02*
X035900Y014664D01*
X035900Y014742D02*
X035820Y014742D01*
X035440Y014036D02*
X034383Y014036D01*
X034305Y013957D02*
X035440Y013957D01*
X035440Y013879D02*
X034226Y013879D01*
X034148Y013800D02*
X035443Y013800D01*
X035461Y013722D02*
X034069Y013722D01*
X033991Y013643D02*
X035496Y013643D01*
X035554Y013565D02*
X033912Y013565D01*
X033834Y013486D02*
X035653Y013486D01*
X043403Y011031D02*
X043403Y011031D01*
X043324Y010346D02*
X043244Y010346D01*
X043244Y010268D02*
X043324Y010268D01*
X043324Y010189D02*
X043244Y010189D01*
X043244Y010111D02*
X043324Y010111D01*
X043244Y010024D02*
X043244Y010024D01*
D18*
X035034Y016284D02*
X031534Y012784D01*
X028284Y012784D01*
X027284Y013784D01*
X027284Y014534D01*
X030534Y014534D02*
X031784Y015784D01*
X031784Y017534D01*
X031784Y027770D01*
X031636Y027918D01*
M02*
