G75*
%MOIN*%
%OFA0B0*%
%FSLAX24Y24*%
%IPPOS*%
%LPD*%
%AMOC8*
5,1,8,0,0,1.08239X$1,22.5*
%
%ADD10C,0.0080*%
%ADD11C,0.0060*%
D10*
X034176Y009727D02*
X034176Y010008D01*
X034176Y009867D02*
X034596Y009867D01*
X034456Y009727D01*
X034676Y009668D02*
X034676Y009528D01*
X034746Y009458D01*
X034816Y009458D01*
X034886Y009528D01*
X034886Y009668D01*
X034816Y009738D01*
X034746Y009738D01*
X034676Y009668D01*
X034886Y009668D02*
X034956Y009738D01*
X035026Y009738D01*
X035096Y009668D01*
X035096Y009528D01*
X035026Y009458D01*
X034956Y009458D01*
X034886Y009528D01*
X034886Y009277D02*
X034816Y009207D01*
X034816Y008997D01*
X034676Y008997D02*
X035096Y008997D01*
X035096Y009207D01*
X035026Y009277D01*
X034886Y009277D01*
X034816Y027997D02*
X034816Y028207D01*
X034886Y028277D01*
X035026Y028277D01*
X035096Y028207D01*
X035096Y027997D01*
X034676Y027997D01*
X034746Y028458D02*
X034676Y028528D01*
X034676Y028668D01*
X034746Y028738D01*
X035026Y028738D01*
X035096Y028668D01*
X035096Y028528D01*
X035026Y028458D01*
X034956Y028458D01*
X034886Y028528D01*
X034886Y028738D01*
D11*
X011006Y008749D02*
X010666Y008749D01*
X010836Y008806D02*
X010836Y008579D01*
X011006Y008749D01*
X010836Y008948D02*
X010836Y009118D01*
X010779Y009174D01*
X010723Y009174D01*
X010666Y009118D01*
X010666Y009004D01*
X010723Y008948D01*
X010836Y008948D01*
X010950Y009061D01*
X011006Y009174D01*
X010836Y009579D02*
X010836Y009806D01*
X010836Y009948D02*
X010893Y010061D01*
X010893Y010118D01*
X010836Y010174D01*
X010723Y010174D01*
X010666Y010118D01*
X010666Y010004D01*
X010723Y009948D01*
X010836Y009948D02*
X011006Y009948D01*
X011006Y010174D01*
X011006Y009749D02*
X010666Y009749D01*
X010836Y009579D02*
X011006Y009749D01*
X034166Y008990D02*
X034166Y008763D01*
X034393Y008990D01*
X034450Y008990D01*
X034506Y008934D01*
X034506Y008820D01*
X034450Y008763D01*
X011006Y027749D02*
X010836Y027579D01*
X010836Y027806D01*
X010836Y027948D02*
X010836Y028118D01*
X010779Y028174D01*
X010723Y028174D01*
X010666Y028118D01*
X010666Y028004D01*
X010723Y027948D01*
X010836Y027948D01*
X010950Y028061D01*
X011006Y028174D01*
X011006Y027749D02*
X010666Y027749D01*
X010836Y028579D02*
X010836Y028806D01*
X010836Y028948D02*
X010893Y029061D01*
X010893Y029118D01*
X010836Y029174D01*
X010723Y029174D01*
X010666Y029118D01*
X010666Y029004D01*
X010723Y028948D01*
X010836Y028948D02*
X011006Y028948D01*
X011006Y029174D01*
X011006Y028749D02*
X010666Y028749D01*
X010836Y028579D02*
X011006Y028749D01*
X034166Y028763D02*
X034166Y028990D01*
X034166Y028877D02*
X034506Y028877D01*
X034393Y028763D01*
X034393Y027990D02*
X034450Y027990D01*
X034506Y027934D01*
X034506Y027820D01*
X034450Y027763D01*
X034393Y027990D02*
X034166Y027763D01*
X034166Y027990D01*
M02*
