%
M48
M72
T01C0.0200
T02C0.0320
T03C0.0354
T04C0.0400
T05C0.0591
T06C0.1250
T07C0.1300
%
T01
X17069Y14904
X16085Y17069
X16479Y18053
X18841Y18841
X20022Y20120
X19628Y20514
X18447Y21203
X17955Y22778
X16282Y21597
X15691Y21990
X15297Y21203
X15601Y19923
X11459Y22089
X18841Y24156
X22187Y21794
X25337Y21203
X20612Y18250
X21203Y15101
X23368Y12542
X23368Y11951
X25337Y11360
X26518Y11951
X26518Y12542
X30534Y14534
X31784Y17534
X35034Y16284
X35967Y15888
X34786Y15297
X30652Y20612
X25337Y17266
T02
X35860Y14132
X36860Y13132
X35860Y12132
T03
X27284Y14534
X27284Y18534
T04
X23229Y18565
X23229Y19518
X23229Y17565
X23229Y16549
X13975Y19768
X13171Y19177
X5534Y17784
X5534Y16784
X11636Y9918
X12636Y9918
X13636Y9918
X14636Y9918
X15636Y9918
X16636Y9918
X17636Y9918
X18636Y9918
X19636Y9918
X20636Y9918
X21636Y9918
X22636Y9918
X23636Y9918
X24636Y9918
X25636Y9918
X26636Y9918
X27636Y9918
X28636Y9918
X29636Y9918
X30636Y9918
X31636Y9918
X32636Y9918
X33636Y9918
X33636Y8918
X32636Y8918
X31636Y8918
X30636Y8918
X29636Y8918
X28636Y8918
X27636Y8918
X26636Y8918
X25636Y8918
X24636Y8918
X23636Y8918
X22636Y8918
X21636Y8918
X20636Y8918
X19636Y8918
X18636Y8918
X17636Y8918
X16636Y8918
X15636Y8918
X14636Y8918
X13636Y8918
X12636Y8918
X11636Y8918
X11636Y27918
X11636Y28918
X12636Y28918
X13636Y28918
X14636Y28918
X15636Y28918
X16636Y28918
X17636Y28918
X18636Y28918
X19636Y28918
X20636Y28918
X21636Y28918
X22636Y28918
X23636Y28918
X24636Y28918
X25636Y28918
X26636Y28918
X27636Y28918
X28636Y28918
X29636Y28918
X30636Y28918
X31636Y28918
X32636Y28918
X33636Y28918
X33636Y27918
X32636Y27918
X31636Y27918
X30636Y27918
X29636Y27918
X28636Y27918
X27636Y27918
X26636Y27918
X25636Y27918
X24636Y27918
X23636Y27918
X22636Y27918
X21636Y27918
X20636Y27918
X19636Y27918
X18636Y27918
X17636Y27918
X16636Y27918
X15636Y27918
X14636Y27918
X13636Y27918
X12636Y27918
X43284Y27534
X43284Y26534
X43284Y25534
X43284Y24534
X43284Y23534
X43284Y22534
X43284Y21534
X43284Y20534
X43284Y19534
X43284Y12534
X43284Y11534
X43284Y10534
T05
X43502Y14065
X43502Y15128
X43502Y16073
X43502Y17018
X43502Y18081
X45471Y18042
X45471Y16073
X45471Y14105
T06
X35886Y9418
X9886Y10668
X9886Y27168
X35886Y28418
T07
X1912Y3014
X1912Y29392
X46557Y29392
X46557Y3014
M30
