G75*
%MOIN*%
%OFA0B0*%
%FSLAX24Y24*%
%IPPOS*%
%LPD*%
%AMOC8*
5,1,8,0,0,1.08239X$1,22.5*
%
%ADD10C,0.1380*%
%ADD11C,0.1330*%
%ADD12R,0.0820X0.0820*%
%ADD13C,0.0820*%
%ADD14C,0.0740*%
%ADD15C,0.0640*%
%ADD16C,0.1080*%
%ADD17C,0.0966*%
%ADD18C,0.0671*%
D10*
X001912Y003014D03*
X001912Y029392D03*
X046557Y029392D03*
X046557Y003014D03*
D11*
X035886Y009418D03*
X009886Y010668D03*
X009886Y027168D03*
X035886Y028418D03*
D12*
X033636Y028918D03*
X033636Y009918D03*
D13*
X032636Y009918D03*
X031636Y009918D03*
X030636Y009918D03*
X029636Y009918D03*
X028636Y009918D03*
X027636Y009918D03*
X026636Y009918D03*
X025636Y009918D03*
X024636Y009918D03*
X023636Y009918D03*
X022636Y009918D03*
X021636Y009918D03*
X020636Y009918D03*
X019636Y009918D03*
X018636Y009918D03*
X017636Y009918D03*
X016636Y009918D03*
X015636Y009918D03*
X014636Y009918D03*
X013636Y009918D03*
X012636Y009918D03*
X011636Y009918D03*
X011636Y008918D03*
X012636Y008918D03*
X013636Y008918D03*
X014636Y008918D03*
X015636Y008918D03*
X016636Y008918D03*
X017636Y008918D03*
X018636Y008918D03*
X019636Y008918D03*
X020636Y008918D03*
X021636Y008918D03*
X022636Y008918D03*
X023636Y008918D03*
X024636Y008918D03*
X025636Y008918D03*
X026636Y008918D03*
X027636Y008918D03*
X028636Y008918D03*
X029636Y008918D03*
X030636Y008918D03*
X031636Y008918D03*
X032636Y008918D03*
X033636Y008918D03*
X027284Y014534D03*
X027284Y018534D03*
X027636Y027918D03*
X026636Y027918D03*
X025636Y027918D03*
X024636Y027918D03*
X023636Y027918D03*
X022636Y027918D03*
X021636Y027918D03*
X020636Y027918D03*
X019636Y027918D03*
X018636Y027918D03*
X017636Y027918D03*
X016636Y027918D03*
X015636Y027918D03*
X014636Y027918D03*
X013636Y027918D03*
X012636Y027918D03*
X012636Y028918D03*
X013636Y028918D03*
X014636Y028918D03*
X015636Y028918D03*
X016636Y028918D03*
X017636Y028918D03*
X018636Y028918D03*
X019636Y028918D03*
X020636Y028918D03*
X021636Y028918D03*
X022636Y028918D03*
X023636Y028918D03*
X024636Y028918D03*
X025636Y028918D03*
X026636Y028918D03*
X027636Y028918D03*
X028636Y028918D03*
X029636Y028918D03*
X030636Y028918D03*
X031636Y028918D03*
X032636Y028918D03*
X032636Y027918D03*
X031636Y027918D03*
X030636Y027918D03*
X029636Y027918D03*
X028636Y027918D03*
X033636Y027918D03*
X043284Y027534D03*
X043284Y026534D03*
X043284Y025534D03*
X043284Y024534D03*
X043284Y023534D03*
X043284Y022534D03*
X043284Y021534D03*
X043284Y020534D03*
X043284Y019534D03*
X043284Y012534D03*
X043284Y011534D03*
X043284Y010534D03*
X011636Y027918D03*
X011636Y028918D03*
X005534Y017784D03*
X005534Y016784D03*
D14*
X013171Y019177D03*
X013975Y019768D03*
X023229Y019518D03*
X023229Y018565D03*
X023229Y017565D03*
X023229Y016549D03*
D15*
X035860Y014412D02*
X035860Y013852D01*
X036860Y013412D02*
X036860Y012852D01*
X035860Y012412D02*
X035860Y011852D01*
D16*
X045471Y016073D03*
D17*
X043502Y015128D03*
X043502Y014065D03*
X043502Y017018D03*
X043502Y018081D03*
D18*
X045471Y018042D03*
X043502Y016073D03*
X045471Y014105D03*
M02*
