G75*
%MOIN*%
%OFA0B0*%
%FSLAX24Y24*%
%IPPOS*%
%LPD*%
%AMOC8*
5,1,8,0,0,1.08239X$1,22.5*
%
%ADD10C,0.0060*%
%ADD11C,0.0080*%
%ADD12C,0.0220*%
%ADD13C,0.0050*%
%ADD14C,0.0160*%
%ADD15C,0.0000*%
%ADD16C,0.0030*%
%ADD17C,0.0120*%
%ADD18C,0.0020*%
D10*
X004314Y002064D02*
X004314Y002704D01*
X004634Y002704D01*
X004741Y002597D01*
X004741Y002170D01*
X004634Y002064D01*
X004314Y002064D01*
X004958Y002064D02*
X004958Y002704D01*
X005385Y002704D01*
X005603Y002597D02*
X005710Y002704D01*
X005923Y002704D01*
X006030Y002597D01*
X005923Y002384D02*
X006030Y002277D01*
X006030Y002170D01*
X005923Y002064D01*
X005710Y002064D01*
X005603Y002170D01*
X005710Y002384D02*
X005923Y002384D01*
X005710Y002384D02*
X005603Y002491D01*
X005603Y002597D01*
X005172Y002384D02*
X004958Y002384D01*
X004958Y002064D02*
X005385Y002064D01*
X006247Y002064D02*
X006461Y002064D01*
X006354Y002064D02*
X006354Y002704D01*
X006247Y002704D02*
X006461Y002704D01*
X006677Y002597D02*
X006784Y002704D01*
X006997Y002704D01*
X007104Y002597D01*
X007104Y002384D02*
X006891Y002384D01*
X007104Y002384D02*
X007104Y002170D01*
X006997Y002064D01*
X006784Y002064D01*
X006677Y002170D01*
X006677Y002597D01*
X006784Y003114D02*
X006997Y003114D01*
X007104Y003220D01*
X007104Y003647D01*
X006997Y003754D01*
X006784Y003754D01*
X006677Y003647D01*
X006677Y003220D01*
X006784Y003114D01*
X006461Y003114D02*
X006247Y003114D01*
X006354Y003114D02*
X006354Y003754D01*
X006247Y003754D02*
X006461Y003754D01*
X006461Y004164D02*
X006461Y004804D01*
X006674Y004804D02*
X006247Y004804D01*
X006030Y004697D02*
X006030Y004484D01*
X005923Y004377D01*
X005603Y004377D01*
X005603Y004164D02*
X005603Y004804D01*
X005923Y004804D01*
X006030Y004697D01*
X005385Y004591D02*
X005385Y004164D01*
X005385Y004484D02*
X004958Y004484D01*
X004958Y004591D02*
X004958Y004164D01*
X004741Y004164D02*
X004741Y004804D01*
X004958Y004591D02*
X005172Y004804D01*
X005385Y004591D01*
X004741Y004484D02*
X004314Y004484D01*
X004314Y004164D02*
X004314Y004804D01*
X004527Y003754D02*
X004741Y003541D01*
X004741Y003114D01*
X004958Y003220D02*
X005065Y003114D01*
X005279Y003114D01*
X005385Y003220D01*
X005385Y003754D01*
X005603Y003754D02*
X005923Y003754D01*
X006030Y003647D01*
X006030Y003220D01*
X005923Y003114D01*
X005603Y003114D01*
X005603Y003754D01*
X004958Y003754D02*
X004958Y003220D01*
X004741Y003434D02*
X004314Y003434D01*
X004314Y003541D02*
X004527Y003754D01*
X004314Y003541D02*
X004314Y003114D01*
X006892Y004164D02*
X007319Y004164D01*
X007536Y004270D02*
X007643Y004164D01*
X007857Y004164D01*
X007963Y004270D01*
X008181Y004164D02*
X008181Y004804D01*
X007963Y004697D02*
X007857Y004804D01*
X007643Y004804D01*
X007536Y004697D01*
X007536Y004270D01*
X007105Y004484D02*
X006892Y004484D01*
X006892Y004804D02*
X006892Y004164D01*
X006892Y004804D02*
X007319Y004804D01*
X008181Y004484D02*
X008608Y004484D01*
X008608Y004804D02*
X008608Y004164D01*
X008824Y003754D02*
X009038Y003541D01*
X009038Y003114D01*
X009255Y003114D02*
X009255Y003754D01*
X009576Y003754D01*
X009682Y003647D01*
X009682Y003434D01*
X009576Y003327D01*
X009255Y003327D01*
X009038Y003434D02*
X008611Y003434D01*
X008611Y003541D02*
X008824Y003754D01*
X008611Y003541D02*
X008611Y003114D01*
X008393Y003220D02*
X008286Y003114D01*
X008073Y003114D01*
X007966Y003220D01*
X007966Y003647D01*
X008073Y003754D01*
X008286Y003754D01*
X008393Y003647D01*
X009470Y004270D02*
X009577Y004164D01*
X009790Y004164D01*
X009897Y004270D01*
X009897Y004484D01*
X009684Y004484D01*
X009897Y004697D02*
X009790Y004804D01*
X009577Y004804D01*
X009470Y004697D01*
X009470Y004270D01*
X010115Y004270D02*
X010115Y004804D01*
X010542Y004804D02*
X010542Y004270D01*
X010435Y004164D01*
X010221Y004164D01*
X010115Y004270D01*
X010327Y003754D02*
X009900Y003754D01*
X009900Y003114D01*
X010327Y003114D01*
X010113Y003434D02*
X009900Y003434D01*
X009900Y002704D02*
X010220Y002704D01*
X010327Y002597D01*
X010327Y002491D01*
X010220Y002384D01*
X009900Y002384D01*
X010220Y002384D02*
X010327Y002277D01*
X010327Y002170D01*
X010220Y002064D01*
X009900Y002064D01*
X009900Y002704D01*
X010544Y002704D02*
X010544Y002597D01*
X010758Y002384D01*
X010758Y002064D01*
X010758Y002384D02*
X010971Y002597D01*
X010971Y002704D01*
X011402Y003114D02*
X011616Y003327D01*
X011616Y003754D01*
X011833Y003647D02*
X011940Y003754D01*
X012154Y003754D01*
X012260Y003647D01*
X011833Y003220D01*
X011940Y003114D01*
X012154Y003114D01*
X012260Y003220D01*
X012260Y003647D01*
X011833Y003647D02*
X011833Y003220D01*
X011402Y003114D02*
X011189Y003327D01*
X011189Y003754D01*
X011402Y004164D02*
X011402Y004804D01*
X011189Y004804D02*
X011616Y004804D01*
X011833Y004591D02*
X012047Y004804D01*
X012260Y004591D01*
X012260Y004164D01*
X012478Y004164D02*
X012478Y004804D01*
X012798Y004804D01*
X012905Y004697D01*
X012905Y004484D01*
X012798Y004377D01*
X012478Y004377D01*
X012692Y004377D02*
X012905Y004164D01*
X012260Y004484D02*
X011833Y004484D01*
X011833Y004591D02*
X011833Y004164D01*
X010973Y004164D02*
X010759Y004164D01*
X010866Y004164D02*
X010866Y004804D01*
X010759Y004804D02*
X010973Y004804D01*
X011833Y002704D02*
X011833Y002064D01*
X011833Y002384D02*
X012260Y002384D01*
X012478Y002384D02*
X012905Y002384D01*
X012905Y002491D02*
X012905Y002064D01*
X012905Y002491D02*
X012692Y002704D01*
X012478Y002491D01*
X012478Y002064D01*
X012260Y002064D02*
X012260Y002704D01*
X013123Y002704D02*
X013123Y002597D01*
X013336Y002384D01*
X013336Y002064D01*
X013336Y002384D02*
X013550Y002597D01*
X013550Y002704D01*
X013767Y002704D02*
X014087Y002704D01*
X014194Y002597D01*
X014194Y002170D01*
X014087Y002064D01*
X013767Y002064D01*
X013767Y002704D01*
X014412Y002704D02*
X014412Y002064D01*
X014839Y002064D01*
X015056Y002064D02*
X015056Y002704D01*
X015483Y002064D01*
X015483Y002704D01*
X014839Y002704D02*
X014412Y002704D01*
X014412Y002384D02*
X014625Y002384D01*
X016345Y002277D02*
X016666Y002277D01*
X016772Y002384D01*
X016772Y002597D01*
X016666Y002704D01*
X016345Y002704D01*
X016345Y002064D01*
X016559Y002277D02*
X016772Y002064D01*
X016990Y002064D02*
X017203Y002064D01*
X017097Y002064D02*
X017097Y002704D01*
X017203Y002704D02*
X016990Y002704D01*
X017420Y002704D02*
X017740Y002704D01*
X017847Y002597D01*
X017847Y002170D01*
X017740Y002064D01*
X017420Y002064D01*
X017420Y002704D01*
X018064Y002704D02*
X018064Y002064D01*
X018384Y002064D01*
X018491Y002170D01*
X018491Y002597D01*
X018384Y002704D01*
X018064Y002704D01*
X018709Y002704D02*
X018922Y002704D01*
X018815Y002704D02*
X018815Y002064D01*
X018709Y002064D02*
X018922Y002064D01*
X019138Y002064D02*
X019138Y002704D01*
X019565Y002704D01*
X019783Y002597D02*
X019783Y002170D01*
X019890Y002064D01*
X020103Y002064D01*
X020210Y002170D01*
X020210Y002597D01*
X020103Y002704D01*
X019890Y002704D01*
X019783Y002597D01*
X019352Y002384D02*
X019138Y002384D01*
X020427Y002277D02*
X020748Y002277D01*
X020854Y002384D01*
X020854Y002597D01*
X020748Y002704D01*
X020427Y002704D01*
X020427Y002064D01*
X020641Y002277D02*
X020854Y002064D01*
X021072Y002064D02*
X021392Y002064D01*
X021499Y002170D01*
X021499Y002597D01*
X021392Y002704D01*
X021072Y002704D01*
X021072Y002064D01*
X021071Y004164D02*
X021071Y004804D01*
X021284Y004804D02*
X020857Y004804D01*
X020640Y004697D02*
X020533Y004804D01*
X020319Y004804D01*
X020213Y004697D01*
X020213Y004591D01*
X020319Y004484D01*
X020533Y004484D01*
X020640Y004377D01*
X020640Y004270D01*
X020533Y004164D01*
X020319Y004164D01*
X020213Y004270D01*
X019782Y004164D02*
X019782Y004484D01*
X019995Y004697D01*
X019995Y004804D01*
X019782Y004484D02*
X019568Y004697D01*
X019568Y004804D01*
X019351Y004697D02*
X019244Y004804D01*
X019030Y004804D01*
X018923Y004697D01*
X018923Y004591D01*
X019030Y004484D01*
X019244Y004484D01*
X019351Y004377D01*
X019351Y004270D01*
X019244Y004164D01*
X019030Y004164D01*
X018923Y004270D01*
X018061Y004270D02*
X017955Y004164D01*
X017741Y004164D01*
X017634Y004270D01*
X017741Y004484D02*
X017955Y004484D01*
X018061Y004377D01*
X018061Y004270D01*
X017741Y004484D02*
X017634Y004591D01*
X017634Y004697D01*
X017741Y004804D01*
X017955Y004804D01*
X018061Y004697D01*
X017417Y004804D02*
X016990Y004804D01*
X017203Y004804D02*
X017203Y004164D01*
X016772Y004270D02*
X016666Y004164D01*
X016452Y004164D01*
X016345Y004270D01*
X016345Y004697D01*
X016452Y004804D01*
X016666Y004804D01*
X016772Y004697D01*
X016128Y004804D02*
X015701Y004804D01*
X015701Y004164D01*
X016128Y004164D01*
X015914Y004484D02*
X015701Y004484D01*
X015483Y004804D02*
X015056Y004804D01*
X015056Y004164D01*
X015056Y004484D02*
X015270Y004484D01*
X014839Y004804D02*
X014412Y004804D01*
X014412Y004164D01*
X014194Y004164D02*
X013767Y004164D01*
X013767Y004804D01*
X014194Y004804D01*
X013981Y004484D02*
X013767Y004484D01*
X014412Y004484D02*
X014625Y004484D01*
X009038Y002597D02*
X009038Y002170D01*
X008931Y002064D01*
X008611Y002064D01*
X008611Y002704D01*
X008931Y002704D01*
X009038Y002597D01*
X008393Y002704D02*
X007966Y002704D01*
X007966Y002064D01*
X008393Y002064D01*
X008180Y002384D02*
X007966Y002384D01*
X007749Y002064D02*
X007749Y002704D01*
X007322Y002704D02*
X007749Y002064D01*
X007322Y002064D02*
X007322Y002704D01*
X010723Y008661D02*
X010666Y008717D01*
X010666Y008831D01*
X010723Y008888D01*
X010836Y008888D01*
X010836Y008717D01*
X010779Y008661D01*
X010723Y008661D01*
X010950Y008774D02*
X010836Y008888D01*
X010836Y009029D02*
X010836Y009256D01*
X011006Y009086D01*
X010666Y009086D01*
X010950Y008774D02*
X011006Y008661D01*
X011006Y009661D02*
X011006Y009888D01*
X010836Y009888D01*
X010893Y009774D01*
X010893Y009717D01*
X010836Y009661D01*
X010723Y009661D01*
X010666Y009717D01*
X010666Y009831D01*
X010723Y009888D01*
X010836Y010029D02*
X010836Y010256D01*
X011006Y010086D01*
X010666Y010086D01*
X017009Y016455D02*
X016902Y016562D01*
X016902Y016989D01*
X017009Y017096D01*
X017223Y017096D01*
X017329Y016989D01*
X017547Y016882D02*
X017760Y017096D01*
X017760Y016455D01*
X017547Y016455D02*
X017974Y016455D01*
X018191Y016455D02*
X018618Y016882D01*
X018618Y016989D01*
X018512Y017096D01*
X018298Y017096D01*
X018191Y016989D01*
X018191Y016455D02*
X018618Y016455D01*
X019068Y016615D02*
X019174Y016509D01*
X019388Y016509D01*
X019495Y016615D01*
X019712Y016509D02*
X020139Y016509D01*
X019926Y016509D02*
X019926Y017149D01*
X019712Y016936D01*
X019495Y017042D02*
X019388Y017149D01*
X019174Y017149D01*
X019068Y017042D01*
X019068Y016615D01*
X020357Y016615D02*
X020463Y016509D01*
X020677Y016509D01*
X020784Y016615D01*
X020784Y016722D01*
X020677Y016829D01*
X020357Y016829D01*
X020357Y016615D01*
X020357Y016829D02*
X020570Y017042D01*
X020784Y017149D01*
X017329Y016562D02*
X017223Y016455D01*
X017009Y016455D01*
X015469Y016812D02*
X015362Y016705D01*
X015149Y016705D01*
X015042Y016812D01*
X015042Y017026D02*
X015255Y017132D01*
X015362Y017132D01*
X015469Y017026D01*
X015469Y016812D01*
X015042Y017026D02*
X015042Y017346D01*
X015469Y017346D01*
X014611Y017346D02*
X014611Y016705D01*
X014824Y016705D02*
X014397Y016705D01*
X014180Y016812D02*
X014073Y016705D01*
X013859Y016705D01*
X013753Y016812D01*
X013753Y017239D01*
X013859Y017346D01*
X014073Y017346D01*
X014180Y017239D01*
X014397Y017132D02*
X014611Y017346D01*
X013894Y017887D02*
X013467Y017887D01*
X013680Y017887D02*
X013680Y018527D01*
X013467Y018314D01*
X013036Y018527D02*
X013036Y017887D01*
X013249Y017887D02*
X012822Y017887D01*
X012605Y017993D02*
X012498Y017887D01*
X012285Y017887D01*
X012178Y017993D01*
X012178Y018420D01*
X012285Y018527D01*
X012498Y018527D01*
X012605Y018420D01*
X012822Y018314D02*
X013036Y018527D01*
X007541Y021537D02*
X007434Y021430D01*
X007221Y021430D01*
X007114Y021537D01*
X006896Y021537D02*
X006789Y021430D01*
X006576Y021430D01*
X006469Y021537D01*
X006469Y021964D01*
X006576Y022070D01*
X006789Y022070D01*
X006896Y021964D01*
X007114Y021964D02*
X007221Y022070D01*
X007434Y022070D01*
X007541Y021964D01*
X007541Y021857D01*
X007434Y021750D01*
X007541Y021643D01*
X007541Y021537D01*
X007434Y021750D02*
X007327Y021750D01*
X007114Y023005D02*
X007541Y023432D01*
X007541Y023538D01*
X007434Y023645D01*
X007221Y023645D01*
X007114Y023538D01*
X006896Y023538D02*
X006789Y023645D01*
X006576Y023645D01*
X006469Y023538D01*
X006469Y023111D01*
X006576Y023005D01*
X006789Y023005D01*
X006896Y023111D01*
X007114Y023005D02*
X007541Y023005D01*
X013359Y023145D02*
X013359Y022718D01*
X013466Y022611D01*
X013679Y022611D01*
X013786Y022718D01*
X014004Y022611D02*
X014431Y022611D01*
X014217Y022611D02*
X014217Y023251D01*
X014004Y023038D01*
X013786Y023145D02*
X013679Y023251D01*
X013466Y023251D01*
X013359Y023145D01*
X013466Y023595D02*
X013679Y023595D01*
X013786Y023702D01*
X014004Y023595D02*
X014431Y023595D01*
X014217Y023595D02*
X014217Y024236D01*
X014004Y024022D01*
X013786Y024129D02*
X013679Y024236D01*
X013466Y024236D01*
X013359Y024129D01*
X013359Y023702D01*
X013466Y023595D01*
X014648Y023702D02*
X014755Y023595D01*
X014968Y023595D01*
X015075Y023702D01*
X015075Y023809D01*
X014968Y023915D01*
X014862Y023915D01*
X014968Y023915D02*
X015075Y024022D01*
X015075Y024129D01*
X014968Y024236D01*
X014755Y024236D01*
X014648Y024129D01*
X014648Y023251D02*
X015075Y023251D01*
X015075Y023145D01*
X014648Y022718D01*
X014648Y022611D01*
X019264Y022554D02*
X019264Y022127D01*
X019371Y022020D01*
X019585Y022020D01*
X019692Y022127D01*
X019909Y022020D02*
X020336Y022020D01*
X020123Y022020D02*
X020123Y022661D01*
X019909Y022447D01*
X019692Y022554D02*
X019585Y022661D01*
X019371Y022661D01*
X019264Y022554D01*
X020554Y022554D02*
X020554Y022447D01*
X020660Y022341D01*
X020874Y022341D01*
X020981Y022234D01*
X020981Y022127D01*
X020874Y022020D01*
X020660Y022020D01*
X020554Y022127D01*
X020554Y022234D01*
X020660Y022341D01*
X020874Y022341D02*
X020981Y022447D01*
X020981Y022554D01*
X020874Y022661D01*
X020660Y022661D01*
X020554Y022554D01*
X021627Y023201D02*
X021627Y023842D01*
X022054Y023842D01*
X022271Y023842D02*
X022592Y023842D01*
X022698Y023735D01*
X022698Y023629D01*
X022592Y023522D01*
X022271Y023522D01*
X022271Y023842D02*
X022271Y023201D01*
X022592Y023201D01*
X022698Y023308D01*
X022698Y023415D01*
X022592Y023522D01*
X022916Y023735D02*
X023023Y023842D01*
X023236Y023842D01*
X023343Y023735D01*
X023343Y023629D01*
X022916Y023201D01*
X023343Y023201D01*
X021840Y023522D02*
X021627Y023522D01*
X022127Y021480D02*
X022020Y021373D01*
X022020Y020946D01*
X022127Y020839D01*
X022341Y020839D01*
X022447Y020946D01*
X022665Y020839D02*
X023092Y020839D01*
X022878Y020839D02*
X022878Y021480D01*
X022665Y021266D01*
X022447Y021373D02*
X022341Y021480D01*
X022127Y021480D01*
X023309Y021160D02*
X023737Y021160D01*
X023630Y021480D02*
X023309Y021160D01*
X023630Y020839D02*
X023630Y021480D01*
X026548Y021553D02*
X026761Y021553D01*
X026548Y021233D02*
X026548Y021874D01*
X026975Y021874D01*
X027193Y021874D02*
X027513Y021874D01*
X027620Y021767D01*
X027620Y021660D01*
X027513Y021553D01*
X027193Y021553D01*
X027513Y021553D02*
X027620Y021447D01*
X027620Y021340D01*
X027513Y021233D01*
X027193Y021233D01*
X027193Y021874D01*
X027837Y021660D02*
X028051Y021874D01*
X028051Y021233D01*
X028264Y021233D02*
X027837Y021233D01*
X028516Y019905D02*
X028837Y019905D01*
X028943Y019798D01*
X028943Y019585D01*
X028837Y019478D01*
X028516Y019478D01*
X028516Y019264D02*
X028516Y019905D01*
X028730Y019478D02*
X028943Y019264D01*
X029161Y019264D02*
X029161Y019371D01*
X029588Y019798D01*
X029588Y019905D01*
X029161Y019905D01*
X031244Y017264D02*
X031664Y017264D01*
X032324Y017264D01*
X034741Y017420D02*
X034741Y016993D01*
X034848Y016887D01*
X035061Y016887D01*
X035168Y016993D01*
X035385Y017207D02*
X035812Y017207D01*
X035706Y016887D02*
X035706Y017527D01*
X035385Y017207D01*
X035168Y017420D02*
X035061Y017527D01*
X034848Y017527D01*
X034741Y017420D01*
X035997Y017993D02*
X035997Y018420D01*
X036104Y018527D01*
X036317Y018527D01*
X036424Y018420D01*
X036641Y018420D02*
X036748Y018527D01*
X036962Y018527D01*
X037068Y018420D01*
X037068Y018314D01*
X036641Y017887D01*
X037068Y017887D01*
X037286Y017993D02*
X037713Y018420D01*
X037713Y017993D01*
X037606Y017887D01*
X037393Y017887D01*
X037286Y017993D01*
X037286Y018420D01*
X037393Y018527D01*
X037606Y018527D01*
X037713Y018420D01*
X038056Y018027D02*
X038056Y017600D01*
X038163Y017493D01*
X038376Y017493D01*
X038483Y017600D01*
X038700Y017600D02*
X038700Y017493D01*
X038700Y017600D02*
X039127Y018027D01*
X039127Y018133D01*
X038700Y018133D01*
X038483Y018027D02*
X038376Y018133D01*
X038163Y018133D01*
X038056Y018027D01*
X036424Y017993D02*
X036317Y017887D01*
X036104Y017887D01*
X035997Y017993D01*
X035923Y019855D02*
X035710Y019855D01*
X035603Y019962D01*
X035603Y020389D01*
X035710Y020496D01*
X035923Y020496D01*
X036030Y020389D01*
X036248Y020282D02*
X036461Y020496D01*
X036461Y019855D01*
X036248Y019855D02*
X036675Y019855D01*
X036892Y019962D02*
X036999Y019855D01*
X037212Y019855D01*
X037319Y019962D01*
X037319Y020389D01*
X037212Y020496D01*
X036999Y020496D01*
X036892Y020389D01*
X036892Y020282D01*
X036999Y020175D01*
X037319Y020175D01*
X036030Y019962D02*
X035923Y019855D01*
X040208Y019992D02*
X040208Y019565D01*
X040315Y019458D01*
X040529Y019458D01*
X040635Y019565D01*
X040853Y019458D02*
X041280Y019458D01*
X041066Y019458D02*
X041066Y020099D01*
X040853Y019885D01*
X040635Y019992D02*
X040529Y020099D01*
X040315Y020099D01*
X040208Y019992D01*
X041497Y019992D02*
X041497Y019565D01*
X041925Y019992D01*
X041925Y019565D01*
X041818Y019458D01*
X041604Y019458D01*
X041497Y019565D01*
X041497Y019992D02*
X041604Y020099D01*
X041818Y020099D01*
X041925Y019992D01*
X042001Y018452D02*
X043752Y018452D01*
X044602Y018452D02*
X046617Y018452D01*
X046617Y017273D01*
X046617Y014873D01*
X046617Y013694D01*
X042752Y013694D01*
X042002Y013694D02*
X042001Y013694D01*
X042001Y018452D01*
X041132Y018133D02*
X041132Y017493D01*
X040919Y017493D02*
X041346Y017493D01*
X040919Y017920D02*
X041132Y018133D01*
X040701Y018027D02*
X040701Y017813D01*
X040595Y017706D01*
X040274Y017706D01*
X040274Y017493D02*
X040274Y018133D01*
X040595Y018133D01*
X040701Y018027D01*
X040488Y017706D02*
X040701Y017493D01*
X037360Y015032D02*
X035360Y015032D01*
X035360Y011232D01*
X037360Y011232D01*
X037360Y015032D01*
X036510Y014532D02*
X036512Y014569D01*
X036518Y014606D01*
X036528Y014642D01*
X036541Y014677D01*
X036558Y014710D01*
X036579Y014741D01*
X036603Y014769D01*
X036630Y014795D01*
X036659Y014818D01*
X036690Y014838D01*
X036724Y014854D01*
X036759Y014867D01*
X036795Y014876D01*
X036832Y014881D01*
X036869Y014882D01*
X036906Y014879D01*
X036943Y014872D01*
X036979Y014861D01*
X037013Y014847D01*
X037046Y014829D01*
X037076Y014807D01*
X037104Y014783D01*
X037129Y014755D01*
X037152Y014725D01*
X037171Y014693D01*
X037186Y014659D01*
X037198Y014624D01*
X037206Y014588D01*
X037210Y014551D01*
X037210Y014513D01*
X037206Y014476D01*
X037198Y014440D01*
X037186Y014405D01*
X037171Y014371D01*
X037152Y014339D01*
X037129Y014309D01*
X037104Y014281D01*
X037076Y014257D01*
X037046Y014235D01*
X037013Y014217D01*
X036979Y014203D01*
X036943Y014192D01*
X036906Y014185D01*
X036869Y014182D01*
X036832Y014183D01*
X036795Y014188D01*
X036759Y014197D01*
X036724Y014210D01*
X036690Y014226D01*
X036659Y014246D01*
X036630Y014269D01*
X036603Y014295D01*
X036579Y014323D01*
X036558Y014354D01*
X036541Y014387D01*
X036528Y014422D01*
X036518Y014458D01*
X036512Y014495D01*
X036510Y014532D01*
X038056Y014483D02*
X038056Y014056D01*
X038163Y013950D01*
X038376Y013950D01*
X038483Y014056D01*
X038700Y014056D02*
X038700Y014163D01*
X038807Y014270D01*
X039021Y014270D01*
X039127Y014163D01*
X039127Y014056D01*
X039021Y013950D01*
X038807Y013950D01*
X038700Y014056D01*
X038807Y014270D02*
X038700Y014377D01*
X038700Y014483D01*
X038807Y014590D01*
X039021Y014590D01*
X039127Y014483D01*
X039127Y014377D01*
X039021Y014270D01*
X038483Y014483D02*
X038376Y014590D01*
X038163Y014590D01*
X038056Y014483D01*
X040274Y014590D02*
X040274Y013950D01*
X040274Y014163D02*
X040595Y014163D01*
X040701Y014270D01*
X040701Y014483D01*
X040595Y014590D01*
X040274Y014590D01*
X040488Y014163D02*
X040701Y013950D01*
X040919Y013950D02*
X041346Y014377D01*
X041346Y014483D01*
X041239Y014590D01*
X041026Y014590D01*
X040919Y014483D01*
X040919Y013950D02*
X041346Y013950D01*
X041282Y013627D02*
X040961Y013627D01*
X040961Y012987D01*
X041282Y012987D01*
X041388Y013094D01*
X041388Y013521D01*
X041282Y013627D01*
X041606Y013414D02*
X041819Y013627D01*
X041819Y012987D01*
X041606Y012987D02*
X042033Y012987D01*
X040533Y011715D02*
X040426Y011821D01*
X040213Y011821D01*
X040106Y011715D01*
X040106Y011608D01*
X040213Y011501D01*
X040533Y011501D01*
X040533Y011288D02*
X040533Y011715D01*
X040533Y011288D02*
X040426Y011181D01*
X040213Y011181D01*
X040106Y011288D01*
X039888Y011288D02*
X039782Y011181D01*
X039568Y011181D01*
X039461Y011288D01*
X039461Y011715D01*
X039568Y011821D01*
X039782Y011821D01*
X039888Y011715D01*
X038627Y011031D02*
X038200Y011031D01*
X038200Y010711D01*
X038414Y010818D01*
X038521Y010818D01*
X038627Y010711D01*
X038627Y010497D01*
X038521Y010390D01*
X038307Y010390D01*
X038200Y010497D01*
X037983Y010497D02*
X037876Y010390D01*
X037663Y010390D01*
X037556Y010497D01*
X037556Y010924D01*
X037663Y011031D01*
X037876Y011031D01*
X037983Y010924D01*
X040274Y010047D02*
X040274Y009406D01*
X040595Y009406D01*
X040701Y009513D01*
X040701Y009940D01*
X040595Y010047D01*
X040274Y010047D01*
X040919Y009940D02*
X041026Y010047D01*
X041239Y010047D01*
X041346Y009940D01*
X041346Y009833D01*
X041239Y009726D01*
X041346Y009620D01*
X041346Y009513D01*
X041239Y009406D01*
X041026Y009406D01*
X040919Y009513D01*
X041132Y009726D02*
X041239Y009726D01*
X041774Y009406D02*
X042095Y009406D01*
X042201Y009513D01*
X042201Y009940D01*
X042095Y010047D01*
X041774Y010047D01*
X041774Y009406D01*
X042419Y009406D02*
X042846Y009833D01*
X042846Y009940D01*
X042739Y010047D01*
X042526Y010047D01*
X042419Y009940D01*
X042419Y009406D02*
X042846Y009406D01*
X046617Y014873D02*
X047699Y014873D01*
X047699Y017273D01*
X047899Y017073D01*
X047899Y015073D01*
X047699Y014873D01*
X047699Y017273D02*
X046617Y017273D01*
X034506Y009015D02*
X034450Y009072D01*
X034506Y009015D02*
X034506Y008902D01*
X034450Y008845D01*
X034393Y008845D01*
X034166Y009072D01*
X034166Y008845D01*
X032434Y010997D02*
X032221Y010997D01*
X032114Y011104D01*
X031896Y010997D02*
X031683Y011210D01*
X031789Y011210D02*
X031469Y011210D01*
X031469Y010997D02*
X031469Y011637D01*
X031789Y011637D01*
X031896Y011531D01*
X031896Y011317D01*
X031789Y011210D01*
X032114Y011531D02*
X032221Y011637D01*
X032434Y011637D01*
X032541Y011531D01*
X032541Y011424D01*
X032434Y011317D01*
X032541Y011210D01*
X032541Y011104D01*
X032434Y010997D01*
X032434Y011317D02*
X032327Y011317D01*
X029750Y012572D02*
X029750Y013212D01*
X029430Y012892D01*
X029857Y012892D01*
X029212Y012892D02*
X029212Y013105D01*
X029105Y013212D01*
X028785Y013212D01*
X028785Y012572D01*
X028785Y012785D02*
X029105Y012785D01*
X029212Y012892D01*
X028999Y012785D02*
X029212Y012572D01*
X029161Y014146D02*
X029588Y014146D01*
X029375Y014146D02*
X029375Y014787D01*
X029161Y014573D01*
X028943Y014680D02*
X028837Y014787D01*
X028623Y014787D01*
X028516Y014680D01*
X028516Y014253D01*
X028623Y014146D01*
X028837Y014146D01*
X028943Y014253D01*
X031244Y015304D02*
X032324Y015304D01*
X032954Y014590D02*
X032847Y014483D01*
X032847Y014056D01*
X032954Y013950D01*
X033167Y013950D01*
X033274Y014056D01*
X033492Y014056D02*
X033598Y013950D01*
X033812Y013950D01*
X033919Y014056D01*
X033919Y014163D01*
X033812Y014270D01*
X033492Y014270D01*
X033492Y014056D01*
X033492Y014270D02*
X033705Y014483D01*
X033919Y014590D01*
X033274Y014483D02*
X033167Y014590D01*
X032954Y014590D01*
X022573Y004804D02*
X022573Y004164D01*
X022146Y004164D02*
X022146Y004804D01*
X022360Y004591D01*
X022573Y004804D01*
X021929Y004804D02*
X021502Y004804D01*
X021502Y004164D01*
X021929Y004164D01*
X021715Y004484D02*
X021502Y004484D01*
X011006Y027661D02*
X010950Y027774D01*
X010836Y027888D01*
X010836Y027717D01*
X010779Y027661D01*
X010723Y027661D01*
X010666Y027717D01*
X010666Y027831D01*
X010723Y027888D01*
X010836Y027888D01*
X010836Y028029D02*
X010836Y028256D01*
X011006Y028086D01*
X010666Y028086D01*
X010723Y028661D02*
X010666Y028717D01*
X010666Y028831D01*
X010723Y028888D01*
X010836Y028888D02*
X010893Y028774D01*
X010893Y028717D01*
X010836Y028661D01*
X010723Y028661D01*
X010836Y028888D02*
X011006Y028888D01*
X011006Y028661D01*
X010836Y029029D02*
X010836Y029256D01*
X011006Y029086D01*
X010666Y029086D01*
X034166Y029072D02*
X034166Y028845D01*
X034166Y028958D02*
X034506Y028958D01*
X034393Y029072D01*
X034450Y028072D02*
X034506Y028015D01*
X034506Y027902D01*
X034450Y027845D01*
X034393Y027845D01*
X034166Y028072D01*
X034166Y027845D01*
D11*
X034676Y028167D02*
X034746Y028097D01*
X035026Y028097D01*
X035096Y028167D01*
X035096Y028308D01*
X035026Y028378D01*
X034956Y028378D01*
X034886Y028308D01*
X034886Y028097D01*
X034676Y028167D02*
X034676Y028308D01*
X034746Y028378D01*
X034886Y028558D02*
X034816Y028628D01*
X034816Y028838D01*
X034676Y028838D02*
X035096Y028838D01*
X035096Y028628D01*
X035026Y028558D01*
X034886Y028558D01*
X042784Y027784D02*
X042784Y027284D01*
X043034Y027034D01*
X042784Y026784D01*
X042784Y026284D01*
X043034Y026034D01*
X042784Y025784D01*
X042784Y025284D01*
X043034Y025034D01*
X042784Y024784D01*
X042784Y024284D01*
X043034Y024034D01*
X042784Y023784D01*
X042784Y023284D01*
X043034Y023034D01*
X042784Y022784D01*
X042784Y022284D01*
X043034Y022034D01*
X042784Y021784D01*
X042784Y021284D01*
X043034Y021034D01*
X042784Y020784D01*
X042784Y020284D01*
X043034Y020034D01*
X042784Y019784D01*
X042784Y019284D01*
X043034Y019034D01*
X043534Y019034D01*
X043784Y019284D01*
X043784Y019784D01*
X043534Y020034D01*
X043784Y020284D01*
X043784Y020784D01*
X043534Y021034D01*
X043784Y021284D01*
X043784Y021784D01*
X043534Y022034D01*
X043784Y022284D01*
X043784Y022784D01*
X043534Y023034D01*
X043784Y023284D01*
X043784Y023784D01*
X043534Y024034D01*
X043784Y024284D01*
X043784Y024784D01*
X043534Y025034D01*
X043784Y025284D01*
X043784Y025784D01*
X043534Y026034D01*
X043784Y026284D01*
X043784Y026784D01*
X043534Y027034D01*
X043784Y027284D01*
X043784Y027784D01*
X043534Y028034D01*
X043034Y028034D01*
X042784Y027784D01*
X027756Y017774D02*
X027756Y015294D01*
X026811Y015294D01*
X026811Y017774D01*
X027756Y017774D01*
X037549Y017099D02*
X037549Y016469D01*
X037707Y016311D01*
X038140Y016311D01*
X038140Y015756D02*
X037707Y015756D01*
X037549Y015599D01*
X037549Y014969D01*
X037707Y014811D01*
X038140Y014811D01*
X038927Y014811D02*
X039518Y014811D01*
X039518Y015756D01*
X038927Y015756D01*
X038927Y016311D02*
X039518Y016311D01*
X039518Y017256D01*
X038927Y017256D01*
X038140Y017256D02*
X037707Y017256D01*
X037549Y017099D01*
X042784Y012784D02*
X043034Y013034D01*
X043534Y013034D01*
X043784Y012784D01*
X043784Y012284D01*
X043534Y012034D01*
X043784Y011784D01*
X043784Y011284D01*
X043534Y011034D01*
X043784Y010784D01*
X043784Y010284D01*
X043534Y010034D01*
X043034Y010034D01*
X042784Y010284D01*
X042784Y010784D01*
X043034Y011034D01*
X042784Y011284D01*
X042784Y011784D01*
X043034Y012034D01*
X042784Y012284D01*
X042784Y012784D01*
X035096Y009838D02*
X035096Y009628D01*
X035026Y009558D01*
X034886Y009558D01*
X034816Y009628D01*
X034816Y009838D01*
X034676Y009838D02*
X035096Y009838D01*
X034596Y009968D02*
X034456Y010108D01*
X034596Y009968D02*
X034176Y009968D01*
X034176Y010108D02*
X034176Y009828D01*
X034676Y009308D02*
X034746Y009378D01*
X034816Y009378D01*
X034886Y009308D01*
X034886Y009167D01*
X034816Y009097D01*
X034746Y009097D01*
X034676Y009167D01*
X034676Y009308D01*
X034886Y009308D02*
X034956Y009378D01*
X035026Y009378D01*
X035096Y009308D01*
X035096Y009167D01*
X035026Y009097D01*
X034956Y009097D01*
X034886Y009167D01*
X006034Y016534D02*
X006034Y017034D01*
X005784Y017284D01*
X006034Y017534D01*
X006034Y018034D01*
X005784Y018284D01*
X005284Y018284D01*
X005034Y018034D01*
X005034Y017534D01*
X005284Y017284D01*
X005034Y017034D01*
X005034Y016534D01*
X005284Y016284D01*
X005784Y016284D01*
X006034Y016534D01*
X003934Y020744D02*
X002634Y020744D01*
X002634Y023324D01*
X003934Y023324D01*
X003934Y020744D01*
D12*
X005772Y021784D02*
X005796Y021784D01*
X005796Y023284D02*
X005772Y023284D01*
X014370Y018134D02*
X014394Y018134D01*
X015423Y018187D02*
X015447Y018187D01*
X018713Y017957D02*
X018737Y017957D01*
X019537Y017957D02*
X019561Y017957D01*
X020209Y021073D02*
X020233Y021073D01*
X021398Y021032D02*
X021422Y021032D01*
X015888Y022835D02*
X015888Y022859D01*
X015888Y023888D02*
X015888Y023912D01*
X029022Y015784D02*
X029046Y015784D01*
X033272Y013034D02*
X033296Y013034D01*
X038096Y012034D02*
X038121Y012034D01*
X034189Y016931D02*
X034165Y016931D01*
X035022Y020034D02*
X035046Y020034D01*
D13*
X038384Y017184D02*
X038384Y016384D01*
X038384Y015684D02*
X038384Y014884D01*
X036085Y014857D02*
X036085Y014557D01*
X036085Y014707D02*
X035635Y014707D01*
X035785Y014557D01*
X035785Y011707D02*
X035860Y011632D01*
X035935Y011707D01*
X036010Y011707D01*
X036085Y011632D01*
X036085Y011482D01*
X036010Y011407D01*
X035860Y011557D02*
X035860Y011632D01*
X035785Y011707D02*
X035710Y011707D01*
X035635Y011632D01*
X035635Y011482D01*
X035710Y011407D01*
X042310Y015100D02*
X042310Y015250D01*
X042385Y015325D01*
X042460Y015325D01*
X042535Y015250D01*
X042611Y015325D01*
X042686Y015325D01*
X042761Y015250D01*
X042761Y015100D01*
X042686Y015025D01*
X042535Y015175D02*
X042535Y015250D01*
X042385Y015025D02*
X042310Y015100D01*
X042686Y015560D02*
X042761Y015560D01*
X042761Y015635D01*
X042686Y015635D01*
X042686Y015560D01*
X042761Y015635D02*
X042911Y015485D01*
X042686Y015792D02*
X042761Y015867D01*
X042761Y016017D01*
X042686Y016092D01*
X042535Y016092D01*
X042460Y016017D01*
X042460Y015942D01*
X042535Y015792D01*
X042310Y015792D01*
X042310Y016092D01*
X042460Y016252D02*
X042460Y016328D01*
X042535Y016403D01*
X042460Y016478D01*
X042535Y016553D01*
X042761Y016553D01*
X042761Y016403D02*
X042535Y016403D01*
X042460Y016252D02*
X042761Y016252D01*
X042761Y016713D02*
X042460Y016713D01*
X042460Y016788D01*
X042535Y016863D01*
X042460Y016938D01*
X042535Y017013D01*
X042761Y017013D01*
X042761Y016863D02*
X042535Y016863D01*
X027429Y017209D02*
X027384Y017164D01*
X027204Y017344D01*
X027384Y017344D01*
X027429Y017299D01*
X027429Y017209D01*
X027384Y017164D02*
X027204Y017164D01*
X027158Y017209D01*
X027158Y017299D01*
X027204Y017344D01*
X018250Y018841D02*
X018093Y018841D01*
X018250Y018841D02*
X018250Y018998D01*
X016439Y018841D02*
X016282Y018841D01*
X016282Y018998D01*
X016282Y020652D02*
X016282Y020809D01*
X016439Y020809D01*
X017936Y020534D02*
X017938Y020546D01*
X017943Y020557D01*
X017952Y020566D01*
X017963Y020571D01*
X017975Y020573D01*
X017987Y020571D01*
X017998Y020566D01*
X018007Y020557D01*
X018012Y020546D01*
X018014Y020534D01*
X018012Y020522D01*
X018007Y020511D01*
X017998Y020502D01*
X017987Y020497D01*
X017975Y020495D01*
X017963Y020497D01*
X017952Y020502D01*
X017943Y020511D01*
X017938Y020522D01*
X017936Y020534D01*
X018093Y020809D02*
X018250Y020652D01*
D14*
X035284Y018296D02*
X035284Y018272D01*
X041104Y018950D02*
X041104Y018974D01*
X040034Y012296D02*
X040034Y012272D01*
D15*
X031904Y017274D02*
X031903Y017253D01*
X031898Y017233D01*
X031890Y017213D01*
X031879Y017196D01*
X031865Y017180D01*
X031848Y017168D01*
X031830Y017158D01*
X031810Y017152D01*
X031789Y017149D01*
X031768Y017150D01*
X031748Y017155D01*
X031728Y017163D01*
X031711Y017174D01*
X031695Y017188D01*
X031683Y017205D01*
X031673Y017223D01*
X031667Y017243D01*
X031664Y017264D01*
D16*
X030812Y017297D02*
X030499Y017611D01*
X030656Y017611D02*
X030656Y017297D01*
X030499Y017297D02*
X030812Y017611D01*
X030812Y017454D02*
X030499Y017454D01*
D17*
X036660Y014732D02*
X037060Y014332D01*
D18*
X036610Y014532D02*
X036612Y014563D01*
X036618Y014594D01*
X036628Y014624D01*
X036641Y014652D01*
X036658Y014679D01*
X036678Y014703D01*
X036701Y014725D01*
X036726Y014743D01*
X036754Y014758D01*
X036783Y014770D01*
X036813Y014778D01*
X036844Y014782D01*
X036876Y014782D01*
X036907Y014778D01*
X036937Y014770D01*
X036966Y014758D01*
X036994Y014743D01*
X037019Y014725D01*
X037042Y014703D01*
X037062Y014679D01*
X037079Y014652D01*
X037092Y014624D01*
X037102Y014594D01*
X037108Y014563D01*
X037110Y014532D01*
X037108Y014501D01*
X037102Y014470D01*
X037092Y014440D01*
X037079Y014412D01*
X037062Y014385D01*
X037042Y014361D01*
X037019Y014339D01*
X036994Y014321D01*
X036966Y014306D01*
X036937Y014294D01*
X036907Y014286D01*
X036876Y014282D01*
X036844Y014282D01*
X036813Y014286D01*
X036783Y014294D01*
X036754Y014306D01*
X036726Y014321D01*
X036701Y014339D01*
X036678Y014361D01*
X036658Y014385D01*
X036641Y014412D01*
X036628Y014440D01*
X036618Y014470D01*
X036612Y014501D01*
X036610Y014532D01*
M02*
