G75*
%MOIN*%
%OFA0B0*%
%FSLAX24Y24*%
%IPPOS*%
%LPD*%
%AMOC8*
5,1,8,0,0,1.08239X$1,22.5*
%
%ADD10C,0.0000*%
%ADD11C,0.0060*%
%ADD12C,0.0040*%
%ADD13C,0.0050*%
%ADD14R,0.0200X0.0200*%
D10*
X000150Y000150D02*
X000150Y032720D01*
X024592Y032720D01*
X024592Y000150D01*
X000150Y000150D01*
D11*
X004550Y013800D02*
X004650Y013800D01*
X004700Y013850D01*
X005600Y013850D01*
X005650Y013800D01*
X005750Y013800D01*
X005767Y013802D01*
X005784Y013806D01*
X005800Y013813D01*
X005814Y013823D01*
X005827Y013836D01*
X005837Y013850D01*
X005844Y013866D01*
X005848Y013883D01*
X005850Y013900D01*
X005850Y014400D02*
X005848Y014417D01*
X005844Y014434D01*
X005837Y014450D01*
X005827Y014464D01*
X005814Y014477D01*
X005800Y014487D01*
X005784Y014494D01*
X005767Y014498D01*
X005750Y014500D01*
X005650Y014500D01*
X005600Y014450D01*
X004700Y014450D01*
X004650Y014500D01*
X004550Y014500D01*
X004533Y014498D01*
X004516Y014494D01*
X004500Y014487D01*
X004486Y014477D01*
X004473Y014464D01*
X004463Y014450D01*
X004456Y014434D01*
X004452Y014417D01*
X004450Y014400D01*
X004450Y013900D02*
X004452Y013883D01*
X004456Y013866D01*
X004463Y013850D01*
X004473Y013836D01*
X004486Y013823D01*
X004500Y013813D01*
X004516Y013806D01*
X004533Y013802D01*
X004550Y013800D01*
X002000Y014050D02*
X002000Y022050D01*
X001000Y022050D01*
X000750Y022050D01*
X000750Y014050D01*
X001000Y014050D01*
X001000Y022050D01*
X001000Y014050D02*
X002000Y014050D01*
X011950Y014200D02*
X011952Y014217D01*
X011956Y014234D01*
X011963Y014250D01*
X011973Y014264D01*
X011986Y014277D01*
X012000Y014287D01*
X012016Y014294D01*
X012033Y014298D01*
X012050Y014300D01*
X012150Y014300D01*
X012200Y014250D01*
X013100Y014250D01*
X013150Y014300D01*
X013250Y014300D01*
X013267Y014298D01*
X013284Y014294D01*
X013300Y014287D01*
X013314Y014277D01*
X013327Y014264D01*
X013337Y014250D01*
X013344Y014234D01*
X013348Y014217D01*
X013350Y014200D01*
X013350Y013700D02*
X013348Y013683D01*
X013344Y013666D01*
X013337Y013650D01*
X013327Y013636D01*
X013314Y013623D01*
X013300Y013613D01*
X013284Y013606D01*
X013267Y013602D01*
X013250Y013600D01*
X013150Y013600D01*
X013100Y013650D01*
X012200Y013650D01*
X012150Y013600D01*
X012050Y013600D01*
X012033Y013602D01*
X012016Y013606D01*
X012000Y013613D01*
X011986Y013623D01*
X011973Y013636D01*
X011963Y013650D01*
X011956Y013666D01*
X011952Y013683D01*
X011950Y013700D01*
X018950Y013650D02*
X018952Y013633D01*
X018956Y013616D01*
X018963Y013600D01*
X018973Y013586D01*
X018986Y013573D01*
X019000Y013563D01*
X019016Y013556D01*
X019033Y013552D01*
X019050Y013550D01*
X019150Y013550D01*
X019200Y013600D01*
X020100Y013600D01*
X020150Y013550D01*
X020250Y013550D01*
X020267Y013552D01*
X020284Y013556D01*
X020300Y013563D01*
X020314Y013573D01*
X020327Y013586D01*
X020337Y013600D01*
X020344Y013616D01*
X020348Y013633D01*
X020350Y013650D01*
X020350Y014150D02*
X020348Y014167D01*
X020344Y014184D01*
X020337Y014200D01*
X020327Y014214D01*
X020314Y014227D01*
X020300Y014237D01*
X020284Y014244D01*
X020267Y014248D01*
X020250Y014250D01*
X020150Y014250D01*
X020100Y014200D01*
X019200Y014200D01*
X019150Y014250D01*
X019050Y014250D01*
X019033Y014248D01*
X019016Y014244D01*
X019000Y014237D01*
X018986Y014227D01*
X018973Y014214D01*
X018963Y014200D01*
X018956Y014184D01*
X018952Y014167D01*
X018950Y014150D01*
D12*
X019742Y013420D02*
X019917Y013420D01*
X019975Y013362D01*
X019975Y013245D01*
X019917Y013187D01*
X019742Y013187D01*
X019859Y013187D02*
X019975Y013070D01*
X019972Y013130D02*
X019972Y012670D01*
X020279Y012670D01*
X020432Y012670D02*
X020739Y012977D01*
X020739Y013054D01*
X020663Y013130D01*
X020509Y013130D01*
X020432Y013054D01*
X020334Y013070D02*
X020101Y013070D01*
X020334Y013304D01*
X020334Y013362D01*
X020276Y013420D01*
X020159Y013420D01*
X020101Y013362D01*
X019972Y013130D02*
X020279Y013130D01*
X020125Y012900D02*
X019972Y012900D01*
X019818Y012670D02*
X019512Y012670D01*
X019512Y013130D01*
X019358Y013054D02*
X019281Y013130D01*
X019128Y013130D01*
X019051Y013054D01*
X019051Y012747D01*
X019128Y012670D01*
X019281Y012670D01*
X019358Y012747D01*
X019358Y012900D01*
X019205Y012900D01*
X018898Y012900D02*
X018898Y012747D01*
X018821Y012670D01*
X018668Y012670D01*
X018591Y012747D01*
X018591Y013054D01*
X018668Y013130D01*
X018821Y013130D01*
X018898Y013054D01*
X018898Y012900D02*
X018744Y012900D01*
X018437Y012747D02*
X018437Y013054D01*
X018361Y013130D01*
X018207Y013130D01*
X018130Y013054D01*
X018130Y012747D01*
X018207Y012670D01*
X018361Y012670D01*
X018437Y012747D01*
X017977Y013130D02*
X017670Y013130D01*
X017823Y013130D02*
X017823Y012670D01*
X019742Y013070D02*
X019742Y013420D01*
X020432Y012670D02*
X020739Y012670D01*
X013739Y012670D02*
X013432Y012670D01*
X013279Y012670D02*
X012972Y012670D01*
X012972Y013130D01*
X013279Y013130D01*
X013334Y013120D02*
X013101Y013120D01*
X013218Y013120D02*
X013218Y013470D01*
X013101Y013354D01*
X012975Y013412D02*
X012975Y013295D01*
X012917Y013237D01*
X012742Y013237D01*
X012859Y013237D02*
X012975Y013120D01*
X012972Y012900D02*
X013125Y012900D01*
X013432Y012977D02*
X013586Y013130D01*
X013586Y012670D01*
X012975Y013412D02*
X012917Y013470D01*
X012742Y013470D01*
X012742Y013120D01*
X012512Y013130D02*
X012512Y012670D01*
X012818Y012670D01*
X012358Y012747D02*
X012358Y012900D01*
X012205Y012900D01*
X012358Y012747D02*
X012281Y012670D01*
X012128Y012670D01*
X012051Y012747D01*
X012051Y013054D01*
X012128Y013130D01*
X012281Y013130D01*
X012358Y013054D01*
X011898Y013054D02*
X011821Y013130D01*
X011668Y013130D01*
X011591Y013054D01*
X011591Y012747D01*
X011668Y012670D01*
X011821Y012670D01*
X011898Y012747D01*
X011898Y012900D01*
X011744Y012900D01*
X011437Y012747D02*
X011437Y013054D01*
X011361Y013130D01*
X011207Y013130D01*
X011130Y013054D01*
X011130Y012747D01*
X011207Y012670D01*
X011361Y012670D01*
X011437Y012747D01*
X010977Y013130D02*
X010670Y013130D01*
X010823Y013130D02*
X010823Y012670D01*
X006239Y012747D02*
X006163Y012670D01*
X006009Y012670D01*
X005932Y012747D01*
X006239Y013054D01*
X006239Y012747D01*
X006239Y013054D02*
X006163Y013130D01*
X006009Y013130D01*
X005932Y013054D01*
X005932Y012747D01*
X005779Y012670D02*
X005472Y012670D01*
X005472Y013130D01*
X005779Y013130D01*
X005776Y013320D02*
X005659Y013320D01*
X005601Y013378D01*
X005834Y013612D01*
X005834Y013378D01*
X005776Y013320D01*
X005601Y013378D02*
X005601Y013612D01*
X005659Y013670D01*
X005776Y013670D01*
X005834Y013612D01*
X005475Y013612D02*
X005475Y013495D01*
X005417Y013437D01*
X005242Y013437D01*
X005359Y013437D02*
X005475Y013320D01*
X005242Y013320D02*
X005242Y013670D01*
X005417Y013670D01*
X005475Y013612D01*
X005012Y013130D02*
X005012Y012670D01*
X005318Y012670D01*
X005472Y012900D02*
X005625Y012900D01*
X004858Y012900D02*
X004858Y012747D01*
X004781Y012670D01*
X004628Y012670D01*
X004551Y012747D01*
X004551Y013054D01*
X004628Y013130D01*
X004781Y013130D01*
X004858Y013054D01*
X004858Y012900D02*
X004705Y012900D01*
X004398Y012900D02*
X004398Y012747D01*
X004321Y012670D01*
X004168Y012670D01*
X004091Y012747D01*
X004091Y013054D01*
X004168Y013130D01*
X004321Y013130D01*
X004398Y013054D01*
X004398Y012900D02*
X004244Y012900D01*
X003937Y012747D02*
X003937Y013054D01*
X003861Y013130D01*
X003707Y013130D01*
X003630Y013054D01*
X003630Y012747D01*
X003707Y012670D01*
X003861Y012670D01*
X003937Y012747D01*
X003477Y013130D02*
X003170Y013130D01*
X003323Y013130D02*
X003323Y012670D01*
X002683Y017290D02*
X002760Y017367D01*
X002760Y017443D01*
X002683Y017520D01*
X002300Y017520D01*
X002300Y017443D02*
X002300Y017597D01*
X002453Y017750D02*
X002300Y017904D01*
X002760Y017904D01*
X002760Y018057D02*
X002760Y017750D01*
X004420Y030670D02*
X004420Y031130D01*
X004650Y031130D01*
X004727Y031054D01*
X004727Y030900D01*
X004650Y030823D01*
X004420Y030823D01*
X004880Y030747D02*
X004957Y030670D01*
X005111Y030670D01*
X005187Y030747D01*
X005187Y031054D01*
X005111Y031130D01*
X004957Y031130D01*
X004880Y031054D01*
X004880Y030747D01*
X005341Y031130D02*
X005648Y031130D01*
X005494Y031130D02*
X005494Y030670D01*
X005801Y030747D02*
X005801Y031054D01*
X005878Y031130D01*
X006031Y031130D01*
X006108Y031054D01*
X005801Y030747D01*
X005878Y030670D01*
X006031Y030670D01*
X006108Y030747D01*
X006108Y031054D01*
X010970Y031130D02*
X010970Y030670D01*
X010970Y030823D02*
X011200Y030823D01*
X011277Y030900D01*
X011277Y031054D01*
X011200Y031130D01*
X010970Y031130D01*
X011430Y031054D02*
X011430Y030747D01*
X011507Y030670D01*
X011661Y030670D01*
X011737Y030747D01*
X011737Y031054D01*
X011661Y031130D01*
X011507Y031130D01*
X011430Y031054D01*
X011891Y031130D02*
X012198Y031130D01*
X012044Y031130D02*
X012044Y030670D01*
X012351Y030670D02*
X012658Y030670D01*
X012505Y030670D02*
X012505Y031130D01*
X012351Y030977D01*
X018170Y031130D02*
X018170Y030670D01*
X018170Y030823D02*
X018400Y030823D01*
X018477Y030900D01*
X018477Y031054D01*
X018400Y031130D01*
X018170Y031130D01*
X018630Y031054D02*
X018630Y030747D01*
X018707Y030670D01*
X018861Y030670D01*
X018937Y030747D01*
X018937Y031054D01*
X018861Y031130D01*
X018707Y031130D01*
X018630Y031054D01*
X019091Y031130D02*
X019398Y031130D01*
X019244Y031130D02*
X019244Y030670D01*
X019551Y030670D02*
X019858Y030977D01*
X019858Y031054D01*
X019781Y031130D01*
X019628Y031130D01*
X019551Y031054D01*
X019551Y030670D02*
X019858Y030670D01*
D13*
X018091Y030284D02*
X018091Y021819D01*
X023209Y021819D01*
X023209Y030284D01*
X018091Y030284D01*
X016009Y030284D02*
X016009Y021819D01*
X010891Y021819D01*
X010891Y030284D01*
X016009Y030284D01*
X009459Y030284D02*
X009459Y021819D01*
X004341Y021819D01*
X004341Y030284D01*
X009459Y030284D01*
X009450Y012250D02*
X002850Y012250D01*
X002850Y003050D01*
X009450Y003050D01*
X009450Y012250D01*
X010350Y012250D02*
X010350Y003050D01*
X016950Y003050D01*
X016950Y012250D01*
X010350Y012250D01*
X017350Y012250D02*
X017350Y003050D01*
X023950Y003050D01*
X023950Y012250D01*
X017350Y012250D01*
D14*
X001500Y014550D03*
X001500Y015550D03*
X001500Y016550D03*
X001500Y017550D03*
X001500Y018550D03*
X001500Y019550D03*
X001500Y020550D03*
X001500Y021550D03*
M02*
