G75*
%MOIN*%
%OFA0B0*%
%FSLAX24Y24*%
%IPPOS*%
%LPD*%
%AMOC8*
5,1,8,0,0,1.08239X$1,22.5*
%
%ADD10OC8,0.0520*%
%ADD11R,0.4000X0.1650*%
%ADD12R,0.1650X0.3000*%
%ADD13R,0.0787X0.1575*%
%ADD14R,0.1969X0.1969*%
%ADD15C,0.0591*%
%ADD16C,0.0600*%
%ADD17C,0.0160*%
%ADD18R,0.0396X0.0396*%
%ADD19C,0.0100*%
D10*
X004150Y014150D03*
X006150Y014150D03*
X011650Y013950D03*
X013650Y013950D03*
X018650Y013900D03*
X020650Y013900D03*
D11*
X020650Y007650D03*
X013650Y007650D03*
X006150Y007650D03*
D12*
X006150Y010750D03*
X013650Y010750D03*
X020650Y010750D03*
D13*
X020650Y022804D03*
X019666Y022804D03*
X021634Y022804D03*
X021634Y029300D03*
X019666Y029300D03*
X014434Y029300D03*
X012466Y029300D03*
X007884Y029300D03*
X005916Y029300D03*
X005916Y022804D03*
X006900Y022804D03*
X007884Y022804D03*
X012466Y022804D03*
X013450Y022804D03*
X014434Y022804D03*
D14*
X013450Y026150D03*
X006900Y026150D03*
X020650Y026150D03*
D15*
X018426Y026150D03*
X015674Y026150D03*
X011226Y026150D03*
X009124Y026150D03*
X004676Y026150D03*
X022874Y026150D03*
D16*
X001800Y021550D02*
X001200Y021550D01*
X001200Y020550D02*
X001800Y020550D01*
X001800Y019550D02*
X001200Y019550D01*
X001200Y018550D02*
X001800Y018550D01*
X001800Y017550D02*
X001200Y017550D01*
X001200Y016550D02*
X001800Y016550D01*
X001800Y015550D02*
X001200Y015550D01*
X001200Y014550D02*
X001800Y014550D01*
D17*
X001500Y015550D02*
X002750Y015550D01*
X004150Y014150D01*
X004150Y011540D01*
X006150Y010750D01*
X011650Y013950D02*
X009050Y016550D01*
X001500Y016550D01*
X001500Y017550D02*
X014750Y017550D01*
X018650Y013900D01*
X018650Y011650D01*
X018900Y011400D01*
X020650Y010750D01*
X018550Y018550D02*
X020650Y020650D01*
X020650Y022804D01*
X018550Y018550D02*
X001500Y018550D01*
X001500Y019550D02*
X012050Y019550D01*
X013450Y020950D01*
X013450Y022804D01*
X006900Y022804D02*
X006900Y021900D01*
X005550Y020550D01*
X001500Y020550D01*
X011650Y013950D02*
X011650Y011540D01*
X013650Y010750D01*
D18*
X012400Y022900D03*
X005900Y022900D03*
X019650Y022900D03*
D19*
X000600Y032270D02*
X000600Y000600D01*
X024142Y000600D01*
X024142Y032270D01*
X000600Y032270D01*
X000600Y032261D02*
X024142Y032261D01*
X024142Y032163D02*
X000600Y032163D01*
X000600Y032064D02*
X024142Y032064D01*
X024142Y031966D02*
X000600Y031966D01*
X000600Y031867D02*
X024142Y031867D01*
X024142Y031769D02*
X000600Y031769D01*
X000600Y031670D02*
X024142Y031670D01*
X024142Y031572D02*
X000600Y031572D01*
X000600Y031473D02*
X024142Y031473D01*
X024142Y031375D02*
X000600Y031375D01*
X000600Y031276D02*
X024142Y031276D01*
X024142Y031178D02*
X000600Y031178D01*
X000600Y031079D02*
X024142Y031079D01*
X024142Y030981D02*
X000600Y030981D01*
X000600Y030882D02*
X024142Y030882D01*
X024142Y030784D02*
X000600Y030784D01*
X000600Y030685D02*
X024142Y030685D01*
X024142Y030587D02*
X000600Y030587D01*
X000600Y030488D02*
X024142Y030488D01*
X024142Y030390D02*
X000600Y030390D01*
X000600Y030291D02*
X005316Y030291D01*
X005276Y030251D02*
X005358Y030333D01*
X005464Y030377D01*
X006367Y030377D01*
X006474Y030333D01*
X006555Y030251D01*
X006599Y030145D01*
X006599Y028455D01*
X006555Y028348D01*
X006474Y028266D01*
X006367Y028222D01*
X005464Y028222D01*
X005358Y028266D01*
X005276Y028348D01*
X005232Y028455D01*
X005232Y030145D01*
X005276Y030251D01*
X005252Y030193D02*
X000600Y030193D01*
X000600Y030094D02*
X005232Y030094D01*
X005232Y029996D02*
X000600Y029996D01*
X000600Y029897D02*
X005232Y029897D01*
X005232Y029799D02*
X000600Y029799D01*
X000600Y029700D02*
X005232Y029700D01*
X005232Y029602D02*
X000600Y029602D01*
X000600Y029503D02*
X005232Y029503D01*
X005232Y029405D02*
X000600Y029405D01*
X000600Y029306D02*
X005232Y029306D01*
X005232Y029208D02*
X000600Y029208D01*
X000600Y029109D02*
X005232Y029109D01*
X005232Y029011D02*
X000600Y029011D01*
X000600Y028912D02*
X005232Y028912D01*
X005232Y028814D02*
X000600Y028814D01*
X000600Y028715D02*
X005232Y028715D01*
X005232Y028617D02*
X000600Y028617D01*
X000600Y028518D02*
X005232Y028518D01*
X005247Y028420D02*
X000600Y028420D01*
X000600Y028321D02*
X005303Y028321D01*
X005463Y028223D02*
X000600Y028223D01*
X000600Y028124D02*
X024142Y028124D01*
X024142Y028026D02*
X000600Y028026D01*
X000600Y027927D02*
X024142Y027927D01*
X024142Y027829D02*
X000600Y027829D01*
X000600Y027730D02*
X024142Y027730D01*
X024142Y027632D02*
X000600Y027632D01*
X000600Y027533D02*
X024142Y027533D01*
X024142Y027435D02*
X000600Y027435D01*
X000600Y027336D02*
X005707Y027336D01*
X005670Y027299D02*
X005751Y027380D01*
X005858Y027424D01*
X007942Y027424D01*
X008049Y027380D01*
X008130Y027299D01*
X008174Y027192D01*
X008174Y025108D01*
X008130Y025001D01*
X008049Y024920D01*
X007942Y024876D01*
X005858Y024876D01*
X005751Y024920D01*
X005670Y025001D01*
X005626Y025108D01*
X005626Y027192D01*
X005670Y027299D01*
X005645Y027238D02*
X000600Y027238D01*
X000600Y027139D02*
X005626Y027139D01*
X005626Y027041D02*
X000600Y027041D01*
X000600Y026942D02*
X005626Y026942D01*
X005626Y026844D02*
X000600Y026844D01*
X000600Y026745D02*
X005626Y026745D01*
X005626Y026647D02*
X005006Y026647D01*
X005007Y026646D02*
X004792Y026735D01*
X004559Y026735D01*
X004344Y026646D01*
X004179Y026482D01*
X004090Y026266D01*
X004090Y026034D01*
X004179Y025818D01*
X004344Y025654D01*
X004559Y025565D01*
X004792Y025565D01*
X005007Y025654D01*
X005172Y025818D01*
X005261Y026034D01*
X005261Y026266D01*
X005172Y026482D01*
X005007Y026646D01*
X005105Y026548D02*
X005626Y026548D01*
X005626Y026450D02*
X005185Y026450D01*
X005226Y026351D02*
X005626Y026351D01*
X005626Y026253D02*
X005261Y026253D01*
X005261Y026154D02*
X005626Y026154D01*
X005626Y026056D02*
X005261Y026056D01*
X005229Y025957D02*
X005626Y025957D01*
X005626Y025859D02*
X005188Y025859D01*
X005113Y025760D02*
X005626Y025760D01*
X005626Y025662D02*
X005015Y025662D01*
X005626Y025563D02*
X000600Y025563D01*
X000600Y025465D02*
X005626Y025465D01*
X005626Y025366D02*
X000600Y025366D01*
X000600Y025268D02*
X005626Y025268D01*
X005626Y025169D02*
X000600Y025169D01*
X000600Y025071D02*
X005641Y025071D01*
X005699Y024972D02*
X000600Y024972D01*
X000600Y024874D02*
X024142Y024874D01*
X024142Y024972D02*
X021851Y024972D01*
X021880Y025001D02*
X021924Y025108D01*
X021924Y027192D01*
X021880Y027299D01*
X021799Y027380D01*
X021692Y027424D01*
X019608Y027424D01*
X019501Y027380D01*
X019420Y027299D01*
X019376Y027192D01*
X019376Y025108D01*
X019420Y025001D01*
X019501Y024920D01*
X019608Y024876D01*
X021692Y024876D01*
X021799Y024920D01*
X021880Y025001D01*
X021909Y025071D02*
X024142Y025071D01*
X024142Y025169D02*
X021924Y025169D01*
X021924Y025268D02*
X024142Y025268D01*
X024142Y025366D02*
X021924Y025366D01*
X021924Y025465D02*
X024142Y025465D01*
X024142Y025563D02*
X021924Y025563D01*
X021924Y025662D02*
X022535Y025662D01*
X022543Y025654D02*
X022758Y025565D01*
X022991Y025565D01*
X023206Y025654D01*
X023371Y025818D01*
X023460Y026034D01*
X023460Y026266D01*
X023371Y026482D01*
X023206Y026646D01*
X022991Y026735D01*
X022758Y026735D01*
X022543Y026646D01*
X022378Y026482D01*
X022289Y026266D01*
X022289Y026034D01*
X022378Y025818D01*
X022543Y025654D01*
X022437Y025760D02*
X021924Y025760D01*
X021924Y025859D02*
X022362Y025859D01*
X022321Y025957D02*
X021924Y025957D01*
X021924Y026056D02*
X022289Y026056D01*
X022289Y026154D02*
X021924Y026154D01*
X021924Y026253D02*
X022289Y026253D01*
X022324Y026351D02*
X021924Y026351D01*
X021924Y026450D02*
X022365Y026450D01*
X022445Y026548D02*
X021924Y026548D01*
X021924Y026647D02*
X022544Y026647D01*
X023205Y026647D02*
X024142Y026647D01*
X024142Y026745D02*
X021924Y026745D01*
X021924Y026844D02*
X024142Y026844D01*
X024142Y026942D02*
X021924Y026942D01*
X021924Y027041D02*
X024142Y027041D01*
X024142Y027139D02*
X021924Y027139D01*
X021905Y027238D02*
X024142Y027238D01*
X024142Y027336D02*
X021843Y027336D01*
X022086Y028222D02*
X022192Y028266D01*
X022274Y028348D01*
X022318Y028455D01*
X022318Y030145D01*
X022274Y030251D01*
X022192Y030333D01*
X022086Y030377D01*
X021183Y030377D01*
X021076Y030333D01*
X020995Y030251D01*
X020951Y030145D01*
X020951Y028455D01*
X020995Y028348D01*
X021076Y028266D01*
X021183Y028222D01*
X022086Y028222D01*
X022087Y028223D02*
X024142Y028223D01*
X024142Y028321D02*
X022247Y028321D01*
X022303Y028420D02*
X024142Y028420D01*
X024142Y028518D02*
X022318Y028518D01*
X022318Y028617D02*
X024142Y028617D01*
X024142Y028715D02*
X022318Y028715D01*
X022318Y028814D02*
X024142Y028814D01*
X024142Y028912D02*
X022318Y028912D01*
X022318Y029011D02*
X024142Y029011D01*
X024142Y029109D02*
X022318Y029109D01*
X022318Y029208D02*
X024142Y029208D01*
X024142Y029306D02*
X022318Y029306D01*
X022318Y029405D02*
X024142Y029405D01*
X024142Y029503D02*
X022318Y029503D01*
X022318Y029602D02*
X024142Y029602D01*
X024142Y029700D02*
X022318Y029700D01*
X022318Y029799D02*
X024142Y029799D01*
X024142Y029897D02*
X022318Y029897D01*
X022318Y029996D02*
X024142Y029996D01*
X024142Y030094D02*
X022318Y030094D01*
X022298Y030193D02*
X024142Y030193D01*
X024142Y030291D02*
X022234Y030291D01*
X021034Y030291D02*
X020266Y030291D01*
X020305Y030251D02*
X020224Y030333D01*
X020117Y030377D01*
X019214Y030377D01*
X019108Y030333D01*
X019026Y030251D01*
X018982Y030145D01*
X018982Y028455D01*
X019026Y028348D01*
X019108Y028266D01*
X019214Y028222D01*
X020117Y028222D01*
X020224Y028266D01*
X020305Y028348D01*
X020349Y028455D01*
X020349Y030145D01*
X020305Y030251D01*
X020330Y030193D02*
X020970Y030193D01*
X020951Y030094D02*
X020349Y030094D01*
X020349Y029996D02*
X020951Y029996D01*
X020951Y029897D02*
X020349Y029897D01*
X020349Y029799D02*
X020951Y029799D01*
X020951Y029700D02*
X020349Y029700D01*
X020349Y029602D02*
X020951Y029602D01*
X020951Y029503D02*
X020349Y029503D01*
X020349Y029405D02*
X020951Y029405D01*
X020951Y029306D02*
X020349Y029306D01*
X020349Y029208D02*
X020951Y029208D01*
X020951Y029109D02*
X020349Y029109D01*
X020349Y029011D02*
X020951Y029011D01*
X020951Y028912D02*
X020349Y028912D01*
X020349Y028814D02*
X020951Y028814D01*
X020951Y028715D02*
X020349Y028715D01*
X020349Y028617D02*
X020951Y028617D01*
X020951Y028518D02*
X020349Y028518D01*
X020335Y028420D02*
X020965Y028420D01*
X021022Y028321D02*
X020278Y028321D01*
X020118Y028223D02*
X021182Y028223D01*
X019457Y027336D02*
X014643Y027336D01*
X014680Y027299D02*
X014599Y027380D01*
X014492Y027424D01*
X012408Y027424D01*
X012301Y027380D01*
X012220Y027299D01*
X012176Y027192D01*
X012176Y025108D01*
X012220Y025001D01*
X012301Y024920D01*
X012408Y024876D01*
X014492Y024876D01*
X014599Y024920D01*
X014680Y025001D01*
X014724Y025108D01*
X014724Y027192D01*
X014680Y027299D01*
X014705Y027238D02*
X019395Y027238D01*
X019376Y027139D02*
X014724Y027139D01*
X014724Y027041D02*
X019376Y027041D01*
X019376Y026942D02*
X014724Y026942D01*
X014724Y026844D02*
X019376Y026844D01*
X019376Y026745D02*
X014724Y026745D01*
X014724Y026647D02*
X015344Y026647D01*
X015343Y026646D02*
X015178Y026482D01*
X015089Y026266D01*
X015089Y026034D01*
X015178Y025818D01*
X015343Y025654D01*
X015558Y025565D01*
X015791Y025565D01*
X016006Y025654D01*
X016171Y025818D01*
X016260Y026034D01*
X016260Y026266D01*
X016171Y026482D01*
X016006Y026646D01*
X015791Y026735D01*
X015558Y026735D01*
X015343Y026646D01*
X015245Y026548D02*
X014724Y026548D01*
X014724Y026450D02*
X015165Y026450D01*
X015124Y026351D02*
X014724Y026351D01*
X014724Y026253D02*
X015089Y026253D01*
X015089Y026154D02*
X014724Y026154D01*
X014724Y026056D02*
X015089Y026056D01*
X015121Y025957D02*
X014724Y025957D01*
X014724Y025859D02*
X015162Y025859D01*
X015237Y025760D02*
X014724Y025760D01*
X014724Y025662D02*
X015335Y025662D01*
X014724Y025563D02*
X019376Y025563D01*
X019376Y025465D02*
X014724Y025465D01*
X014724Y025366D02*
X019376Y025366D01*
X019376Y025268D02*
X014724Y025268D01*
X014724Y025169D02*
X019376Y025169D01*
X019391Y025071D02*
X014709Y025071D01*
X014651Y024972D02*
X019449Y024972D01*
X019376Y025662D02*
X018765Y025662D01*
X018757Y025654D02*
X018542Y025565D01*
X018309Y025565D01*
X018094Y025654D01*
X017929Y025818D01*
X017840Y026034D01*
X017840Y026266D01*
X017929Y026482D01*
X018094Y026646D01*
X018309Y026735D01*
X018542Y026735D01*
X018757Y026646D01*
X018922Y026482D01*
X019011Y026266D01*
X019011Y026034D01*
X018922Y025818D01*
X018757Y025654D01*
X018863Y025760D02*
X019376Y025760D01*
X019376Y025859D02*
X018938Y025859D01*
X018979Y025957D02*
X019376Y025957D01*
X019376Y026056D02*
X019011Y026056D01*
X019011Y026154D02*
X019376Y026154D01*
X019376Y026253D02*
X019011Y026253D01*
X018976Y026351D02*
X019376Y026351D01*
X019376Y026450D02*
X018935Y026450D01*
X018855Y026548D02*
X019376Y026548D01*
X019376Y026647D02*
X018756Y026647D01*
X018095Y026647D02*
X016005Y026647D01*
X016104Y026548D02*
X017996Y026548D01*
X017916Y026450D02*
X016184Y026450D01*
X016225Y026351D02*
X017875Y026351D01*
X017840Y026253D02*
X016260Y026253D01*
X016260Y026154D02*
X017840Y026154D01*
X017840Y026056D02*
X016260Y026056D01*
X016228Y025957D02*
X017872Y025957D01*
X017913Y025859D02*
X016187Y025859D01*
X016112Y025760D02*
X017988Y025760D01*
X018086Y025662D02*
X016014Y025662D01*
X014886Y023731D02*
X014848Y023741D01*
X014484Y023741D01*
X014484Y022854D01*
X014384Y022854D01*
X014384Y023741D01*
X014095Y023741D01*
X014090Y023755D01*
X014008Y023837D01*
X013901Y023881D01*
X012999Y023881D01*
X012958Y023864D01*
X012917Y023881D01*
X012014Y023881D01*
X011908Y023837D01*
X011826Y023755D01*
X011782Y023649D01*
X011782Y021958D01*
X011826Y021852D01*
X011908Y021770D01*
X012014Y021726D01*
X012917Y021726D01*
X012958Y021743D01*
X012999Y021726D01*
X013080Y021726D01*
X013080Y021103D01*
X011897Y019920D01*
X002264Y019920D01*
X002134Y020050D01*
X002264Y020180D01*
X005624Y020180D01*
X005760Y020236D01*
X007110Y021586D01*
X007214Y021690D01*
X007228Y021726D01*
X007351Y021726D01*
X007458Y021770D01*
X007540Y021852D01*
X007545Y021866D01*
X007834Y021866D01*
X007834Y022754D01*
X007934Y022754D01*
X007934Y022854D01*
X007834Y022854D01*
X007834Y023741D01*
X007545Y023741D01*
X007540Y023755D01*
X007458Y023837D01*
X007351Y023881D01*
X006449Y023881D01*
X006408Y023864D01*
X006367Y023881D01*
X005464Y023881D01*
X005358Y023837D01*
X005276Y023755D01*
X005232Y023649D01*
X005232Y021958D01*
X005276Y021852D01*
X005358Y021770D01*
X005464Y021726D01*
X006203Y021726D01*
X005397Y020920D01*
X002264Y020920D01*
X002134Y021050D01*
X002300Y021216D01*
X002390Y021433D01*
X002390Y021667D01*
X002300Y021884D01*
X002134Y022050D01*
X001917Y022140D01*
X001083Y022140D01*
X000866Y022050D01*
X000700Y021884D01*
X000610Y021667D01*
X000610Y021433D01*
X000700Y021216D01*
X000866Y021050D01*
X000700Y020884D01*
X000610Y020667D01*
X000610Y020433D01*
X000700Y020216D01*
X000866Y020050D01*
X000700Y019884D01*
X000610Y019667D01*
X000610Y019433D01*
X000700Y019216D01*
X000866Y019050D01*
X000700Y018884D01*
X000610Y018667D01*
X000610Y018433D01*
X000700Y018216D01*
X000866Y018050D01*
X000700Y017884D01*
X000610Y017667D01*
X000610Y017433D01*
X000700Y017216D01*
X000866Y017050D01*
X000700Y016884D01*
X000610Y016667D01*
X000610Y016433D01*
X000700Y016216D01*
X000866Y016050D01*
X000700Y015884D01*
X000610Y015667D01*
X000610Y015433D01*
X000700Y015216D01*
X000866Y015050D01*
X001049Y014974D01*
X001027Y014967D01*
X000964Y014935D01*
X000907Y014893D01*
X000857Y014843D01*
X000815Y014786D01*
X000783Y014723D01*
X000761Y014655D01*
X000752Y014600D01*
X001450Y014600D01*
X001450Y014500D01*
X001550Y014500D01*
X001550Y014600D01*
X002248Y014600D01*
X002239Y014655D01*
X002217Y014723D01*
X002185Y014786D01*
X002143Y014843D01*
X002093Y014893D01*
X002036Y014935D01*
X001973Y014967D01*
X001951Y014974D01*
X002134Y015050D01*
X002264Y015180D01*
X002597Y015180D01*
X003600Y014177D01*
X003600Y013922D01*
X003780Y013742D01*
X003780Y011610D01*
X003779Y011607D01*
X003780Y011537D01*
X003780Y011466D01*
X003781Y011463D01*
X003781Y011460D01*
X003809Y011395D01*
X003836Y011330D01*
X003839Y011328D01*
X003840Y011325D01*
X003891Y011276D01*
X003940Y011226D01*
X003943Y011225D01*
X003946Y011223D01*
X004011Y011197D01*
X004076Y011170D01*
X004080Y011170D01*
X005035Y010792D01*
X005035Y009192D01*
X005079Y009086D01*
X005161Y009004D01*
X005267Y008960D01*
X007033Y008960D01*
X007139Y009004D01*
X007221Y009086D01*
X007265Y009192D01*
X007265Y012308D01*
X007221Y012414D01*
X007139Y012496D01*
X007033Y012540D01*
X005267Y012540D01*
X005161Y012496D01*
X005079Y012414D01*
X005035Y012308D01*
X005035Y011588D01*
X004520Y011791D01*
X004520Y013742D01*
X004700Y013922D01*
X004700Y014378D01*
X004378Y014700D01*
X004123Y014700D01*
X002960Y015864D01*
X002824Y015920D01*
X002264Y015920D01*
X002134Y016050D01*
X002264Y016180D01*
X008897Y016180D01*
X011100Y013977D01*
X011100Y013722D01*
X011280Y013542D01*
X011280Y011610D01*
X011279Y011607D01*
X011280Y011537D01*
X011280Y011466D01*
X011281Y011463D01*
X011281Y011460D01*
X011309Y011395D01*
X011336Y011330D01*
X011339Y011328D01*
X011340Y011325D01*
X011391Y011276D01*
X011440Y011226D01*
X011443Y011225D01*
X011446Y011223D01*
X011511Y011197D01*
X011576Y011170D01*
X011580Y011170D01*
X012535Y010792D01*
X012535Y009192D01*
X012579Y009086D01*
X012661Y009004D01*
X012767Y008960D01*
X014533Y008960D01*
X014639Y009004D01*
X014721Y009086D01*
X014765Y009192D01*
X014765Y012308D01*
X014721Y012414D01*
X014639Y012496D01*
X014533Y012540D01*
X012767Y012540D01*
X012661Y012496D01*
X012579Y012414D01*
X012535Y012308D01*
X012535Y011588D01*
X012020Y011791D01*
X012020Y013542D01*
X012200Y013722D01*
X012200Y014178D01*
X011878Y014500D01*
X011623Y014500D01*
X009260Y016864D01*
X009124Y016920D01*
X002264Y016920D01*
X002134Y017050D01*
X002264Y017180D01*
X014604Y017180D01*
X018100Y013908D01*
X018100Y013672D01*
X018280Y013492D01*
X018280Y011576D01*
X014765Y011576D01*
X014765Y011478D02*
X018321Y011478D01*
X018336Y011440D02*
X018591Y011185D01*
X018594Y011179D01*
X018643Y011134D01*
X018690Y011086D01*
X018697Y011084D01*
X018702Y011079D01*
X018765Y011056D01*
X018826Y011030D01*
X018834Y011030D01*
X019535Y010769D01*
X019535Y009192D01*
X019579Y009086D01*
X019661Y009004D01*
X019767Y008960D01*
X021533Y008960D01*
X021639Y009004D01*
X021721Y009086D01*
X021765Y009192D01*
X021765Y012308D01*
X021721Y012414D01*
X021639Y012496D01*
X021533Y012540D01*
X019767Y012540D01*
X019661Y012496D01*
X019579Y012414D01*
X019535Y012308D01*
X019535Y011559D01*
X019105Y011719D01*
X019020Y011803D01*
X019020Y013492D01*
X019200Y013672D01*
X019200Y014128D01*
X018878Y014450D01*
X018604Y014450D01*
X015007Y017816D01*
X014960Y017864D01*
X014954Y017866D01*
X014949Y017870D01*
X014886Y017894D01*
X014824Y017920D01*
X014817Y017920D01*
X014811Y017922D01*
X014744Y017920D01*
X002264Y017920D01*
X002134Y018050D01*
X002264Y018180D01*
X018624Y018180D01*
X018760Y018236D01*
X020860Y020336D01*
X020964Y020440D01*
X021020Y020576D01*
X021020Y021726D01*
X021101Y021726D01*
X021208Y021770D01*
X021290Y021852D01*
X021295Y021866D01*
X021584Y021866D01*
X021584Y022754D01*
X021684Y022754D01*
X021684Y022854D01*
X021584Y022854D01*
X021584Y023741D01*
X021295Y023741D01*
X021290Y023755D01*
X021208Y023837D01*
X021101Y023881D01*
X020199Y023881D01*
X020158Y023864D01*
X020117Y023881D01*
X019214Y023881D01*
X019108Y023837D01*
X019026Y023755D01*
X018982Y023649D01*
X018982Y021958D01*
X019026Y021852D01*
X019108Y021770D01*
X019214Y021726D01*
X020117Y021726D01*
X020158Y021743D01*
X020199Y021726D01*
X020280Y021726D01*
X020280Y020803D01*
X018397Y018920D01*
X002264Y018920D01*
X002134Y019050D01*
X002264Y019180D01*
X012124Y019180D01*
X012260Y019236D01*
X013660Y020636D01*
X013764Y020740D01*
X013820Y020876D01*
X013820Y021726D01*
X013901Y021726D01*
X014008Y021770D01*
X014090Y021852D01*
X014095Y021866D01*
X014384Y021866D01*
X014384Y022754D01*
X014484Y022754D01*
X014484Y022854D01*
X014978Y022854D01*
X014978Y023611D01*
X014968Y023649D01*
X014948Y023683D01*
X014920Y023711D01*
X014886Y023731D01*
X014939Y023692D02*
X019000Y023692D01*
X018982Y023593D02*
X014978Y023593D01*
X014978Y023495D02*
X018982Y023495D01*
X018982Y023396D02*
X014978Y023396D01*
X014978Y023298D02*
X018982Y023298D01*
X018982Y023199D02*
X014978Y023199D01*
X014978Y023101D02*
X018982Y023101D01*
X018982Y023002D02*
X014978Y023002D01*
X014978Y022904D02*
X018982Y022904D01*
X018982Y022805D02*
X014484Y022805D01*
X014484Y022754D02*
X014978Y022754D01*
X014978Y021996D01*
X014968Y021958D01*
X014948Y021924D01*
X014920Y021896D01*
X014886Y021876D01*
X014848Y021866D01*
X014484Y021866D01*
X014484Y022754D01*
X014484Y022707D02*
X014384Y022707D01*
X014384Y022608D02*
X014484Y022608D01*
X014484Y022510D02*
X014384Y022510D01*
X014384Y022411D02*
X014484Y022411D01*
X014484Y022313D02*
X014384Y022313D01*
X014384Y022214D02*
X014484Y022214D01*
X014484Y022116D02*
X014384Y022116D01*
X014384Y022017D02*
X014484Y022017D01*
X014484Y021919D02*
X014384Y021919D01*
X014058Y021820D02*
X019058Y021820D01*
X018999Y021919D02*
X014942Y021919D01*
X014978Y022017D02*
X018982Y022017D01*
X018982Y022116D02*
X014978Y022116D01*
X014978Y022214D02*
X018982Y022214D01*
X018982Y022313D02*
X014978Y022313D01*
X014978Y022411D02*
X018982Y022411D01*
X018982Y022510D02*
X014978Y022510D01*
X014978Y022608D02*
X018982Y022608D01*
X018982Y022707D02*
X014978Y022707D01*
X014484Y022904D02*
X014384Y022904D01*
X014384Y023002D02*
X014484Y023002D01*
X014484Y023101D02*
X014384Y023101D01*
X014384Y023199D02*
X014484Y023199D01*
X014484Y023298D02*
X014384Y023298D01*
X014384Y023396D02*
X014484Y023396D01*
X014484Y023495D02*
X014384Y023495D01*
X014384Y023593D02*
X014484Y023593D01*
X014484Y023692D02*
X014384Y023692D01*
X014055Y023790D02*
X019061Y023790D01*
X020280Y021722D02*
X013820Y021722D01*
X013820Y021623D02*
X020280Y021623D01*
X020280Y021525D02*
X013820Y021525D01*
X013820Y021426D02*
X020280Y021426D01*
X020280Y021328D02*
X013820Y021328D01*
X013820Y021229D02*
X020280Y021229D01*
X020280Y021131D02*
X013820Y021131D01*
X013820Y021032D02*
X020280Y021032D01*
X020280Y020934D02*
X013820Y020934D01*
X013803Y020835D02*
X020280Y020835D01*
X020213Y020737D02*
X013760Y020737D01*
X013661Y020638D02*
X020115Y020638D01*
X020016Y020540D02*
X013563Y020540D01*
X013464Y020441D02*
X019918Y020441D01*
X019819Y020343D02*
X013366Y020343D01*
X013267Y020244D02*
X019721Y020244D01*
X019622Y020146D02*
X013169Y020146D01*
X013070Y020047D02*
X019524Y020047D01*
X019425Y019949D02*
X012972Y019949D01*
X012873Y019850D02*
X019327Y019850D01*
X019228Y019752D02*
X012775Y019752D01*
X012676Y019653D02*
X019130Y019653D01*
X019031Y019555D02*
X012578Y019555D01*
X012479Y019456D02*
X018933Y019456D01*
X018834Y019358D02*
X012381Y019358D01*
X012282Y019259D02*
X018736Y019259D01*
X018637Y019161D02*
X002245Y019161D01*
X002146Y019062D02*
X018539Y019062D01*
X018440Y018964D02*
X002221Y018964D01*
X002260Y018176D02*
X024142Y018176D01*
X024142Y018274D02*
X018797Y018274D01*
X018896Y018373D02*
X024142Y018373D01*
X024142Y018471D02*
X018994Y018471D01*
X019093Y018570D02*
X024142Y018570D01*
X024142Y018668D02*
X019191Y018668D01*
X019290Y018767D02*
X024142Y018767D01*
X024142Y018865D02*
X019388Y018865D01*
X019487Y018964D02*
X024142Y018964D01*
X024142Y019062D02*
X019585Y019062D01*
X019684Y019161D02*
X024142Y019161D01*
X024142Y019259D02*
X019782Y019259D01*
X019881Y019358D02*
X024142Y019358D01*
X024142Y019456D02*
X019979Y019456D01*
X020078Y019555D02*
X024142Y019555D01*
X024142Y019653D02*
X020176Y019653D01*
X020275Y019752D02*
X024142Y019752D01*
X024142Y019850D02*
X020373Y019850D01*
X020472Y019949D02*
X024142Y019949D01*
X024142Y020047D02*
X020570Y020047D01*
X020669Y020146D02*
X024142Y020146D01*
X024142Y020244D02*
X020767Y020244D01*
X020866Y020343D02*
X024142Y020343D01*
X024142Y020441D02*
X020964Y020441D01*
X021005Y020540D02*
X024142Y020540D01*
X024142Y020638D02*
X021020Y020638D01*
X021020Y020737D02*
X024142Y020737D01*
X024142Y020835D02*
X021020Y020835D01*
X021020Y020934D02*
X024142Y020934D01*
X024142Y021032D02*
X021020Y021032D01*
X021020Y021131D02*
X024142Y021131D01*
X024142Y021229D02*
X021020Y021229D01*
X021020Y021328D02*
X024142Y021328D01*
X024142Y021426D02*
X021020Y021426D01*
X021020Y021525D02*
X024142Y021525D01*
X024142Y021623D02*
X021020Y021623D01*
X021020Y021722D02*
X024142Y021722D01*
X024142Y021820D02*
X021258Y021820D01*
X021584Y021919D02*
X021684Y021919D01*
X021684Y021866D02*
X022048Y021866D01*
X022086Y021876D01*
X022120Y021896D01*
X022148Y021924D01*
X022168Y021958D01*
X022178Y021996D01*
X022178Y022754D01*
X021684Y022754D01*
X021684Y021866D01*
X021684Y022017D02*
X021584Y022017D01*
X021584Y022116D02*
X021684Y022116D01*
X021684Y022214D02*
X021584Y022214D01*
X021584Y022313D02*
X021684Y022313D01*
X021684Y022411D02*
X021584Y022411D01*
X021584Y022510D02*
X021684Y022510D01*
X021684Y022608D02*
X021584Y022608D01*
X021584Y022707D02*
X021684Y022707D01*
X021684Y022805D02*
X024142Y022805D01*
X024142Y022707D02*
X022178Y022707D01*
X022178Y022608D02*
X024142Y022608D01*
X024142Y022510D02*
X022178Y022510D01*
X022178Y022411D02*
X024142Y022411D01*
X024142Y022313D02*
X022178Y022313D01*
X022178Y022214D02*
X024142Y022214D01*
X024142Y022116D02*
X022178Y022116D01*
X022178Y022017D02*
X024142Y022017D01*
X024142Y021919D02*
X022142Y021919D01*
X022178Y022854D02*
X021684Y022854D01*
X021684Y023741D01*
X022048Y023741D01*
X022086Y023731D01*
X022120Y023711D01*
X022148Y023683D01*
X022168Y023649D01*
X022178Y023611D01*
X022178Y022854D01*
X022178Y022904D02*
X024142Y022904D01*
X024142Y023002D02*
X022178Y023002D01*
X022178Y023101D02*
X024142Y023101D01*
X024142Y023199D02*
X022178Y023199D01*
X022178Y023298D02*
X024142Y023298D01*
X024142Y023396D02*
X022178Y023396D01*
X022178Y023495D02*
X024142Y023495D01*
X024142Y023593D02*
X022178Y023593D01*
X022139Y023692D02*
X024142Y023692D01*
X024142Y023790D02*
X021255Y023790D01*
X021584Y023692D02*
X021684Y023692D01*
X021684Y023593D02*
X021584Y023593D01*
X021584Y023495D02*
X021684Y023495D01*
X021684Y023396D02*
X021584Y023396D01*
X021584Y023298D02*
X021684Y023298D01*
X021684Y023199D02*
X021584Y023199D01*
X021584Y023101D02*
X021684Y023101D01*
X021684Y023002D02*
X021584Y023002D01*
X021584Y022904D02*
X021684Y022904D01*
X023214Y025662D02*
X024142Y025662D01*
X024142Y025760D02*
X023312Y025760D01*
X023387Y025859D02*
X024142Y025859D01*
X024142Y025957D02*
X023428Y025957D01*
X023460Y026056D02*
X024142Y026056D01*
X024142Y026154D02*
X023460Y026154D01*
X023460Y026253D02*
X024142Y026253D01*
X024142Y026351D02*
X023425Y026351D01*
X023384Y026450D02*
X024142Y026450D01*
X024142Y026548D02*
X023304Y026548D01*
X024142Y024775D02*
X000600Y024775D01*
X000600Y024677D02*
X024142Y024677D01*
X024142Y024578D02*
X000600Y024578D01*
X000600Y024480D02*
X024142Y024480D01*
X024142Y024381D02*
X000600Y024381D01*
X000600Y024283D02*
X024142Y024283D01*
X024142Y024184D02*
X000600Y024184D01*
X000600Y024086D02*
X024142Y024086D01*
X024142Y023987D02*
X000600Y023987D01*
X000600Y023889D02*
X024142Y023889D01*
X024142Y018077D02*
X002161Y018077D01*
X002206Y017979D02*
X024142Y017979D01*
X024142Y017880D02*
X014924Y017880D01*
X015044Y017782D02*
X024142Y017782D01*
X024142Y017683D02*
X015149Y017683D01*
X015255Y017585D02*
X024142Y017585D01*
X024142Y017486D02*
X015360Y017486D01*
X015465Y017388D02*
X024142Y017388D01*
X024142Y017289D02*
X015570Y017289D01*
X015676Y017191D02*
X024142Y017191D01*
X024142Y017092D02*
X015781Y017092D01*
X015886Y016994D02*
X024142Y016994D01*
X024142Y016895D02*
X015991Y016895D01*
X016097Y016797D02*
X024142Y016797D01*
X024142Y016698D02*
X016202Y016698D01*
X016307Y016600D02*
X024142Y016600D01*
X024142Y016501D02*
X016412Y016501D01*
X016518Y016403D02*
X024142Y016403D01*
X024142Y016304D02*
X016623Y016304D01*
X016728Y016206D02*
X024142Y016206D01*
X024142Y016107D02*
X016833Y016107D01*
X016939Y016009D02*
X024142Y016009D01*
X024142Y015910D02*
X017044Y015910D01*
X017149Y015812D02*
X024142Y015812D01*
X024142Y015713D02*
X017254Y015713D01*
X017360Y015615D02*
X024142Y015615D01*
X024142Y015516D02*
X017465Y015516D01*
X017570Y015418D02*
X024142Y015418D01*
X024142Y015319D02*
X017675Y015319D01*
X017780Y015221D02*
X024142Y015221D01*
X024142Y015122D02*
X017886Y015122D01*
X017991Y015024D02*
X024142Y015024D01*
X024142Y014925D02*
X018096Y014925D01*
X018201Y014827D02*
X024142Y014827D01*
X024142Y014728D02*
X018307Y014728D01*
X018412Y014630D02*
X024142Y014630D01*
X024142Y014531D02*
X018517Y014531D01*
X018895Y014433D02*
X020405Y014433D01*
X020422Y014450D02*
X020100Y014128D01*
X020100Y013672D01*
X020422Y013350D01*
X020878Y013350D01*
X021200Y013672D01*
X021200Y014128D01*
X020878Y014450D01*
X020422Y014450D01*
X020306Y014334D02*
X018994Y014334D01*
X019092Y014236D02*
X020208Y014236D01*
X020109Y014137D02*
X019191Y014137D01*
X019200Y014039D02*
X020100Y014039D01*
X020100Y013940D02*
X019200Y013940D01*
X019200Y013842D02*
X020100Y013842D01*
X020100Y013743D02*
X019200Y013743D01*
X019172Y013645D02*
X020128Y013645D01*
X020226Y013546D02*
X019074Y013546D01*
X019020Y013448D02*
X020325Y013448D01*
X020975Y013448D02*
X024142Y013448D01*
X024142Y013546D02*
X021074Y013546D01*
X021172Y013645D02*
X024142Y013645D01*
X024142Y013743D02*
X021200Y013743D01*
X021200Y013842D02*
X024142Y013842D01*
X024142Y013940D02*
X021200Y013940D01*
X021200Y014039D02*
X024142Y014039D01*
X024142Y014137D02*
X021191Y014137D01*
X021092Y014236D02*
X024142Y014236D01*
X024142Y014334D02*
X020994Y014334D01*
X020895Y014433D02*
X024142Y014433D01*
X024142Y013349D02*
X019020Y013349D01*
X019020Y013251D02*
X024142Y013251D01*
X024142Y013152D02*
X019020Y013152D01*
X019020Y013054D02*
X024142Y013054D01*
X024142Y012955D02*
X019020Y012955D01*
X019020Y012857D02*
X024142Y012857D01*
X024142Y012758D02*
X019020Y012758D01*
X019020Y012660D02*
X024142Y012660D01*
X024142Y012561D02*
X019020Y012561D01*
X019020Y012463D02*
X019627Y012463D01*
X019558Y012364D02*
X019020Y012364D01*
X019020Y012266D02*
X019535Y012266D01*
X019535Y012167D02*
X019020Y012167D01*
X019020Y012069D02*
X019535Y012069D01*
X019535Y011970D02*
X019020Y011970D01*
X019020Y011872D02*
X019535Y011872D01*
X019535Y011773D02*
X019050Y011773D01*
X019224Y011675D02*
X019535Y011675D01*
X019535Y011576D02*
X019489Y011576D01*
X019220Y010887D02*
X014765Y010887D01*
X014765Y010985D02*
X018955Y010985D01*
X018697Y011084D02*
X014765Y011084D01*
X014765Y011182D02*
X018593Y011182D01*
X018496Y011281D02*
X014765Y011281D01*
X014765Y011379D02*
X018398Y011379D01*
X018336Y011440D02*
X018280Y011576D01*
X018280Y011675D02*
X014765Y011675D01*
X014765Y011773D02*
X018280Y011773D01*
X018280Y011872D02*
X014765Y011872D01*
X014765Y011970D02*
X018280Y011970D01*
X018280Y012069D02*
X014765Y012069D01*
X014765Y012167D02*
X018280Y012167D01*
X018280Y012266D02*
X014765Y012266D01*
X014742Y012364D02*
X018280Y012364D01*
X018280Y012463D02*
X014673Y012463D01*
X013878Y013400D02*
X014200Y013722D01*
X014200Y014178D01*
X013878Y014500D01*
X013422Y014500D01*
X013100Y014178D01*
X013100Y013722D01*
X013422Y013400D01*
X013878Y013400D01*
X013925Y013448D02*
X018280Y013448D01*
X018280Y013349D02*
X012020Y013349D01*
X012020Y013251D02*
X018280Y013251D01*
X018280Y013152D02*
X012020Y013152D01*
X012020Y013054D02*
X018280Y013054D01*
X018280Y012955D02*
X012020Y012955D01*
X012020Y012857D02*
X018280Y012857D01*
X018280Y012758D02*
X012020Y012758D01*
X012020Y012660D02*
X018280Y012660D01*
X018280Y012561D02*
X012020Y012561D01*
X012020Y012463D02*
X012627Y012463D01*
X012558Y012364D02*
X012020Y012364D01*
X012020Y012266D02*
X012535Y012266D01*
X012535Y012167D02*
X012020Y012167D01*
X012020Y012069D02*
X012535Y012069D01*
X012535Y011970D02*
X012020Y011970D01*
X012020Y011872D02*
X012535Y011872D01*
X012535Y011773D02*
X012067Y011773D01*
X012316Y011675D02*
X012535Y011675D01*
X012297Y010887D02*
X007265Y010887D01*
X007265Y010985D02*
X012047Y010985D01*
X011798Y011084D02*
X007265Y011084D01*
X007265Y011182D02*
X011547Y011182D01*
X011386Y011281D02*
X007265Y011281D01*
X007265Y011379D02*
X011316Y011379D01*
X011280Y011478D02*
X007265Y011478D01*
X007265Y011576D02*
X011279Y011576D01*
X011280Y011675D02*
X007265Y011675D01*
X007265Y011773D02*
X011280Y011773D01*
X011280Y011872D02*
X007265Y011872D01*
X007265Y011970D02*
X011280Y011970D01*
X011280Y012069D02*
X007265Y012069D01*
X007265Y012167D02*
X011280Y012167D01*
X011280Y012266D02*
X007265Y012266D01*
X007242Y012364D02*
X011280Y012364D01*
X011280Y012463D02*
X007173Y012463D01*
X006378Y013600D02*
X006700Y013922D01*
X006700Y014378D01*
X006378Y014700D01*
X005922Y014700D01*
X005600Y014378D01*
X005600Y013922D01*
X005922Y013600D01*
X006378Y013600D01*
X006422Y013645D02*
X011178Y013645D01*
X011100Y013743D02*
X006521Y013743D01*
X006619Y013842D02*
X011100Y013842D01*
X011100Y013940D02*
X006700Y013940D01*
X006700Y014039D02*
X011038Y014039D01*
X010940Y014137D02*
X006700Y014137D01*
X006700Y014236D02*
X010841Y014236D01*
X010743Y014334D02*
X006700Y014334D01*
X006645Y014433D02*
X010644Y014433D01*
X010546Y014531D02*
X006547Y014531D01*
X006448Y014630D02*
X010447Y014630D01*
X010349Y014728D02*
X004095Y014728D01*
X003997Y014827D02*
X010250Y014827D01*
X010152Y014925D02*
X003898Y014925D01*
X003800Y015024D02*
X010053Y015024D01*
X009955Y015122D02*
X003701Y015122D01*
X003603Y015221D02*
X009856Y015221D01*
X009758Y015319D02*
X003504Y015319D01*
X003406Y015418D02*
X009659Y015418D01*
X009561Y015516D02*
X003307Y015516D01*
X003209Y015615D02*
X009462Y015615D01*
X009364Y015713D02*
X003110Y015713D01*
X003012Y015812D02*
X009265Y015812D01*
X009167Y015910D02*
X002848Y015910D01*
X002176Y016009D02*
X009068Y016009D01*
X008970Y016107D02*
X002191Y016107D01*
X002191Y016994D02*
X014803Y016994D01*
X014698Y017092D02*
X002176Y017092D01*
X000824Y017092D02*
X000600Y017092D01*
X000600Y016994D02*
X000809Y016994D01*
X000711Y016895D02*
X000600Y016895D01*
X000600Y016797D02*
X000664Y016797D01*
X000623Y016698D02*
X000600Y016698D01*
X000600Y016600D02*
X000610Y016600D01*
X000600Y016501D02*
X000610Y016501D01*
X000600Y016403D02*
X000622Y016403D01*
X000600Y016304D02*
X000663Y016304D01*
X000710Y016206D02*
X000600Y016206D01*
X000600Y016107D02*
X000809Y016107D01*
X000824Y016009D02*
X000600Y016009D01*
X000600Y015910D02*
X000726Y015910D01*
X000670Y015812D02*
X000600Y015812D01*
X000600Y015713D02*
X000629Y015713D01*
X000610Y015615D02*
X000600Y015615D01*
X000600Y015516D02*
X000610Y015516D01*
X000600Y015418D02*
X000616Y015418D01*
X000600Y015319D02*
X000657Y015319D01*
X000698Y015221D02*
X000600Y015221D01*
X000600Y015122D02*
X000794Y015122D01*
X000929Y015024D02*
X000600Y015024D01*
X000600Y014925D02*
X000951Y014925D01*
X000845Y014827D02*
X000600Y014827D01*
X000600Y014728D02*
X000786Y014728D01*
X000757Y014630D02*
X000600Y014630D01*
X000600Y014531D02*
X001450Y014531D01*
X001450Y014500D02*
X000752Y014500D01*
X000761Y014445D01*
X000783Y014377D01*
X000815Y014314D01*
X000857Y014257D01*
X000907Y014207D01*
X000964Y014165D01*
X001027Y014133D01*
X001095Y014111D01*
X001165Y014100D01*
X001450Y014100D01*
X001450Y014500D01*
X001450Y014433D02*
X001550Y014433D01*
X001550Y014500D02*
X001550Y014100D01*
X001835Y014100D01*
X001905Y014111D01*
X001973Y014133D01*
X002036Y014165D01*
X002093Y014207D01*
X002143Y014257D01*
X002185Y014314D01*
X002217Y014377D01*
X002239Y014445D01*
X002248Y014500D01*
X001550Y014500D01*
X001550Y014531D02*
X003246Y014531D01*
X003344Y014433D02*
X002235Y014433D01*
X002195Y014334D02*
X003443Y014334D01*
X003541Y014236D02*
X002122Y014236D01*
X001981Y014137D02*
X003600Y014137D01*
X003600Y014039D02*
X000600Y014039D01*
X000600Y014137D02*
X001019Y014137D01*
X000878Y014236D02*
X000600Y014236D01*
X000600Y014334D02*
X000805Y014334D01*
X000765Y014433D02*
X000600Y014433D01*
X000600Y013940D02*
X003600Y013940D01*
X003681Y013842D02*
X000600Y013842D01*
X000600Y013743D02*
X003779Y013743D01*
X003780Y013645D02*
X000600Y013645D01*
X000600Y013546D02*
X003780Y013546D01*
X003780Y013448D02*
X000600Y013448D01*
X000600Y013349D02*
X003780Y013349D01*
X003780Y013251D02*
X000600Y013251D01*
X000600Y013152D02*
X003780Y013152D01*
X003780Y013054D02*
X000600Y013054D01*
X000600Y012955D02*
X003780Y012955D01*
X003780Y012857D02*
X000600Y012857D01*
X000600Y012758D02*
X003780Y012758D01*
X003780Y012660D02*
X000600Y012660D01*
X000600Y012561D02*
X003780Y012561D01*
X003780Y012463D02*
X000600Y012463D01*
X000600Y012364D02*
X003780Y012364D01*
X003780Y012266D02*
X000600Y012266D01*
X000600Y012167D02*
X003780Y012167D01*
X003780Y012069D02*
X000600Y012069D01*
X000600Y011970D02*
X003780Y011970D01*
X003780Y011872D02*
X000600Y011872D01*
X000600Y011773D02*
X003780Y011773D01*
X003780Y011675D02*
X000600Y011675D01*
X000600Y011576D02*
X003779Y011576D01*
X003780Y011478D02*
X000600Y011478D01*
X000600Y011379D02*
X003816Y011379D01*
X003886Y011281D02*
X000600Y011281D01*
X000600Y011182D02*
X004047Y011182D01*
X004298Y011084D02*
X000600Y011084D01*
X000600Y010985D02*
X004547Y010985D01*
X004797Y010887D02*
X000600Y010887D01*
X000600Y010788D02*
X005035Y010788D01*
X005035Y010690D02*
X000600Y010690D01*
X000600Y010591D02*
X005035Y010591D01*
X005035Y010493D02*
X000600Y010493D01*
X000600Y010394D02*
X005035Y010394D01*
X005035Y010296D02*
X000600Y010296D01*
X000600Y010197D02*
X005035Y010197D01*
X005035Y010099D02*
X000600Y010099D01*
X000600Y010000D02*
X005035Y010000D01*
X005035Y009902D02*
X000600Y009902D01*
X000600Y009803D02*
X005035Y009803D01*
X005035Y009705D02*
X000600Y009705D01*
X000600Y009606D02*
X005035Y009606D01*
X005035Y009508D02*
X000600Y009508D01*
X000600Y009409D02*
X005035Y009409D01*
X005035Y009311D02*
X000600Y009311D01*
X000600Y009212D02*
X005035Y009212D01*
X005068Y009114D02*
X000600Y009114D01*
X000600Y009015D02*
X005150Y009015D01*
X006100Y008625D02*
X006100Y007700D01*
X006200Y007700D01*
X008300Y007700D01*
X008300Y008495D01*
X008290Y008533D01*
X008270Y008567D01*
X008242Y008595D01*
X008208Y008615D01*
X008170Y008625D01*
X006200Y008625D01*
X006200Y007700D01*
X006200Y007600D01*
X008300Y007600D01*
X008300Y006805D01*
X008290Y006767D01*
X008270Y006733D01*
X008242Y006705D01*
X008208Y006685D01*
X008170Y006675D01*
X006200Y006675D01*
X006200Y007600D01*
X006100Y007600D01*
X006100Y006675D01*
X004130Y006675D01*
X004092Y006685D01*
X004058Y006705D01*
X004030Y006733D01*
X004010Y006767D01*
X004000Y006805D01*
X004000Y007600D01*
X006100Y007600D01*
X006100Y007700D01*
X004000Y007700D01*
X004000Y008495D01*
X004010Y008533D01*
X004030Y008567D01*
X004058Y008595D01*
X004092Y008615D01*
X004130Y008625D01*
X006100Y008625D01*
X006100Y008621D02*
X006200Y008621D01*
X006200Y008523D02*
X006100Y008523D01*
X006100Y008424D02*
X006200Y008424D01*
X006200Y008326D02*
X006100Y008326D01*
X006100Y008227D02*
X006200Y008227D01*
X006200Y008129D02*
X006100Y008129D01*
X006100Y008030D02*
X006200Y008030D01*
X006200Y007932D02*
X006100Y007932D01*
X006100Y007833D02*
X006200Y007833D01*
X006200Y007735D02*
X006100Y007735D01*
X006100Y007636D02*
X000600Y007636D01*
X000600Y007538D02*
X004000Y007538D01*
X004000Y007439D02*
X000600Y007439D01*
X000600Y007341D02*
X004000Y007341D01*
X004000Y007242D02*
X000600Y007242D01*
X000600Y007144D02*
X004000Y007144D01*
X004000Y007045D02*
X000600Y007045D01*
X000600Y006947D02*
X004000Y006947D01*
X004000Y006848D02*
X000600Y006848D01*
X000600Y006750D02*
X004020Y006750D01*
X004000Y007735D02*
X000600Y007735D01*
X000600Y007833D02*
X004000Y007833D01*
X004000Y007932D02*
X000600Y007932D01*
X000600Y008030D02*
X004000Y008030D01*
X004000Y008129D02*
X000600Y008129D01*
X000600Y008227D02*
X004000Y008227D01*
X004000Y008326D02*
X000600Y008326D01*
X000600Y008424D02*
X004000Y008424D01*
X004007Y008523D02*
X000600Y008523D01*
X000600Y008621D02*
X004115Y008621D01*
X006100Y007538D02*
X006200Y007538D01*
X006200Y007636D02*
X013600Y007636D01*
X013600Y007600D02*
X011500Y007600D01*
X011500Y006805D01*
X011510Y006767D01*
X011530Y006733D01*
X011558Y006705D01*
X011592Y006685D01*
X011630Y006675D01*
X013600Y006675D01*
X013600Y007600D01*
X013700Y007600D01*
X013700Y007700D01*
X015800Y007700D01*
X015800Y008495D01*
X015790Y008533D01*
X015770Y008567D01*
X015742Y008595D01*
X015708Y008615D01*
X015670Y008625D01*
X013700Y008625D01*
X013700Y007700D01*
X013600Y007700D01*
X013600Y008625D01*
X011630Y008625D01*
X011592Y008615D01*
X011558Y008595D01*
X011530Y008567D01*
X011510Y008533D01*
X011500Y008495D01*
X011500Y007700D01*
X013600Y007700D01*
X013600Y007600D01*
X013600Y007538D02*
X013700Y007538D01*
X013700Y007600D02*
X013700Y006675D01*
X015670Y006675D01*
X015708Y006685D01*
X015742Y006705D01*
X015770Y006733D01*
X015790Y006767D01*
X015800Y006805D01*
X015800Y007600D01*
X013700Y007600D01*
X013700Y007636D02*
X020600Y007636D01*
X020600Y007600D02*
X018500Y007600D01*
X018500Y006805D01*
X018510Y006767D01*
X018530Y006733D01*
X018558Y006705D01*
X018592Y006685D01*
X018630Y006675D01*
X020600Y006675D01*
X020600Y007600D01*
X020700Y007600D01*
X020700Y007700D01*
X022800Y007700D01*
X022800Y008495D01*
X022790Y008533D01*
X022770Y008567D01*
X022742Y008595D01*
X022708Y008615D01*
X022670Y008625D01*
X020700Y008625D01*
X020700Y007700D01*
X020600Y007700D01*
X020600Y008625D01*
X018630Y008625D01*
X018592Y008615D01*
X018558Y008595D01*
X018530Y008567D01*
X018510Y008533D01*
X018500Y008495D01*
X018500Y007700D01*
X020600Y007700D01*
X020600Y007600D01*
X020600Y007538D02*
X020700Y007538D01*
X020700Y007600D02*
X020700Y006675D01*
X022670Y006675D01*
X022708Y006685D01*
X022742Y006705D01*
X022770Y006733D01*
X022790Y006767D01*
X022800Y006805D01*
X022800Y007600D01*
X020700Y007600D01*
X020700Y007636D02*
X024142Y007636D01*
X024142Y007538D02*
X022800Y007538D01*
X022800Y007439D02*
X024142Y007439D01*
X024142Y007341D02*
X022800Y007341D01*
X022800Y007242D02*
X024142Y007242D01*
X024142Y007144D02*
X022800Y007144D01*
X022800Y007045D02*
X024142Y007045D01*
X024142Y006947D02*
X022800Y006947D01*
X022800Y006848D02*
X024142Y006848D01*
X024142Y006750D02*
X022780Y006750D01*
X022800Y007735D02*
X024142Y007735D01*
X024142Y007833D02*
X022800Y007833D01*
X022800Y007932D02*
X024142Y007932D01*
X024142Y008030D02*
X022800Y008030D01*
X022800Y008129D02*
X024142Y008129D01*
X024142Y008227D02*
X022800Y008227D01*
X022800Y008326D02*
X024142Y008326D01*
X024142Y008424D02*
X022800Y008424D01*
X022793Y008523D02*
X024142Y008523D01*
X024142Y008621D02*
X022685Y008621D01*
X021732Y009114D02*
X024142Y009114D01*
X024142Y009212D02*
X021765Y009212D01*
X021765Y009311D02*
X024142Y009311D01*
X024142Y009409D02*
X021765Y009409D01*
X021765Y009508D02*
X024142Y009508D01*
X024142Y009606D02*
X021765Y009606D01*
X021765Y009705D02*
X024142Y009705D01*
X024142Y009803D02*
X021765Y009803D01*
X021765Y009902D02*
X024142Y009902D01*
X024142Y010000D02*
X021765Y010000D01*
X021765Y010099D02*
X024142Y010099D01*
X024142Y010197D02*
X021765Y010197D01*
X021765Y010296D02*
X024142Y010296D01*
X024142Y010394D02*
X021765Y010394D01*
X021765Y010493D02*
X024142Y010493D01*
X024142Y010591D02*
X021765Y010591D01*
X021765Y010690D02*
X024142Y010690D01*
X024142Y010788D02*
X021765Y010788D01*
X021765Y010887D02*
X024142Y010887D01*
X024142Y010985D02*
X021765Y010985D01*
X021765Y011084D02*
X024142Y011084D01*
X024142Y011182D02*
X021765Y011182D01*
X021765Y011281D02*
X024142Y011281D01*
X024142Y011379D02*
X021765Y011379D01*
X021765Y011478D02*
X024142Y011478D01*
X024142Y011576D02*
X021765Y011576D01*
X021765Y011675D02*
X024142Y011675D01*
X024142Y011773D02*
X021765Y011773D01*
X021765Y011872D02*
X024142Y011872D01*
X024142Y011970D02*
X021765Y011970D01*
X021765Y012069D02*
X024142Y012069D01*
X024142Y012167D02*
X021765Y012167D01*
X021765Y012266D02*
X024142Y012266D01*
X024142Y012364D02*
X021742Y012364D01*
X021673Y012463D02*
X024142Y012463D01*
X024142Y009015D02*
X021650Y009015D01*
X020700Y008621D02*
X020600Y008621D01*
X020600Y008523D02*
X020700Y008523D01*
X020700Y008424D02*
X020600Y008424D01*
X020600Y008326D02*
X020700Y008326D01*
X020700Y008227D02*
X020600Y008227D01*
X020600Y008129D02*
X020700Y008129D01*
X020700Y008030D02*
X020600Y008030D01*
X020600Y007932D02*
X020700Y007932D01*
X020700Y007833D02*
X020600Y007833D01*
X020600Y007735D02*
X020700Y007735D01*
X020700Y007439D02*
X020600Y007439D01*
X020600Y007341D02*
X020700Y007341D01*
X020700Y007242D02*
X020600Y007242D01*
X020600Y007144D02*
X020700Y007144D01*
X020700Y007045D02*
X020600Y007045D01*
X020600Y006947D02*
X020700Y006947D01*
X020700Y006848D02*
X020600Y006848D01*
X020600Y006750D02*
X020700Y006750D01*
X019650Y009015D02*
X014650Y009015D01*
X014732Y009114D02*
X019568Y009114D01*
X019535Y009212D02*
X014765Y009212D01*
X014765Y009311D02*
X019535Y009311D01*
X019535Y009409D02*
X014765Y009409D01*
X014765Y009508D02*
X019535Y009508D01*
X019535Y009606D02*
X014765Y009606D01*
X014765Y009705D02*
X019535Y009705D01*
X019535Y009803D02*
X014765Y009803D01*
X014765Y009902D02*
X019535Y009902D01*
X019535Y010000D02*
X014765Y010000D01*
X014765Y010099D02*
X019535Y010099D01*
X019535Y010197D02*
X014765Y010197D01*
X014765Y010296D02*
X019535Y010296D01*
X019535Y010394D02*
X014765Y010394D01*
X014765Y010493D02*
X019535Y010493D01*
X019535Y010591D02*
X014765Y010591D01*
X014765Y010690D02*
X019535Y010690D01*
X019485Y010788D02*
X014765Y010788D01*
X015685Y008621D02*
X018615Y008621D01*
X018507Y008523D02*
X015793Y008523D01*
X015800Y008424D02*
X018500Y008424D01*
X018500Y008326D02*
X015800Y008326D01*
X015800Y008227D02*
X018500Y008227D01*
X018500Y008129D02*
X015800Y008129D01*
X015800Y008030D02*
X018500Y008030D01*
X018500Y007932D02*
X015800Y007932D01*
X015800Y007833D02*
X018500Y007833D01*
X018500Y007735D02*
X015800Y007735D01*
X015800Y007538D02*
X018500Y007538D01*
X018500Y007439D02*
X015800Y007439D01*
X015800Y007341D02*
X018500Y007341D01*
X018500Y007242D02*
X015800Y007242D01*
X015800Y007144D02*
X018500Y007144D01*
X018500Y007045D02*
X015800Y007045D01*
X015800Y006947D02*
X018500Y006947D01*
X018500Y006848D02*
X015800Y006848D01*
X015780Y006750D02*
X018520Y006750D01*
X013700Y006750D02*
X013600Y006750D01*
X013600Y006848D02*
X013700Y006848D01*
X013700Y006947D02*
X013600Y006947D01*
X013600Y007045D02*
X013700Y007045D01*
X013700Y007144D02*
X013600Y007144D01*
X013600Y007242D02*
X013700Y007242D01*
X013700Y007341D02*
X013600Y007341D01*
X013600Y007439D02*
X013700Y007439D01*
X013700Y007735D02*
X013600Y007735D01*
X013600Y007833D02*
X013700Y007833D01*
X013700Y007932D02*
X013600Y007932D01*
X013600Y008030D02*
X013700Y008030D01*
X013700Y008129D02*
X013600Y008129D01*
X013600Y008227D02*
X013700Y008227D01*
X013700Y008326D02*
X013600Y008326D01*
X013600Y008424D02*
X013700Y008424D01*
X013700Y008523D02*
X013600Y008523D01*
X013600Y008621D02*
X013700Y008621D01*
X012650Y009015D02*
X007150Y009015D01*
X007232Y009114D02*
X012568Y009114D01*
X012535Y009212D02*
X007265Y009212D01*
X007265Y009311D02*
X012535Y009311D01*
X012535Y009409D02*
X007265Y009409D01*
X007265Y009508D02*
X012535Y009508D01*
X012535Y009606D02*
X007265Y009606D01*
X007265Y009705D02*
X012535Y009705D01*
X012535Y009803D02*
X007265Y009803D01*
X007265Y009902D02*
X012535Y009902D01*
X012535Y010000D02*
X007265Y010000D01*
X007265Y010099D02*
X012535Y010099D01*
X012535Y010197D02*
X007265Y010197D01*
X007265Y010296D02*
X012535Y010296D01*
X012535Y010394D02*
X007265Y010394D01*
X007265Y010493D02*
X012535Y010493D01*
X012535Y010591D02*
X007265Y010591D01*
X007265Y010690D02*
X012535Y010690D01*
X012535Y010788D02*
X007265Y010788D01*
X008185Y008621D02*
X011615Y008621D01*
X011507Y008523D02*
X008293Y008523D01*
X008300Y008424D02*
X011500Y008424D01*
X011500Y008326D02*
X008300Y008326D01*
X008300Y008227D02*
X011500Y008227D01*
X011500Y008129D02*
X008300Y008129D01*
X008300Y008030D02*
X011500Y008030D01*
X011500Y007932D02*
X008300Y007932D01*
X008300Y007833D02*
X011500Y007833D01*
X011500Y007735D02*
X008300Y007735D01*
X008300Y007538D02*
X011500Y007538D01*
X011500Y007439D02*
X008300Y007439D01*
X008300Y007341D02*
X011500Y007341D01*
X011500Y007242D02*
X008300Y007242D01*
X008300Y007144D02*
X011500Y007144D01*
X011500Y007045D02*
X008300Y007045D01*
X008300Y006947D02*
X011500Y006947D01*
X011500Y006848D02*
X008300Y006848D01*
X008280Y006750D02*
X011520Y006750D01*
X011280Y012561D02*
X004520Y012561D01*
X004520Y012463D02*
X005127Y012463D01*
X005058Y012364D02*
X004520Y012364D01*
X004520Y012266D02*
X005035Y012266D01*
X005035Y012167D02*
X004520Y012167D01*
X004520Y012069D02*
X005035Y012069D01*
X005035Y011970D02*
X004520Y011970D01*
X004520Y011872D02*
X005035Y011872D01*
X005035Y011773D02*
X004567Y011773D01*
X004816Y011675D02*
X005035Y011675D01*
X004520Y012660D02*
X011280Y012660D01*
X011280Y012758D02*
X004520Y012758D01*
X004520Y012857D02*
X011280Y012857D01*
X011280Y012955D02*
X004520Y012955D01*
X004520Y013054D02*
X011280Y013054D01*
X011280Y013152D02*
X004520Y013152D01*
X004520Y013251D02*
X011280Y013251D01*
X011280Y013349D02*
X004520Y013349D01*
X004520Y013448D02*
X011280Y013448D01*
X011276Y013546D02*
X004520Y013546D01*
X004520Y013645D02*
X005878Y013645D01*
X005779Y013743D02*
X004521Y013743D01*
X004619Y013842D02*
X005681Y013842D01*
X005600Y013940D02*
X004700Y013940D01*
X004700Y014039D02*
X005600Y014039D01*
X005600Y014137D02*
X004700Y014137D01*
X004700Y014236D02*
X005600Y014236D01*
X005600Y014334D02*
X004700Y014334D01*
X004645Y014433D02*
X005655Y014433D01*
X005753Y014531D02*
X004547Y014531D01*
X004448Y014630D02*
X005852Y014630D01*
X003147Y014630D02*
X002243Y014630D01*
X002214Y014728D02*
X003049Y014728D01*
X002950Y014827D02*
X002155Y014827D01*
X002049Y014925D02*
X002852Y014925D01*
X002753Y015024D02*
X002071Y015024D01*
X002206Y015122D02*
X002655Y015122D01*
X001550Y014334D02*
X001450Y014334D01*
X001450Y014236D02*
X001550Y014236D01*
X001550Y014137D02*
X001450Y014137D01*
X000725Y017191D02*
X000600Y017191D01*
X000600Y017289D02*
X000669Y017289D01*
X000629Y017388D02*
X000600Y017388D01*
X000600Y017486D02*
X000610Y017486D01*
X000600Y017585D02*
X000610Y017585D01*
X000600Y017683D02*
X000616Y017683D01*
X000600Y017782D02*
X000657Y017782D01*
X000698Y017880D02*
X000600Y017880D01*
X000600Y017979D02*
X000794Y017979D01*
X000839Y018077D02*
X000600Y018077D01*
X000600Y018176D02*
X000740Y018176D01*
X000676Y018274D02*
X000600Y018274D01*
X000600Y018373D02*
X000635Y018373D01*
X000610Y018471D02*
X000600Y018471D01*
X000600Y018570D02*
X000610Y018570D01*
X000600Y018668D02*
X000610Y018668D01*
X000600Y018767D02*
X000651Y018767D01*
X000692Y018865D02*
X000600Y018865D01*
X000600Y018964D02*
X000779Y018964D01*
X000854Y019062D02*
X000600Y019062D01*
X000600Y019161D02*
X000755Y019161D01*
X000682Y019259D02*
X000600Y019259D01*
X000600Y019358D02*
X000641Y019358D01*
X000610Y019456D02*
X000600Y019456D01*
X000600Y019555D02*
X000610Y019555D01*
X000600Y019653D02*
X000610Y019653D01*
X000600Y019752D02*
X000645Y019752D01*
X000686Y019850D02*
X000600Y019850D01*
X000600Y019949D02*
X000764Y019949D01*
X000863Y020047D02*
X000600Y020047D01*
X000600Y020146D02*
X000770Y020146D01*
X000688Y020244D02*
X000600Y020244D01*
X000600Y020343D02*
X000647Y020343D01*
X000610Y020441D02*
X000600Y020441D01*
X000600Y020540D02*
X000610Y020540D01*
X000600Y020638D02*
X000610Y020638D01*
X000600Y020737D02*
X000639Y020737D01*
X000600Y020835D02*
X000679Y020835D01*
X000749Y020934D02*
X000600Y020934D01*
X000600Y021032D02*
X000848Y021032D01*
X000785Y021131D02*
X000600Y021131D01*
X000600Y021229D02*
X000694Y021229D01*
X000654Y021328D02*
X000600Y021328D01*
X000600Y021426D02*
X000613Y021426D01*
X000600Y021525D02*
X000610Y021525D01*
X000600Y021623D02*
X000610Y021623D01*
X000600Y021722D02*
X000632Y021722D01*
X000600Y021820D02*
X000673Y021820D01*
X000734Y021919D02*
X000600Y021919D01*
X000600Y022017D02*
X000833Y022017D01*
X001024Y022116D02*
X000600Y022116D01*
X000600Y022214D02*
X005232Y022214D01*
X005232Y022116D02*
X001976Y022116D01*
X002167Y022017D02*
X005232Y022017D01*
X005249Y021919D02*
X002266Y021919D01*
X002327Y021820D02*
X005308Y021820D01*
X005232Y022313D02*
X000600Y022313D01*
X000600Y022411D02*
X005232Y022411D01*
X005232Y022510D02*
X000600Y022510D01*
X000600Y022608D02*
X005232Y022608D01*
X005232Y022707D02*
X000600Y022707D01*
X000600Y022805D02*
X005232Y022805D01*
X005232Y022904D02*
X000600Y022904D01*
X000600Y023002D02*
X005232Y023002D01*
X005232Y023101D02*
X000600Y023101D01*
X000600Y023199D02*
X005232Y023199D01*
X005232Y023298D02*
X000600Y023298D01*
X000600Y023396D02*
X005232Y023396D01*
X005232Y023495D02*
X000600Y023495D01*
X000600Y023593D02*
X005232Y023593D01*
X005250Y023692D02*
X000600Y023692D01*
X000600Y023790D02*
X005311Y023790D01*
X004336Y025662D02*
X000600Y025662D01*
X000600Y025760D02*
X004238Y025760D01*
X004163Y025859D02*
X000600Y025859D01*
X000600Y025957D02*
X004122Y025957D01*
X004090Y026056D02*
X000600Y026056D01*
X000600Y026154D02*
X004090Y026154D01*
X004090Y026253D02*
X000600Y026253D01*
X000600Y026351D02*
X004125Y026351D01*
X004166Y026450D02*
X000600Y026450D01*
X000600Y026548D02*
X004246Y026548D01*
X004345Y026647D02*
X000600Y026647D01*
X002368Y021722D02*
X006198Y021722D01*
X006100Y021623D02*
X002390Y021623D01*
X002390Y021525D02*
X006001Y021525D01*
X005903Y021426D02*
X002387Y021426D01*
X002346Y021328D02*
X005804Y021328D01*
X005706Y021229D02*
X002306Y021229D01*
X002215Y021131D02*
X005607Y021131D01*
X005509Y021032D02*
X002152Y021032D01*
X002251Y020934D02*
X005410Y020934D01*
X005866Y020343D02*
X012319Y020343D01*
X012418Y020441D02*
X005964Y020441D01*
X006063Y020540D02*
X012516Y020540D01*
X012615Y020638D02*
X006161Y020638D01*
X006260Y020737D02*
X012713Y020737D01*
X012812Y020835D02*
X006358Y020835D01*
X006457Y020934D02*
X012910Y020934D01*
X013009Y021032D02*
X006555Y021032D01*
X006654Y021131D02*
X013080Y021131D01*
X013080Y021229D02*
X006752Y021229D01*
X006851Y021328D02*
X013080Y021328D01*
X013080Y021426D02*
X006949Y021426D01*
X007048Y021525D02*
X013080Y021525D01*
X013080Y021623D02*
X007146Y021623D01*
X007227Y021722D02*
X013080Y021722D01*
X011858Y021820D02*
X007508Y021820D01*
X007834Y021919D02*
X007934Y021919D01*
X007934Y021866D02*
X008298Y021866D01*
X008336Y021876D01*
X008370Y021896D01*
X008398Y021924D01*
X008418Y021958D01*
X008428Y021996D01*
X008428Y022754D01*
X007934Y022754D01*
X007934Y021866D01*
X007934Y022017D02*
X007834Y022017D01*
X007834Y022116D02*
X007934Y022116D01*
X007934Y022214D02*
X007834Y022214D01*
X007834Y022313D02*
X007934Y022313D01*
X007934Y022411D02*
X007834Y022411D01*
X007834Y022510D02*
X007934Y022510D01*
X007934Y022608D02*
X007834Y022608D01*
X007834Y022707D02*
X007934Y022707D01*
X007934Y022805D02*
X011782Y022805D01*
X011782Y022707D02*
X008428Y022707D01*
X008428Y022608D02*
X011782Y022608D01*
X011782Y022510D02*
X008428Y022510D01*
X008428Y022411D02*
X011782Y022411D01*
X011782Y022313D02*
X008428Y022313D01*
X008428Y022214D02*
X011782Y022214D01*
X011782Y022116D02*
X008428Y022116D01*
X008428Y022017D02*
X011782Y022017D01*
X011799Y021919D02*
X008392Y021919D01*
X008428Y022854D02*
X007934Y022854D01*
X007934Y023741D01*
X008298Y023741D01*
X008336Y023731D01*
X008370Y023711D01*
X008398Y023683D01*
X008418Y023649D01*
X008428Y023611D01*
X008428Y022854D01*
X008428Y022904D02*
X011782Y022904D01*
X011782Y023002D02*
X008428Y023002D01*
X008428Y023101D02*
X011782Y023101D01*
X011782Y023199D02*
X008428Y023199D01*
X008428Y023298D02*
X011782Y023298D01*
X011782Y023396D02*
X008428Y023396D01*
X008428Y023495D02*
X011782Y023495D01*
X011782Y023593D02*
X008428Y023593D01*
X008389Y023692D02*
X011800Y023692D01*
X011861Y023790D02*
X007505Y023790D01*
X007834Y023692D02*
X007934Y023692D01*
X007934Y023593D02*
X007834Y023593D01*
X007834Y023495D02*
X007934Y023495D01*
X007934Y023396D02*
X007834Y023396D01*
X007834Y023298D02*
X007934Y023298D01*
X007934Y023199D02*
X007834Y023199D01*
X007834Y023101D02*
X007934Y023101D01*
X007934Y023002D02*
X007834Y023002D01*
X007834Y022904D02*
X007934Y022904D01*
X008101Y024972D02*
X012249Y024972D01*
X012191Y025071D02*
X008159Y025071D01*
X008174Y025169D02*
X012176Y025169D01*
X012176Y025268D02*
X008174Y025268D01*
X008174Y025366D02*
X012176Y025366D01*
X012176Y025465D02*
X008174Y025465D01*
X008174Y025563D02*
X012176Y025563D01*
X012176Y025662D02*
X011565Y025662D01*
X011557Y025654D02*
X011342Y025565D01*
X011109Y025565D01*
X010894Y025654D01*
X010729Y025818D01*
X010640Y026034D01*
X010640Y026266D01*
X010729Y026482D01*
X010894Y026646D01*
X011109Y026735D01*
X011342Y026735D01*
X011557Y026646D01*
X011722Y026482D01*
X011811Y026266D01*
X011811Y026034D01*
X011722Y025818D01*
X011557Y025654D01*
X011663Y025760D02*
X012176Y025760D01*
X012176Y025859D02*
X011738Y025859D01*
X011779Y025957D02*
X012176Y025957D01*
X012176Y026056D02*
X011811Y026056D01*
X011811Y026154D02*
X012176Y026154D01*
X012176Y026253D02*
X011811Y026253D01*
X011776Y026351D02*
X012176Y026351D01*
X012176Y026450D02*
X011735Y026450D01*
X011655Y026548D02*
X012176Y026548D01*
X012176Y026647D02*
X011556Y026647D01*
X010895Y026647D02*
X009455Y026647D01*
X009456Y026646D02*
X009241Y026735D01*
X009008Y026735D01*
X008793Y026646D01*
X008628Y026482D01*
X008539Y026266D01*
X008539Y026034D01*
X008628Y025818D01*
X008793Y025654D01*
X009008Y025565D01*
X009241Y025565D01*
X009456Y025654D01*
X009621Y025818D01*
X009710Y026034D01*
X009710Y026266D01*
X009621Y026482D01*
X009456Y026646D01*
X009554Y026548D02*
X010796Y026548D01*
X010716Y026450D02*
X009634Y026450D01*
X009675Y026351D02*
X010675Y026351D01*
X010640Y026253D02*
X009710Y026253D01*
X009710Y026154D02*
X010640Y026154D01*
X010640Y026056D02*
X009710Y026056D01*
X009678Y025957D02*
X010672Y025957D01*
X010713Y025859D02*
X009637Y025859D01*
X009562Y025760D02*
X010788Y025760D01*
X010886Y025662D02*
X009464Y025662D01*
X008785Y025662D02*
X008174Y025662D01*
X008174Y025760D02*
X008687Y025760D01*
X008612Y025859D02*
X008174Y025859D01*
X008174Y025957D02*
X008571Y025957D01*
X008539Y026056D02*
X008174Y026056D01*
X008174Y026154D02*
X008539Y026154D01*
X008539Y026253D02*
X008174Y026253D01*
X008174Y026351D02*
X008574Y026351D01*
X008615Y026450D02*
X008174Y026450D01*
X008174Y026548D02*
X008695Y026548D01*
X008794Y026647D02*
X008174Y026647D01*
X008174Y026745D02*
X012176Y026745D01*
X012176Y026844D02*
X008174Y026844D01*
X008174Y026942D02*
X012176Y026942D01*
X012176Y027041D02*
X008174Y027041D01*
X008174Y027139D02*
X012176Y027139D01*
X012195Y027238D02*
X008155Y027238D01*
X008093Y027336D02*
X012257Y027336D01*
X012014Y028222D02*
X012917Y028222D01*
X013024Y028266D01*
X013105Y028348D01*
X013149Y028455D01*
X013149Y030145D01*
X013105Y030251D01*
X013024Y030333D01*
X012917Y030377D01*
X012014Y030377D01*
X011908Y030333D01*
X011826Y030251D01*
X011782Y030145D01*
X011782Y028455D01*
X011826Y028348D01*
X011908Y028266D01*
X012014Y028222D01*
X012013Y028223D02*
X008337Y028223D01*
X008336Y028222D02*
X008442Y028266D01*
X008524Y028348D01*
X008568Y028455D01*
X008568Y030145D01*
X008524Y030251D01*
X008442Y030333D01*
X008336Y030377D01*
X007433Y030377D01*
X007326Y030333D01*
X007245Y030251D01*
X007201Y030145D01*
X007201Y028455D01*
X007245Y028348D01*
X007326Y028266D01*
X007433Y028222D01*
X008336Y028222D01*
X008497Y028321D02*
X011853Y028321D01*
X011797Y028420D02*
X008553Y028420D01*
X008568Y028518D02*
X011782Y028518D01*
X011782Y028617D02*
X008568Y028617D01*
X008568Y028715D02*
X011782Y028715D01*
X011782Y028814D02*
X008568Y028814D01*
X008568Y028912D02*
X011782Y028912D01*
X011782Y029011D02*
X008568Y029011D01*
X008568Y029109D02*
X011782Y029109D01*
X011782Y029208D02*
X008568Y029208D01*
X008568Y029306D02*
X011782Y029306D01*
X011782Y029405D02*
X008568Y029405D01*
X008568Y029503D02*
X011782Y029503D01*
X011782Y029602D02*
X008568Y029602D01*
X008568Y029700D02*
X011782Y029700D01*
X011782Y029799D02*
X008568Y029799D01*
X008568Y029897D02*
X011782Y029897D01*
X011782Y029996D02*
X008568Y029996D01*
X008568Y030094D02*
X011782Y030094D01*
X011802Y030193D02*
X008548Y030193D01*
X008484Y030291D02*
X011866Y030291D01*
X013066Y030291D02*
X013834Y030291D01*
X013795Y030251D02*
X013751Y030145D01*
X013751Y028455D01*
X013795Y028348D01*
X013876Y028266D01*
X013983Y028222D01*
X014886Y028222D01*
X014992Y028266D01*
X015074Y028348D01*
X015118Y028455D01*
X015118Y030145D01*
X015074Y030251D01*
X014992Y030333D01*
X014886Y030377D01*
X013983Y030377D01*
X013876Y030333D01*
X013795Y030251D01*
X013770Y030193D02*
X013130Y030193D01*
X013149Y030094D02*
X013751Y030094D01*
X013751Y029996D02*
X013149Y029996D01*
X013149Y029897D02*
X013751Y029897D01*
X013751Y029799D02*
X013149Y029799D01*
X013149Y029700D02*
X013751Y029700D01*
X013751Y029602D02*
X013149Y029602D01*
X013149Y029503D02*
X013751Y029503D01*
X013751Y029405D02*
X013149Y029405D01*
X013149Y029306D02*
X013751Y029306D01*
X013751Y029208D02*
X013149Y029208D01*
X013149Y029109D02*
X013751Y029109D01*
X013751Y029011D02*
X013149Y029011D01*
X013149Y028912D02*
X013751Y028912D01*
X013751Y028814D02*
X013149Y028814D01*
X013149Y028715D02*
X013751Y028715D01*
X013751Y028617D02*
X013149Y028617D01*
X013149Y028518D02*
X013751Y028518D01*
X013765Y028420D02*
X013135Y028420D01*
X013078Y028321D02*
X013822Y028321D01*
X013982Y028223D02*
X012918Y028223D01*
X014887Y028223D02*
X019213Y028223D01*
X019053Y028321D02*
X015047Y028321D01*
X015103Y028420D02*
X018997Y028420D01*
X018982Y028518D02*
X015118Y028518D01*
X015118Y028617D02*
X018982Y028617D01*
X018982Y028715D02*
X015118Y028715D01*
X015118Y028814D02*
X018982Y028814D01*
X018982Y028912D02*
X015118Y028912D01*
X015118Y029011D02*
X018982Y029011D01*
X018982Y029109D02*
X015118Y029109D01*
X015118Y029208D02*
X018982Y029208D01*
X018982Y029306D02*
X015118Y029306D01*
X015118Y029405D02*
X018982Y029405D01*
X018982Y029503D02*
X015118Y029503D01*
X015118Y029602D02*
X018982Y029602D01*
X018982Y029700D02*
X015118Y029700D01*
X015118Y029799D02*
X018982Y029799D01*
X018982Y029897D02*
X015118Y029897D01*
X015118Y029996D02*
X018982Y029996D01*
X018982Y030094D02*
X015118Y030094D01*
X015098Y030193D02*
X019002Y030193D01*
X019066Y030291D02*
X015034Y030291D01*
X007432Y028223D02*
X006368Y028223D01*
X006528Y028321D02*
X007272Y028321D01*
X007215Y028420D02*
X006585Y028420D01*
X006599Y028518D02*
X007201Y028518D01*
X007201Y028617D02*
X006599Y028617D01*
X006599Y028715D02*
X007201Y028715D01*
X007201Y028814D02*
X006599Y028814D01*
X006599Y028912D02*
X007201Y028912D01*
X007201Y029011D02*
X006599Y029011D01*
X006599Y029109D02*
X007201Y029109D01*
X007201Y029208D02*
X006599Y029208D01*
X006599Y029306D02*
X007201Y029306D01*
X007201Y029405D02*
X006599Y029405D01*
X006599Y029503D02*
X007201Y029503D01*
X007201Y029602D02*
X006599Y029602D01*
X006599Y029700D02*
X007201Y029700D01*
X007201Y029799D02*
X006599Y029799D01*
X006599Y029897D02*
X007201Y029897D01*
X007201Y029996D02*
X006599Y029996D01*
X006599Y030094D02*
X007201Y030094D01*
X007220Y030193D02*
X006580Y030193D01*
X006516Y030291D02*
X007284Y030291D01*
X005767Y020244D02*
X012221Y020244D01*
X012122Y020146D02*
X002230Y020146D01*
X002137Y020047D02*
X012024Y020047D01*
X011925Y019949D02*
X002236Y019949D01*
X009184Y016895D02*
X014908Y016895D01*
X015014Y016797D02*
X009327Y016797D01*
X009425Y016698D02*
X015119Y016698D01*
X015224Y016600D02*
X009524Y016600D01*
X009622Y016501D02*
X015329Y016501D01*
X015435Y016403D02*
X009721Y016403D01*
X009819Y016304D02*
X015540Y016304D01*
X015645Y016206D02*
X009918Y016206D01*
X010016Y016107D02*
X015750Y016107D01*
X015856Y016009D02*
X010115Y016009D01*
X010213Y015910D02*
X015961Y015910D01*
X016066Y015812D02*
X010312Y015812D01*
X010410Y015713D02*
X016171Y015713D01*
X016277Y015615D02*
X010509Y015615D01*
X010607Y015516D02*
X016382Y015516D01*
X016487Y015418D02*
X010706Y015418D01*
X010804Y015319D02*
X016592Y015319D01*
X016698Y015221D02*
X010903Y015221D01*
X011001Y015122D02*
X016803Y015122D01*
X016908Y015024D02*
X011100Y015024D01*
X011198Y014925D02*
X017013Y014925D01*
X017119Y014827D02*
X011297Y014827D01*
X011395Y014728D02*
X017224Y014728D01*
X017329Y014630D02*
X011494Y014630D01*
X011592Y014531D02*
X017434Y014531D01*
X017540Y014433D02*
X013945Y014433D01*
X014044Y014334D02*
X017645Y014334D01*
X017750Y014236D02*
X014142Y014236D01*
X014200Y014137D02*
X017855Y014137D01*
X017960Y014039D02*
X014200Y014039D01*
X014200Y013940D02*
X018066Y013940D01*
X018100Y013842D02*
X014200Y013842D01*
X014200Y013743D02*
X018100Y013743D01*
X018128Y013645D02*
X014122Y013645D01*
X014024Y013546D02*
X018226Y013546D01*
X013375Y013448D02*
X012020Y013448D01*
X012024Y013546D02*
X013276Y013546D01*
X013178Y013645D02*
X012122Y013645D01*
X012200Y013743D02*
X013100Y013743D01*
X013100Y013842D02*
X012200Y013842D01*
X012200Y013940D02*
X013100Y013940D01*
X013100Y014039D02*
X012200Y014039D01*
X012200Y014137D02*
X013100Y014137D01*
X013158Y014236D02*
X012142Y014236D01*
X012044Y014334D02*
X013256Y014334D01*
X013355Y014433D02*
X011945Y014433D01*
X006200Y007439D02*
X006100Y007439D01*
X006100Y007341D02*
X006200Y007341D01*
X006200Y007242D02*
X006100Y007242D01*
X006100Y007144D02*
X006200Y007144D01*
X006200Y007045D02*
X006100Y007045D01*
X006100Y006947D02*
X006200Y006947D01*
X006200Y006848D02*
X006100Y006848D01*
X006100Y006750D02*
X006200Y006750D01*
X000600Y006651D02*
X024142Y006651D01*
X024142Y006553D02*
X000600Y006553D01*
X000600Y006454D02*
X024142Y006454D01*
X024142Y006356D02*
X000600Y006356D01*
X000600Y006257D02*
X024142Y006257D01*
X024142Y006159D02*
X000600Y006159D01*
X000600Y006060D02*
X024142Y006060D01*
X024142Y005962D02*
X000600Y005962D01*
X000600Y005863D02*
X024142Y005863D01*
X024142Y005765D02*
X000600Y005765D01*
X000600Y005666D02*
X024142Y005666D01*
X024142Y005568D02*
X000600Y005568D01*
X000600Y005469D02*
X024142Y005469D01*
X024142Y005371D02*
X000600Y005371D01*
X000600Y005272D02*
X024142Y005272D01*
X024142Y005174D02*
X000600Y005174D01*
X000600Y005075D02*
X024142Y005075D01*
X024142Y004977D02*
X000600Y004977D01*
X000600Y004878D02*
X024142Y004878D01*
X024142Y004780D02*
X000600Y004780D01*
X000600Y004681D02*
X024142Y004681D01*
X024142Y004583D02*
X000600Y004583D01*
X000600Y004484D02*
X024142Y004484D01*
X024142Y004386D02*
X000600Y004386D01*
X000600Y004287D02*
X024142Y004287D01*
X024142Y004189D02*
X000600Y004189D01*
X000600Y004090D02*
X024142Y004090D01*
X024142Y003992D02*
X000600Y003992D01*
X000600Y003893D02*
X024142Y003893D01*
X024142Y003795D02*
X000600Y003795D01*
X000600Y003696D02*
X024142Y003696D01*
X024142Y003598D02*
X000600Y003598D01*
X000600Y003499D02*
X024142Y003499D01*
X024142Y003401D02*
X000600Y003401D01*
X000600Y003302D02*
X024142Y003302D01*
X024142Y003204D02*
X000600Y003204D01*
X000600Y003105D02*
X024142Y003105D01*
X024142Y003007D02*
X000600Y003007D01*
X000600Y002908D02*
X024142Y002908D01*
X024142Y002810D02*
X000600Y002810D01*
X000600Y002711D02*
X024142Y002711D01*
X024142Y002613D02*
X000600Y002613D01*
X000600Y002514D02*
X024142Y002514D01*
X024142Y002416D02*
X000600Y002416D01*
X000600Y002317D02*
X024142Y002317D01*
X024142Y002219D02*
X000600Y002219D01*
X000600Y002120D02*
X024142Y002120D01*
X024142Y002022D02*
X000600Y002022D01*
X000600Y001923D02*
X024142Y001923D01*
X024142Y001825D02*
X000600Y001825D01*
X000600Y001726D02*
X024142Y001726D01*
X024142Y001628D02*
X000600Y001628D01*
X000600Y001529D02*
X024142Y001529D01*
X024142Y001431D02*
X000600Y001431D01*
X000600Y001332D02*
X024142Y001332D01*
X024142Y001234D02*
X000600Y001234D01*
X000600Y001135D02*
X024142Y001135D01*
X024142Y001037D02*
X000600Y001037D01*
X000600Y000938D02*
X024142Y000938D01*
X024142Y000840D02*
X000600Y000840D01*
X000600Y000741D02*
X024142Y000741D01*
X024142Y000643D02*
X000600Y000643D01*
X000600Y008720D02*
X024142Y008720D01*
X024142Y008818D02*
X000600Y008818D01*
X000600Y008917D02*
X024142Y008917D01*
M02*
